<svg id="Capa_1" data-name="Capa 1" xmlns="http://www.w3.org/2000/svg" viewBox="0 0 104.77 104.77"><defs><style>.cls-2{fill:#13a79c}</style></defs><circle cx="52.39" cy="52.39" r="50" style="fill:#fff;stroke:#13a89d;stroke-miterlimit:10;stroke-width:4.77px"/><g id="_10186_-_Disengaged_Participant" data-name="10186 - Disengaged Participant"><path class="cls-2" d="M119 95.61a.8.8 0 0 1-.24 0H59.59a1 1 0 0 1-.24 0h-3.76v1.53a4.83 4.83 0 0 0 4.83 4.86h57.47a4.83 4.83 0 0 0 4.83-4.83v-1.56ZM117.94 57.92a1.49 1.49 0 0 0-1.49-1.48H61.91a1.49 1.49 0 0 0-1.49 1.48V94h57.52V57.92Zm-11.72 34.56a2.26 2.26 0 0 1-.83-4.37V70.36l-2.63 1.47v9.35a.75.75 0 0 1-.26.59.74.74 0 0 1-.61.22s-4.28 0-12.79 6.3a.84.84 0 0 1-.65.32h-.07a.88.88 0 0 1-.66-.32C79.22 82 75 82 74.91 82a.81.81 0 0 1-.61-.22.77.77 0 0 1-.24-.59v-9.4l-3.8-2.14a.83.83 0 0 1-.42-.72.82.82 0 0 1 .42-.72L88 58a.84.84 0 0 1 .84 0l17.81 10.19h.11l.07.07s.07.09.09.13a.36.36 0 0 1 .07.22V88.07a2.29 2.29 0 0 1 1.44 2.1 2.25 2.25 0 0 1-2.21 2.31Z" transform="translate(-38.61 -28.11)"/><path class="cls-2" d="M88.45 79.76a.77.77 0 0 1-.4-.11l-12.33-6.91v7.72c1.71.24 5.93 1.36 12.7 6.34 6.78-5 11-6.1 12.7-6.34v-7.67l-12.26 6.86a.9.9 0 0 1-.41.11Z" transform="translate(-38.61 -28.11)"/><path class="cls-2" d="M89.17 68.13h13.94L88.4 59.72 72.33 69l2.93 1.64L88.42 78l12.92-7.26a.86.86 0 0 1 .35-.19l1.34-.75H89.17a.83.83 0 0 1 0-1.66ZM106.22 89.62a.61.61 0 1 0 0 1.22.61.61 0 0 0 .61-.61.59.59 0 0 0-.61-.61Z" transform="translate(-38.61 -28.11)"/></g></svg>