<svg xmlns="http://www.w3.org/2000/svg" viewBox="0 0 160 160"><defs><style>.cls-1{fill:#fff}</style></defs><g id="Icono_2" data-name="Icono 2"><path class="cls-1" d="M79.76 93.7h67.92c7.43 0 11.75 4.29 11.75 11.7v40.1c0 7.33-4.33 11.68-11.61 11.68H11.32a10.45 10.45 0 0 1-10.75-10.8v-41.92a10.45 10.45 0 0 1 10.78-10.73h68.41Zm40.18 21.23h15.61a5.4 5.4 0 1 0 0-10.79h-21a5.27 5.27 0 0 0-5.48 5.56v31.49a5.29 5.29 0 0 0 5.48 5.56h21a5.4 5.4 0 1 0 0-10.79h-15.61v-5.11c3.45 0 6.8.07 10.15 0a7.21 7.21 0 0 0 3.26-.91 5.21 5.21 0 0 0 2.23-5.93 5.38 5.38 0 0 0-5.16-3.91h-10.48ZM82.6 133.55c-2.73-2.92-4.53-6.11-4.81-9.84-.34-4.61-.27-9.26-.35-13.89-.06-3.33-2.26-5.68-5.37-5.69a5.31 5.31 0 0 0-5.43 5.61c0 3.32-.13 6.64 0 9.94a52.25 52.25 0 0 0 1 8.84c1.63 7.24 6.39 12.48 11.78 17.17a5.08 5.08 0 0 0 7-.46 76 76 0 0 0 5.32-5.45 25.34 25.34 0 0 0 6.53-14.57c.44-5.44.27-10.92.36-16.38a3 3 0 0 0-.22-1 5.4 5.4 0 0 0-10.55 1.69c-.1 4.75 0 9.51-.38 14.23a15.45 15.45 0 0 1-4.88 9.8ZM19.12 136v-26.27a5.32 5.32 0 0 0-5.34-5.54 5.28 5.28 0 0 0-5.44 5.42v31.79a5.26 5.26 0 0 0 5.3 5.4H35a5.39 5.39 0 0 0 0-10.8H21.09Zm37.11-10.51v-15.58c0-3.33-2.22-5.7-5.31-5.73s-5.48 2.31-5.48 5.73v31.15c0 3.33 2.23 5.71 5.31 5.74s5.47-2.33 5.48-5.74c.01-5.24 0-10.43 0-15.62ZM37.08 2.82A6 6 0 0 1 42 6.33a5 5 0 0 1-1.25 5.91A48.51 48.51 0 0 0 32 24.41a47.7 47.7 0 0 0 8.13 54.45c1.35 1.41 2.46 2.87 2.26 4.92a4.94 4.94 0 0 1-3.41 4.47 5 5 0 0 1-5.59-1.4 58.09 58.09 0 0 1-12.71-19.21A56.73 56.73 0 0 1 16.53 43 56.84 56.84 0 0 1 33.48 4.82c.94-.94 2.39-1.35 3.6-2ZM133.13 45.76a47.53 47.53 0 0 0-13.57-33.2c-2.4-2.5-2.69-5.29-.75-7.53a5.17 5.17 0 0 1 7.86-.09 54 54 0 0 1 13.65 22q10.44 33.48-13.26 59.48c-1.48 1.61-3.21 2.54-5.44 2-4-1-5.25-5.54-2.5-8.77a84.19 84.19 0 0 0 6.39-8c5.11-7.65 7.49-16.25 7.62-25.89Z"/><path class="cls-1" d="M37.6 46.74c.31-11.06 3.72-19.54 10.51-26.62 2.35-2.45 5.41-2.63 7.63-.52s2.25 5.19-.06 7.64A26.45 26.45 0 0 0 48.1 46.9a25.79 25.79 0 0 0 7.38 17.41 5.46 5.46 0 0 1 1.79 5.07 4.9 4.9 0 0 1-3.44 3.9 5 5 0 0 1-5.45-1.38 35.62 35.62 0 0 1-9.69-17.59c-.64-2.89-.85-5.87-1.09-7.57ZM122.39 45.56a37.48 37.48 0 0 1-10.63 26.18 5.17 5.17 0 0 1-5.57 1.56 4.94 4.94 0 0 1-3.48-3.86 5.41 5.41 0 0 1 1.73-5.09A25.87 25.87 0 0 0 111.87 45a26.47 26.47 0 0 0-7.53-17.69c-2.14-2.25-2.33-5.08-.61-7.16a5.05 5.05 0 0 1 7.61-.51A36 36 0 0 1 122 41c.16 1.48.25 3 .39 4.56ZM69.49 45.66a10.51 10.51 0 0 1 21 .37 10.51 10.51 0 1 1-21-.37Z"/></g></svg>