<svg xmlns="http://www.w3.org/2000/svg" viewBox="0 0 160 160"><defs><style>.cls-1{fill:#fff}</style></defs><g id="Icono_3" data-name="Icono 3"><path class="cls-1" d="M1 22c1.26-3 3.56-4 6.74-4 17.79.08 35.58 0 53.38 0h2a23.2 23.2 0 0 1-.22-2.78 7.33 7.33 0 0 1 7.36-7.2C76.6 8 83 8 89.35 8.06c5.15 0 8.37 3.83 7.64 8.94 0 .29-.07.59-.12 1.06h55.73c4.47 0 6.4 1.92 6.4 6.36v103.67c0 4.13-2 6.17-6.13 6.17H92.8V147h29.76a5.85 5.85 0 0 1 1.82.2 2.2 2.2 0 0 1 1.61 2.49 2.26 2.26 0 0 1-2 2.18 8.81 8.81 0 0 1-1.54.05H37.57a10.76 10.76 0 0 1-1.39 0 2.43 2.43 0 0 1-.26-4.8 7.29 7.29 0 0 1 1.69-.1h29.57v-12.76H7.73c-3.19 0-5.47-1-6.73-4Zm5 107.2h148V23.13H6Zm81.68 17.6v-12.41H72.35v12.41ZM75.16 13c-1.62 0-3.46-.11-5.28 0a2.24 2.24 0 0 0-2.07 2.46 2.19 2.19 0 0 0 2 2.39c1.79.17 3.62 0 5.16 0Zm9.73 5c1.66 0 3.4.09 5.13 0a2.26 2.26 0 0 0 2.17-2.38 2.18 2.18 0 0 0-1.86-2.47 52.53 52.53 0 0 0-5.44 0Z"/><path class="cls-1" d="M147.85 123.79H12.12V28.53h135.73ZM17.1 33.45v85.39h125.83V33.45Z"/><path class="cls-1" d="M20.88 64.18h12.77v3.25h-7.91v2.45H33v3.3h-7.3v3.06h8.2v3.43h-13ZM106 96.73c-1.15 2.1-2.22 4.07-3.5 6.44-1.33-6.23-2.57-12.06-3.89-18.23l17.76 5.75-6.77 2.81 4.53 5.09-3.48 3.21ZM127.44 80c1.65.6 3.4-.09 4.82 1.39.91.94 2.53.09 2.77-1.25a11.74 11.74 0 0 0 .09-1.59 21.56 21.56 0 0 1-4.55.55 4.2 4.2 0 0 1-2.45-1.65c-1.71-2.15-1.48-6.24.29-8s4.19-1.62 6.82.15c.46-1.32 1.11-1.48 4.3-1v9.9c0 4.13-1.59 5.78-5.76 5.83a16.34 16.34 0 0 1-4-.38c-1.77-.41-2.49-1.74-2.33-3.95Zm3.88-6.07c0 1.55.76 2.45 2 2.4s1.92-1.06 1.87-2.54-.88-2.44-2-2.42-1.89.96-1.87 2.55ZM77.54 79.76c-1.25-.4-3.08 1-4.15-1.17A6.41 6.41 0 0 1 68.21 80 3.29 3.29 0 0 1 65 77c-.12-1.64.72-2.78 2.59-3.3s3.75-.92 5.62-1.37c-.38-1.5-1.66-2.19-2.66-1.26-1.66 1.54-3.3.7-5.08.63a3 3 0 0 1 2.59-3 28.79 28.79 0 0 1 6.69 0c1.86.22 2.71 1.7 2.74 3.9.08 2.24.05 4.59.05 7.16Zm-4.44-5.28a20.4 20.4 0 0 0-2.86 1 1.55 1.55 0 0 0-.71 1.28 1.62 1.62 0 0 0 1.2.84c1.69.12 2.61-1.07 2.37-3.12ZM91.14 68.5h3.79l.17.93a23.29 23.29 0 0 1 4.43-1.14 3 3 0 0 1 3.29 3c.15 2.75 0 5.52 0 8.41H98.6v-5.67c0-1.06.14-2.35-1.48-2.34s-1.71 1.23-1.73 2.41v5.61h-4.25ZM124.75 79.69h-4.23v-5.32c0-1.1.4-2.55-1.41-2.72-1.22-.12-1.78.79-1.8 2.81v5.19H113v-11c3-.62 3.82-.39 4 .81a24.81 24.81 0 0 1 4.51-1.13A2.84 2.84 0 0 1 124.7 71c.17 2.88.05 5.75.05 8.69ZM55 75.09c.28 2.09 1.62 3 3 2.12 1.71-1.13 3.32-.36 5.06-.4-1.18 2.84-5.15 4.06-8.92 2.88a5.85 5.85 0 0 1-3.59-7c.76-3.36 3.64-4.94 8-4.41 3.33.41 5.06 2.72 4.94 6.8Zm4.07-2c-.13-1.44-.71-2.32-2.09-2.27s-2 .8-2 2.27ZM48.1 79.7h-4.2V64.21h4.2ZM84.5 79.69h-4.14V68.6c3.07-.56 3.75-.39 4 1a7.89 7.89 0 0 1 2.12-1.24 9.21 9.21 0 0 1 2.69.25 27.12 27.12 0 0 1-1.17 2.6 1.15 1.15 0 0 1-1 .42 1.75 1.75 0 0 0-2.22 1.74c-.18 1.83-.19 3.67-.28 5.51.08.25.04.49 0 .81ZM105.83 79.68V68.55H110v11.13ZM35.6 75.63v-3.17h6.1v3.17ZM110.13 64.22v2a7.52 7.52 0 0 1-.11.8h-4.13v-2.8Z"/></g></svg>