<svg xmlns="http://www.w3.org/2000/svg" viewBox="0 0 160 160"><defs><style>.cls-1{fill:#fff}</style></defs><g id="Icono_1" data-name="Icono 1"><path class="cls-1" d="M80 121.47H11c-5.85 0-8.89-3-8.89-8.9V36.74c0-5.74 3.07-8.81 8.82-8.81h2.6a2.59 2.59 0 1 1-.06 5.17h-3.41a2.61 2.61 0 0 0-2.75 2.76V112.34c0 3.21.69 3.9 3.88 3.9h137.69c3.22 0 3.92-.69 3.92-3.87V73.24a7.28 7.28 0 0 1 .06-1.62 2.58 2.58 0 0 1 5.06-.06 7.16 7.16 0 0 1 .07 1.61v39.62c0 5.52-3.14 8.65-8.66 8.65Z"/><path class="cls-1" d="M108.58 38.39v32.47c0 3.53-1.46 4.52-4.68 3.18-9.42-3.92-18.84-7.86-28.27-11.75a7.73 7.73 0 0 0-2.81-.56H44.59c-2.76 0-3.57-.81-3.57-3.57V18.52c0-2.78.8-3.58 3.55-3.59h28.24a7.73 7.73 0 0 0 2.81-.56c9.54-3.93 19-7.92 28.59-11.83a4.61 4.61 0 0 1 2.79-.28c1.4.39 1.62 1.69 1.61 3q-.04 16.58-.03 33.13Zm-5.29 29.76V8.6a6.23 6.23 0 0 0-.72.18c-8.08 3.36-16.15 6.75-24.25 10.08-.82.34-.94.83-.94 1.61v35.72a1.5 1.5 0 0 0 1.13 1.65c4 1.6 7.89 3.26 11.83 4.9Zm-57-47.95v36.18h25.83V20.2ZM59.77 142.26c.8-4.14 1.58-8.16 2.36-12.18a14 14 0 0 1 .31-1.43 2.59 2.59 0 0 1 3.09-2 2.65 2.65 0 0 1 2 3.21c-.75 3.76-1.56 7.51-2.35 11.27-.06.31-.08.63-.13 1h30c-.53-2.62-1-5.18-1.56-7.73-.28-1.38-.6-2.75-.85-4.13-.37-2 .39-3.36 2-3.65s2.84.71 3.21 2.66c.82 4.24 1.63 8.48 2.48 12.92h18.16c4.75 0 8.25 3.28 8.29 7.72s-3.48 7.87-8.3 7.87H41.53c-4.8 0-8.32-3.38-8.28-7.89s3.56-7.69 8.3-7.7h18.22Zm20.39 5.2h-38a6.73 6.73 0 0 0-1.62.07 2.57 2.57 0 0 0 0 5.05 6.73 6.73 0 0 0 1.62.07h75.67a7.79 7.79 0 0 0 1.45 0 2.58 2.58 0 0 0 0-5.11 8.75 8.75 0 0 0-1.62 0ZM80.08 100.68h56.83a2.6 2.6 0 1 1 0 5.19H24.22c-2.75 0-4-.87-4-2.68s1.24-2.52 4-2.52Z"/><path class="cls-1" d="M53.41 79.89H68.1a6.74 6.74 0 0 0 .86-.11c-.64-3.13-1.27-6.2-1.87-9.27-.39-2 .52-3.44 2.23-3.61a2.52 2.52 0 0 1 2.85 2.1c.91 4.28 1.79 8.57 2.58 12.87a2.59 2.59 0 0 1-2.75 3.2H51.39a2.43 2.43 0 0 1-2.57-2c-.91-4.34-1.8-8.68-2.6-13a2.53 2.53 0 0 1 2.15-3.09 2.57 2.57 0 0 1 3 2.25c.74 3.48 1.37 7.03 2.04 10.66ZM20.27 37.23c.39-7.19 4-13.42 11.29-17.4A2.7 2.7 0 0 1 35 20c1.46 1.36 1 3.32-1.13 4.44a15.25 15.25 0 0 0-7.83 9.68 15.5 15.5 0 0 0 7 17.51c.38.22.76.41 1.14.63 1.58.91 2.08 2.28 1.35 3.64s-2.16 1.71-3.79.93c-6.86-3.24-11.5-10.74-11.47-19.6ZM129.43 37.7c-.53 8.95-4.15 15.18-11.46 19.12-1.55.83-2.94.56-3.76-.61-1-1.4-.47-3 1.36-4a15.62 15.62 0 0 0 .59-27.53 5.63 5.63 0 0 1-1.67-1.22 2.36 2.36 0 0 1 .08-3.14 2.51 2.51 0 0 1 3.37-.54 20.14 20.14 0 0 1 10.38 12.28 45.44 45.44 0 0 1 1.11 5.64ZM157.94 42.58v6.49c0 2.41-.82 3.55-2.56 3.57s-2.63-1.14-2.63-3.65V36.66c0-2.73-.82-3.53-3.6-3.54h-12.49c-2 0-3.17-1-3.13-2.67s1.14-2.51 3.12-2.52h13.46a7.73 7.73 0 0 1 7.83 7.82c.06 2.25 0 4.56 0 6.83ZM128.93 23a10.22 10.22 0 0 1-2-2.12 2.07 2.07 0 0 1 .93-2.81c3.68-1.94 7.39-3.81 11.16-5.55.58-.27 1.54.14 2.27.4.42.15.72.64 1.07 1 1.06 1 2 2.62 3.2 2.8s2.6-1.07 3.9-1.71c1.5-.74 3-1.53 4.5-2.25a2.6 2.6 0 1 1 2.28 4.65c-3.31 1.7-6.65 3.35-10 5a2.67 2.67 0 0 1-3.28-.48l-.46-.46c-1.13-1.07-2.15-2.77-3.44-3s-2.69 1.11-4 1.77-2.7 1.37-4.06 2c-.53.21-1.1.37-2.07.76ZM145.39 59.64l-3.51 3.63a2.73 2.73 0 0 1-3.52.64c-3.29-1.65-6.59-3.27-9.86-4.95-1.61-.82-2.13-2.24-1.43-3.61s2.13-1.79 3.76-1c2.48 1.2 4.95 2.43 7.39 3.7a1.27 1.27 0 0 0 1.81-.28c.9-1 1.9-1.92 2.85-2.89a2.69 2.69 0 0 1 3.39-.61c3.34 1.67 6.68 3.32 10 5a2.54 2.54 0 0 1 1.39 3.5A2.57 2.57 0 0 1 154 63.9c-2.86-1.36-5.65-2.79-8.61-4.26ZM59.21 30.53h5a2.59 2.59 0 1 1 0 5.16H54.14a2.58 2.58 0 1 1 0-5.16c1.71-.04 3.39 0 5.07 0ZM59.27 40.92h4.87a2.6 2.6 0 1 1 0 5.17q-5 .06-9.9 0a2.6 2.6 0 1 1-.05-5.17c1.72-.03 3.4 0 5.08 0Z"/></g></svg>