<svg id="Capa_1" data-name="Capa 1" xmlns="http://www.w3.org/2000/svg" viewBox="0 0 104.35 104.35"><defs><style>.cls-2{stroke:#fff;stroke-miterlimit:10;fill:#fff;stroke-width:.61px;fill-rule:evenodd}</style></defs><circle cx="52.17" cy="52.17" r="50" style="stroke:#fff;stroke-miterlimit:10;fill:#1b56c9;stroke-width:4.35px"/><g id="Layer_1"><g id="_243642856" data-name="243642856"><path id="_243643432" data-name="243643432" class="cls-2" d="M84.06 94.83H80a.77.77 0 0 1-.7-.47l-1.43-3.3a.76.76 0 1 1 1.4-.6l1.23 2.84h3l1.23-2.84a.79.79 0 0 1 1-.4.77.77 0 0 1 .39 1l-1.43 3.3a.72.72 0 0 1-.69.47Z" transform="translate(-38.83 -28.33)"/><path id="_243643408" data-name="243643408" class="cls-2" d="M78.28 108.65h-.1a.76.76 0 0 1-.65-.87L79.28 94a.77.77 0 0 1 1.53.19L79.06 108a.8.8 0 0 1-.78.67Zm7.54 0a.78.78 0 0 1-.77-.67L83.3 94.16a.77.77 0 0 1 1.53-.16l1.75 13.81a.79.79 0 0 1-.67.87Z" transform="translate(-38.83 -28.33)"/><path id="_243643384" data-name="243643384" class="cls-2" d="M123.52 105.3h-27a3.77 3.77 0 0 1 0-7.53h27a.78.78 0 0 1 .77.77.76.76 0 0 1-.77.76h-27a2.24 2.24 0 0 0 0 4.47h27a.76.76 0 0 1 .77.76.79.79 0 0 1-.78.77Z" transform="translate(-38.83 -28.33)"/><path id="_243643840" data-name="243643840" class="cls-2" d="M75.47 82.58a.75.75 0 0 1-.76-.76v-5.15a.75.75 0 0 1 .76-.76.76.76 0 0 1 .77.76v5.15a.77.77 0 0 1-.77.76Zm13.15 0a.75.75 0 0 1-.76-.76v-5.15a.77.77 0 0 1 1.53 0v5.15a.77.77 0 0 1-.77.76Z" transform="translate(-38.83 -28.33)"/><path id="_243643480" data-name="243643480" class="cls-2" d="M72.19 60.28v8a9.85 9.85 0 0 0 19.7 0v-8.04c-1.86-1.34-6.25-4-8.34-3.19a7.69 7.69 0 0 1-6.24-.75 24.64 24.64 0 0 1-5.12 4Zm9.87 19.45a11.39 11.39 0 0 1-11.39-11.38v-8.48a.78.78 0 0 1 .37-.65C73 58 76 55.9 76.38 55a.81.81 0 0 1 .5-.44.75.75 0 0 1 .65.11s2.84 2 5.51 1c3.4-1.26 9.42 3.12 10.09 3.62a.72.72 0 0 1 .31.6v8.48a11.42 11.42 0 0 1-11.38 11.4Z" transform="translate(-38.83 -28.33)"/><path id="_243642928" data-name="243642928" class="cls-2" d="M107.29 96a.8.8 0 0 1-.77-.67c-.65-5.1-5.08-9-11.27-9.88l-1.45-.25a.78.78 0 0 1-.65-.86.79.79 0 0 1 .88-.66l1.45.21a16.63 16.63 0 0 1 8.32 3.6 11.89 11.89 0 0 1 4.2 7.61.78.78 0 0 1-.66.86s-.06 0-.09 0Zm-10.73 12.65H56.71a.76.76 0 0 1-.76-.77V96.66A11.58 11.58 0 0 1 59.74 88a16.51 16.51 0 0 1 8.88-4.1l1.47-.21a.77.77 0 0 1 .2 1.52l-1.45.21c-5.66.82-11.36 4.63-11.36 11.25v10.46h39.08a.77.77 0 0 1 .77.76.78.78 0 0 1-.77.77Z" transform="translate(-38.83 -28.33)"/><path id="_243642952" data-name="243642952" class="cls-2" d="M96 64.76a.75.75 0 0 1-.76-.76v-2.82a13.23 13.23 0 1 0-26.46 0V64a.77.77 0 0 1-1.53 0v-2.82a14.76 14.76 0 1 1 29.52 0V64a.76.76 0 0 1-.77.76Z" transform="translate(-38.83 -28.33)"/><path id="_243642616" data-name="243642616" class="cls-2" d="M71.54 70.66H69.8a3.3 3.3 0 0 1-3.3-3.3v-1.53a3.3 3.3 0 0 1 3.3-3.3h1.62a.77.77 0 1 1 0 1.53H69.8a1.78 1.78 0 0 0-1.8 1.77v1.53a1.78 1.78 0 0 0 1.77 1.77h1.74a.76.76 0 0 1 .76.77.75.75 0 0 1-.76.76Z" transform="translate(-38.83 -28.33)"/><path id="_243642880" data-name="243642880" class="cls-2" d="M94.3 70.66h-1.76a.76.76 0 0 1-.76-.76.77.77 0 0 1 .76-.77h1.76a1.78 1.78 0 0 0 1.77-1.77v-1.53a1.78 1.78 0 0 0-1.77-1.77h-1.63a.76.76 0 0 1-.76-.76.77.77 0 0 1 .76-.77h1.63a3.31 3.31 0 0 1 3.3 3.3v1.53a3.3 3.3 0 0 1-3.3 3.3Z" transform="translate(-38.83 -28.33)"/><path id="_243643216" data-name="243643216" class="cls-2" d="m71.46 84.66 5.86 6.2 3.57-3-5.54-5.07Zm5.8 8a.74.74 0 0 1-.56-.24l-7.08-7.49a.71.71 0 0 1-.19-.65.78.78 0 0 1 .42-.56l5.29-2.6a.73.73 0 0 1 .84.13l6.57 6a.71.71 0 0 1 .24.57.76.76 0 0 1-.27.58l-4.8 4.08a.67.67 0 0 1-.46.17Z" transform="translate(-38.83 -28.33)"/><path id="_243643312" data-name="243643312" class="cls-2" d="m83.2 87.81 3.59 3 5.87-6.2-3.89-1.92-5.57 5.12Zm3.64 4.86a.84.84 0 0 1-.5-.17l-4.79-4.08a.81.81 0 0 1-.28-.58.75.75 0 0 1 .24-.57l6.57-6a.8.8 0 0 1 .85-.13l5.29 2.6a.79.79 0 0 1 .41.56.73.73 0 0 1-.19.65l-7.08 7.49a.63.63 0 0 1-.52.24Z" transform="translate(-38.83 -28.33)"/><path id="_243642760" data-name="243642760" class="cls-2" d="M66.79 108.65a.76.76 0 0 1-.77-.77V99.7a.76.76 0 0 1 .77-.76.75.75 0 0 1 .76.76v8.18a.78.78 0 0 1-.76.77Z" transform="translate(-38.83 -28.33)"/><path id="_243643288" data-name="243643288" class="cls-2" d="M96.56 96a5.58 5.58 0 0 0 0 11.16h27.31a10.38 10.38 0 0 1 0-11.16Zm28.71 12.69H96.56a7.11 7.11 0 1 1 0-14.22h28.72a.79.79 0 0 1 .69.41.77.77 0 0 1-.06.8c-2.83 4-2.83 7.83 0 11.81a.79.79 0 0 1 .06.8.82.82 0 0 1-.7.36Z" transform="translate(-38.83 -28.33)"/></g></g></svg>