<svg version="1.1" id="Capa_1" xmlns="http://www.w3.org/2000/svg" x="0" y="0" viewBox="0 0 60 60" style="enable-background:new 0 0 60 60" xml:space="preserve"><style>.st0{fill:#1d57c5}.st1{fill:#0ca3b3}.st2{fill:#fff}</style><path class="st0" d="M1.11 54.06a3.75 3.75 0 0 0 2.63 1.09h52.52c.98 0 1.94-.4 2.63-1.09a3.75 3.75 0 0 0 1.09-2.63V20.68H.02v30.75c0 .98.4 1.94 1.09 2.63zm46.8-30.89h8.58v7.64h-8.58v-7.64zm0 9.75h8.58v7.63h-8.58v-7.63zm-11.1-9.75h8.58v7.64h-8.58v-7.64zm0 9.75h8.58v7.63h-8.58v-7.63zm0 9.75h8.58v7.63h-8.58v-7.63zm-11.1-19.5h8.58v7.64h-8.58v-7.64zm0 9.75h8.58v7.63h-8.58v-7.63zm0 9.75h8.58v7.63h-8.58v-7.63zm-11.1-19.5h8.58v7.64h-8.58v-7.64zm0 9.75h8.58v7.63h-8.58v-7.63zm0 9.75h8.58v7.63h-8.58v-7.63zm-11.1-9.75h8.58v7.63H3.51v-7.63zm0 9.75h8.58v7.63H3.51v-7.63zM.02 17.13h59.96v2.2H.02zM6.19 6.55H3.74c-.98 0-1.94.4-2.63 1.09a3.75 3.75 0 0 0-1.09 2.63v4.32h59.96v-4.32c0-.98-.4-1.94-1.09-2.63a3.75 3.75 0 0 0-2.63-1.09h-6.31v4.87c0 .91-.74 1.64-1.65 1.64h-3.47c-.91 0-1.64-.74-1.64-1.64V6.55H16.81v4.87c0 .91-.74 1.64-1.64 1.64H11.7c-.91 0-1.64-.74-1.64-1.64V6.55H6.19z"/><path class="st1" d="M.02 14.59h59.96v2.55H.02zM11.69 11.42h3.47V2.27h-3.47v4.28zM44.84 11.42h3.47V2.27h-3.47v4.28z"/><path class="st2" d="M14.61 23.17h8.58v7.64h-8.58zM25.71 23.17h8.58v7.64h-8.58zM36.81 23.17h8.58v7.64h-8.58zM47.91 23.17h8.58v7.64h-8.58zM3.51 32.92h8.58v7.63H3.51zM14.61 32.92h8.58v7.63h-8.58zM25.71 32.92h8.58v7.63h-8.58zM36.81 32.92h8.58v7.63h-8.58zM47.91 32.92h8.58v7.63h-8.58zM3.51 42.67h8.58v7.63H3.51zM14.61 42.67h8.58v7.63h-8.58zM25.71 42.67h8.58v7.63h-8.58zM36.81 42.67h8.58v7.63h-8.58z"/></svg>