<svg xmlns="http://www.w3.org/2000/svg" viewBox="0 0 60 60"><path d="M1.11 54.06a3.75 3.75 0 002.63 1.09h52.52c.98 0 1.94-.4 2.63-1.09a3.75 3.75 0 001.09-2.63V20.68H.02v30.75c0 .98.4 1.94 1.09 2.63zm46.8-30.89h8.58v7.64h-8.58v-7.64zm0 9.75h8.58v7.63h-8.58v-7.63zm-11.1-9.75h8.58v7.64h-8.58v-7.64zm0 9.75h8.58v7.63h-8.58v-7.63zm0 9.75h8.58v7.63h-8.58v-7.63zm-11.1-19.5h8.58v7.64h-8.58v-7.64zm0 9.75h8.58v7.63h-8.58v-7.63zm0 9.75h8.58v7.63h-8.58v-7.63zm-11.1-19.5h8.58v7.64h-8.58v-7.64zm0 9.75h8.58v7.63h-8.58v-7.63zm0 9.75h8.58v7.63h-8.58v-7.63zm-11.1-9.75h8.58v7.63H3.51v-7.63zm0 9.75h8.58v7.63H3.51v-7.63zM.02 17.13h59.96v2.2H.02zM6.19 6.55H3.74c-.98 0-1.94.4-2.63 1.09a3.75 3.75 0 00-1.09 2.63v4.32h59.96v-4.32c0-.98-.4-1.94-1.09-2.63a3.75 3.75 0 00-2.63-1.09h-6.31v4.87c0 .91-.74 1.64-1.65 1.64h-3.47c-.91 0-1.64-.74-1.64-1.64V6.55H16.81v4.87c0 .91-.74 1.64-1.64 1.64H11.7c-.91 0-1.64-.74-1.64-1.64V6.55H6.19z" fill="#1d57c5"/><path d="M.02 14.59h59.96v2.55H.02zm11.67-3.17h3.47V2.27h-3.47v4.28zm33.15 0h3.47V2.27h-3.47v4.28z" fill="#0ca3b3"/><path d="M14.61 23.17h8.58v7.64h-8.58zm11.1 0h8.58v7.64h-8.58zm11.1 0h8.58v7.64h-8.58zm11.1 0h8.58v7.64h-8.58zm-44.4 9.75h8.58v7.63H3.51zm11.1 0h8.58v7.63h-8.58zm11.1 0h8.58v7.63h-8.58zm11.1 0h8.58v7.63h-8.58zm11.1 0h8.58v7.63h-8.58zm-44.4 9.75h8.58v7.63H3.51zm11.1 0h8.58v7.63h-8.58zm11.1 0h8.58v7.63h-8.58zm11.1 0h8.58v7.63h-8.58z" fill="#fff"/></svg>