<svg version="1.1" id="Capa_1" xmlns="http://www.w3.org/2000/svg" x="0" y="0" viewBox="0 0 60 60" xml:space="preserve"><style>.st1{fill:#fff}.st2{fill:#0ca3b3}</style><path fill="#1d57c5" d="M0 10.92h60V50.7H0z"/><path class="st1" d="M2.46 44.28V17.34c2.18 0 3.95-1.77 3.95-3.95h47.16c0 2.18 1.77 3.95 3.95 3.95v26.94c-2.18 0-3.95 1.77-3.95 3.95H6.42c0-2.18-1.77-3.95-3.96-3.95z"/><path class="st2" d="M14.12 17.86h31.77v1.02H14.12zm-6.09 5.5h43.95v1.02H8.03zm0 3.97h43.95v1.02H8.03zm0 3.66h43.95v1.02H8.03zm1.81 7.98H21.3v1.02H9.84zm37.79 5.83c-.62 2.11-2.31 3.16-3.84 2.41L46 54.17l1.25-3.34 2.6.93-2.22-6.96z"/><path class="st2" d="M41.75 47.16c-.79-.43-1.38-1.26-1.7-2.27l-1.91 7.01 2.56-1.12 1.37 3.24 1.87-6.85c-.69.36-1.46.39-2.19-.01z"/><path class="st2" d="M44.24 48.66c1.5-.04 2.96-.54 4.16-1.41l-.78-2.45c-.62 2.11-2.31 3.16-3.84 2.41l.46 1.45z"/><path class="st2" d="M41.75 47.16c-.79-.43-1.38-1.26-1.7-2.27l-.71 2.61a7.328 7.328 0 004.19 1.15l.4-1.49c-.68.37-1.45.4-2.18 0z"/><circle transform="rotate(-75.149 43.68 41.323)" cx="43.68" cy="41.32" fill="#fec906" r="6.42"/><path d="M49.02 42.77c-.12.06-.22.13-.29.21.06-.22.12-.46.15-.71.27.03.46-.03.69-.22.19-.16.28-.3.34-.55-.29-.03-.48.03-.71.22-.14.12-.23.22-.29.37.03-.24.04-.49.05-.75v-.07c.28-.03.46-.13.64-.37.16-.2.22-.36.23-.62a.89.89 0 00-.65.37c-.12.15-.19.28-.22.45-.01-.29-.04-.57-.09-.84.25-.09.41-.23.54-.49a1 1 0 00.1-.66c-.27.1-.43.24-.57.51-.08.15-.11.27-.12.41-.06-.26-.14-.5-.23-.73.22-.14.34-.31.41-.59.07-.25.06-.42-.03-.66-.25.16-.37.33-.46.62-.04.14-.06.25-.05.37-.1-.22-.23-.42-.36-.61.18-.19.26-.38.28-.66a.944.944 0 00-.15-.64c-.21.21-.3.4-.33.71-.01.14 0 .25.02.37-.14-.18-.3-.35-.48-.51.15-.23.19-.43.15-.72a.914.914 0 00-.28-.6c-.17.25-.22.46-.18.77.02.15.05.27.11.38-.18-.15-.38-.28-.58-.4.11-.26.11-.48.02-.76a.916.916 0 00-.38-.52c-.11.28-.12.5-.03.79.05.16.11.28.21.38-.22-.11-.44-.21-.68-.29a.95.95 0 00-.13-.75c-.13-.22-.25-.33-.48-.42-.06.3-.02.52.13.78.09.15.17.25.29.33l-.23-.06-.19.04c.12.03.24.06.36.1-.19.04-.34.13-.49.3-.17.19-.24.34-.27.6.29-.01.47-.1.68-.32.15-.16.23-.3.27-.51.21.08.42.17.62.28-.17.01-.31.06-.48.18-.2.14-.3.28-.38.53.28.05.48.01.72-.16.17-.12.27-.24.35-.42.19.12.37.24.54.38-.16-.02-.3 0-.48.08-.22.1-.35.21-.47.43.27.11.47.11.74 0 .19-.08.31-.17.42-.33.16.15.32.32.46.49a.803.803 0 00-.49-.03c-.24.04-.38.13-.55.32.24.17.44.22.72.17.2-.04.34-.1.48-.23.13.19.25.38.36.59a.793.793 0 00-.47-.14c-.24-.01-.4.04-.6.19.2.22.39.31.68.32.21.01.35-.02.51-.12.09.21.17.43.23.65a.865.865 0 00-.43-.24.835.835 0 00-.62.05c.16.26.32.39.6.47.2.06.34.06.52 0 .05.22.08.44.09.67-.09-.13-.2-.23-.36-.32-.22-.11-.38-.14-.62-.09.1.29.24.45.49.59.18.1.32.13.5.12v.11c0 .2-.01.38-.03.56a.915.915 0 00-.3-.39c-.19-.16-.34-.22-.58-.22.04.31.14.49.37.69.16.14.29.2.47.23-.04.26-.09.5-.16.73a.991.991 0 00-.22-.53.84.84 0 00-.53-.35c-.02.31.05.52.23.75.14.18.26.27.45.34-.09.27-.21.51-.34.74.04-.22 0-.41-.11-.64a.88.88 0 00-.45-.46c-.08.3-.06.51.08.79.1.21.21.33.39.44-.14.22-.3.42-.48.6a.91.91 0 000-.61.975.975 0 00-.35-.55c-.13.27-.15.49-.08.79.06.22.13.36.28.5-.16.15-.33.28-.52.4a1 1 0 00.07-.5.996.996 0 00-.24-.62c-.18.24-.25.45-.23.75.01.21.05.35.14.51-.21.12-.43.22-.66.3.1-.13.15-.28.18-.48.03-.26.01-.43-.11-.65-.23.19-.33.38-.37.69-.03.21-.02.36.05.54-.29.09-.59.16-.9.21.23-.12.36-.28.46-.55.09-.24.1-.42.03-.66-.26.13-.4.29-.51.58-.09.24-.1.4-.05.65-.01 0-.03 0-.04.01h-.01c-.17.02-.34.04-.51.05-.19.01-.36.07-.52.14-.16-.08-.33-.13-.52-.14a8.01 8.01 0 01-.51-.05h-.01c-.01 0-.03 0-.04-.01.05-.24.04-.41-.05-.65-.11-.29-.24-.45-.51-.58-.07.25-.06.42.03.66.1.27.23.43.46.55-.31-.05-.61-.12-.9-.21.06-.17.08-.33.05-.54-.04-.31-.15-.49-.37-.69a.93.93 0 00-.11.65c.03.2.08.35.18.48a6.62 6.62 0 01-.66-.3c.09-.15.13-.3.14-.51a.996.996 0 00-.23-.75c-.16.2-.22.36-.24.62-.01.19.01.35.07.5-.18-.12-.35-.25-.52-.4.15-.14.22-.28.28-.5.08-.3.05-.51-.08-.79-.19.16-.28.3-.35.55-.06.23-.06.41.01.61a3.51 3.51 0 01-.48-.6c.19-.11.29-.23.39-.44.13-.28.15-.49.08-.79a.88.88 0 00-.45.46c-.11.22-.14.41-.11.64-.13-.23-.25-.47-.34-.74.19-.07.32-.16.45-.34.18-.24.25-.45.23-.75-.24.06-.37.15-.53.35-.14.18-.21.34-.22.53-.07-.23-.12-.47-.16-.73.18-.03.31-.09.47-.23.23-.19.33-.38.37-.69-.24.01-.39.06-.58.22-.14.12-.24.24-.3.39-.02-.18-.03-.37-.03-.56v-.11c.18.01.32-.02.5-.12.26-.14.39-.3.49-.59a.797.797 0 00-.62.09c-.16.09-.28.18-.36.32.02-.23.05-.45.09-.67.18.06.32.05.52 0 .28-.08.44-.21.6-.47a.83.83 0 00-.62-.05c-.18.05-.32.12-.43.24.06-.23.14-.44.23-.65.16.1.31.13.51.12.29-.01.47-.1.68-.32a.82.82 0 00-.6-.19.87.87 0 00-.47.14c.11-.21.22-.4.36-.59.14.13.27.19.48.23.28.05.48 0 .72-.17a.893.893 0 00-.55-.32c-.19-.03-.34-.03-.49.03.14-.17.29-.34.46-.49.11.16.23.25.42.33.27.11.47.11.74 0a.934.934 0 00-.47-.43.921.921 0 00-.48-.08c.17-.14.35-.27.54-.38.08.18.18.3.35.42.24.17.44.21.72.16a.939.939 0 00-.38-.53.776.776 0 00-.48-.18c.2-.11.4-.2.62-.28.04.21.12.35.27.51.2.22.39.31.68.32a.952.952 0 00-.27-.6.858.858 0 00-.49-.3c.12-.04.24-.07.36-.1l-.19-.04c-.08.02-.16.04-.23.06.12-.08.2-.18.29-.33.15-.26.18-.48.13-.78-.23.09-.35.2-.48.42-.15.25-.18.47-.13.75-.24.08-.46.18-.68.29.09-.1.16-.22.21-.38.1-.29.09-.51-.03-.79-.2.14-.3.28-.38.52-.09.28-.09.49.02.76-.21.12-.4.25-.58.4.06-.11.09-.23.11-.38a.996.996 0 00-.18-.77c-.17.18-.24.34-.28.6-.04.29.01.49.15.72-.17.16-.33.32-.48.51.03-.11.03-.22.02-.37a.956.956 0 00-.33-.71.97.97 0 00-.15.64c.02.29.1.48.28.66-.14.19-.26.4-.36.61a.997.997 0 00-.05-.37c-.08-.3-.21-.47-.46-.62-.09.24-.09.42-.03.66.08.28.19.45.41.59-.1.23-.17.48-.23.73-.01-.14-.05-.26-.12-.41-.14-.27-.29-.41-.57-.51a1 1 0 00.1.66c.13.26.28.4.54.49-.05.27-.08.55-.09.84-.03-.17-.1-.3-.22-.45-.19-.23-.37-.34-.65-.37.01.26.07.42.23.62.18.23.36.34.64.37v.07c0 .26.02.51.05.75-.06-.15-.15-.25-.29-.37-.23-.19-.42-.25-.71-.22.06.25.15.39.34.55.22.18.42.25.69.22.04.25.09.48.15.71a.903.903 0 00-.29-.21c-.26-.13-.46-.15-.74-.05.11.23.23.35.44.46.24.12.43.15.67.07.08.21.16.41.26.6a.95.95 0 00-.27-.1.86.86 0 00-.73.11c.15.2.29.29.52.36.25.07.44.05.65-.07.12.18.25.35.39.51a1.73 1.73 0 00-.27-.04c-.29-.01-.48.07-.7.27.19.16.34.22.58.23.26.01.44-.05.62-.21.16.16.34.3.53.42a.89.89 0 00-.32.02c-.28.06-.46.17-.63.42.22.12.38.14.61.1.26-.05.43-.16.59-.37.19.11.4.21.61.3-.08.01-.15.04-.24.08-.27.12-.41.27-.53.55.23.07.4.06.62-.04.24-.1.38-.24.49-.46.17.06.35.11.53.15-.02.02-.05.03-.07.05-.23.18-.34.36-.4.67.24.01.4-.04.59-.19.17-.13.28-.26.34-.44.19.03.38.05.57.06.09.01.18.02.26.05-.37.25-.7.59-1.05.81l.28.13c.39-.25.67-.61 1.04-.82.37.21.65.58 1.04.83l.28-.13c-.35-.23-.68-.57-1.06-.82.08-.02.17-.04.26-.05.19-.01.38-.04.57-.06.06.18.17.31.34.44.2.15.35.2.59.19-.06-.3-.17-.49-.4-.67a.304.304 0 00-.07-.05c.18-.04.36-.09.53-.15.11.22.25.36.49.46.22.1.39.11.62.04a.957.957 0 00-.53-.55 1.35 1.35 0 00-.24-.08c.21-.09.41-.19.61-.3.15.22.32.32.59.37.24.05.4.02.61-.1a.893.893 0 00-.63-.42c-.12-.02-.22-.03-.32-.02.19-.13.36-.27.53-.42.18.16.37.22.62.21.24-.01.39-.07.58-.23-.22-.2-.41-.28-.7-.27-.1 0-.19.01-.27.04.14-.16.27-.33.39-.51.21.11.4.13.65.07.24-.06.37-.15.52-.36a.86.86 0 00-.73-.11c-.1.03-.19.06-.27.1.1-.19.19-.39.26-.6.24.07.43.05.67-.07.22-.11.33-.23.44-.46-.16-.09-.36-.08-.62.05z" fill="#ffe15c"/><path class="st1" d="M45.22 35.6l.06.94.91-.23-.87.35.5.8-.6-.72-.61.72.5-.8-.87-.35.91.23z"/></svg>