<svg version="1.1" id="Capa_1" xmlns="http://www.w3.org/2000/svg" x="0" y="0" viewBox="0 0 60 60" xml:space="preserve"><style>.st0{fill:#1d57c5}.st1{fill:#fff}</style><path class="st0" d="M38.8 57.73H21.2l3.65-14.59h10.3z"/><path class="st0" d="M56.8 45.25H3.2c-1.83 0-3.32-1.49-3.32-3.33V3.33C-.12 1.49 1.37 0 3.2 0h53.6c1.83 0 3.32 1.49 3.32 3.33v38.59c0 1.84-1.49 3.33-3.32 3.33z"/><path class="st1" d="M5.3 4.35h49.39v34.31H5.3z"/><path class="st0" d="M41.77 59.96L18.23 60c-1.47 0-2.66-1.19-2.66-2.66v-.05c0-1.47 1.19-2.67 2.66-2.67l23.54-.04c1.47 0 2.66 1.19 2.66 2.67v.05c0 1.47-1.19 2.66-2.66 2.66z"/><path class="st1" d="M29.53 27.64l-12.93-4.7V7.02l12.93 8.03zm.88.13l13.09-4.76V6.89l-13.09 8.09z"/><path d="M29.47 30.17l-14.26-5.19V7.41l14.26 8.17zm.98.14l14.44-5.25V7.27L30.45 15.5z" fill="#e3e5e5"/><path class="st1" d="M29.42 32.96L13.8 27.29V8.05l15.62 7.27z"/><path class="st0" d="M30 36.22l-17.31-6.1V9.45L30 15.55z"/><path class="st1" d="M30.49 33.12l15.8-5.75V7.9l-15.8 7.33z"/><path class="st0" d="M30 36.22l17.31-6.1V9.45L30 15.55z"/><path class="st1" d="M34.99 21.75l9.41-3.01v-3.35l-9.41 3z"/><path d="M31.8 35.3c0 .99-.77 1.15-1.72 1.15s-1.72-.16-1.72-1.15V15.9c0-.99.77-1.15 1.72-1.15s1.72.16 1.72 1.15v19.4z" fill="#194ea3"/></svg>