<svg xmlns="http://www.w3.org/2000/svg" viewBox="0 0 60 60" style="enable-background:new 0 0 60 60" xml:space="preserve"><path style="fill:#0ca3b3" d="m60 30-3.96 5.18 1.68 6.3-5.64 3.27-.87 6.46-6.46.87-3.27 5.64-6.3-1.68L30 60l-5.18-3.96-6.3 1.68-3.27-5.64-6.46-.87-.87-6.46-5.64-3.27 1.68-6.3L0 30l3.96-5.18-1.68-6.3 5.64-3.27.87-6.46 6.46-.87 3.27-5.64 6.3 1.68L30 0l5.18 3.96 6.3-1.68 3.27 5.64 6.46.87.87 6.46 5.64 3.27-1.68 6.3z"/><path d="M17.84 28.68c-.99-1.11-1.48-2.63-1.48-4.55v-.02c0-1.91.49-3.42 1.48-4.54.99-1.11 2.34-1.67 4.05-1.67s3.06.56 4.03 1.67c.98 1.11 1.47 2.63 1.47 4.54v.02c0 1.92-.49 3.44-1.47 4.55-.98 1.11-2.32 1.67-4.03 1.67-1.71 0-3.06-.55-4.05-1.67zm5.57-1.96c.35-.6.53-1.46.53-2.58v-.02c0-1.13-.18-1.99-.53-2.58-.35-.59-.86-.89-1.51-.89-.67 0-1.18.3-1.54.89-.36.6-.54 1.46-.54 2.59v.02c0 1.12.18 1.98.53 2.58.36.6.87.9 1.54.9.66-.01 1.17-.31 1.52-.91zm-2.74 15.16 15.01-23.75h3.65l-15 23.75h-3.66zm13.43-1.47c-.98-1.12-1.47-2.63-1.47-4.54v-.02c0-1.92.49-3.43 1.47-4.54.98-1.11 2.33-1.66 4.04-1.66s3.06.55 4.03 1.66c.98 1.11 1.47 2.62 1.47 4.54v.02c0 1.91-.49 3.42-1.47 4.54s-2.32 1.68-4.03 1.68c-1.71 0-3.06-.56-4.04-1.68zm5.55-1.95c.35-.6.53-1.46.53-2.59v-.02c0-1.12-.18-1.98-.53-2.57-.35-.59-.86-.89-1.51-.89-.67 0-1.18.3-1.54.89-.36.59-.53 1.45-.53 2.57v.02c0 1.13.18 1.99.53 2.59.36.6.87.9 1.54.9.66 0 1.16-.3 1.51-.9z" style="fill:#fff"/></svg>