<svg version="1.1" id="Capa_1" xmlns="http://www.w3.org/2000/svg" xmlns:xlink="http://www.w3.org/1999/xlink" x="0" y="0" viewBox="0 0 52.57 60" style="enable-background:new 0 0 52.57 60" xml:space="preserve"><style>.st3{fill:#020202}.st4{fill:#22b7ce}.st5{fill:#e6c3ad}.st6{fill:#1d1d1b}.st7{fill:#f2c7aa}.st8{fill:#111}.st10{fill:#fff}.st11{fill:#1d1411}.st14{fill:#c4997f}.st19{fill:#c99e81}.st21{fill:#c6a08b}</style><defs><path id="SVGID_1_" d="m68.23 60.06-64.34-.04-2.27-9.27c0-.01 0-.02-.01-.03l-2.87-13.06L4.76-2.3v-22.81h63.47v85.17z"/></defs><clipPath id="SVGID_00000059268394072287559910000003557348600649347504_"><use xlink:href="#SVGID_1_" style="overflow:visible"/></clipPath><g style="clip-path:url(#SVGID_00000059268394072287559910000003557348600649347504_)"><defs><path id="SVGID_00000099662512384132070720000003786704778751544498_" d="m64.73 63.74-69.49.31L-18.52.65l68.18-11.22z"/></defs><clipPath id="SVGID_00000012433103678100009110000006540348042367672207_"><use xlink:href="#SVGID_00000099662512384132070720000003786704778751544498_" style="overflow:visible"/></clipPath><g style="clip-path:url(#SVGID_00000012433103678100009110000006540348042367672207_)"><defs><path id="SVGID_00000155868253879729924320000008391239114527455155_" d="M-2.54 41.7h58.09v39.67H-2.54z"/></defs><clipPath id="SVGID_00000143598568861778451940000014941266560795007642_"><use xlink:href="#SVGID_00000155868253879729924320000008391239114527455155_" style="overflow:visible"/></clipPath><path class="st3" d="m41.44 62.94.07.38.14-.03c.02-.13.03-.27.05-.4l-.26.05zM49.45 61.54c-.04.08-.07.19-.09.32l.41-.08.03-.09-.35-.15z" style="clip-path:url(#SVGID_00000143598568861778451940000014941266560795007642_)"/><path class="st4" d="m2.56 61.59.15.03a.689.689 0 0 0-.03-.08l-.12.05z" style="clip-path:url(#SVGID_00000143598568861778451940000014941266560795007642_)"/><path class="st3" d="m2.71 61.62-.15-.03-.23.1c.03.06.05.15.07.26.13.03.26.05.4.08-.03-.16-.06-.3-.09-.41z" style="clip-path:url(#SVGID_00000143598568861778451940000014941266560795007642_)"/><path class="st5" d="M37.27 64.49c.42-.82.85-2.06 1.26-2.88 0-.01 0-.01.01-.02.38-.92.96-1.76 1.72-2.45l2.71-2.51c.51-.56 1.18-.98 1.94-1.19l.7-.19c1.3-.36 2.62.42 2.82 1.65l.09.59c.16 1.02-.15 2.07-.84 2.89l-3.7 4.79c-2.22-.25-4.49-.44-6.71-.68z" style="clip-path:url(#SVGID_00000143598568861778451940000014941266560795007642_)"/><path class="st3" d="m44.07 65.37-.11-.01c-1.11-.12-2.25-.23-3.35-.34-1.1-.11-2.25-.22-3.36-.34l-.28-.03.13-.26c.2-.4.42-.92.63-1.43.21-.51.43-1.04.64-1.46.4-.96 1-1.81 1.76-2.52l2.71-2.51c.54-.59 1.24-1.02 2.03-1.24l.7-.19c.71-.2 1.46-.09 2.06.3.55.35.9.89 1 1.51l.09.59c.17 1.07-.16 2.19-.89 3.05l-3.76 4.88zm-6.5-1.05c1.02.11 2.06.21 3.07.31 1.07.1 2.17.21 3.25.33l3.63-4.7c.66-.78.95-1.78.8-2.74l-.09-.59c-.08-.51-.37-.95-.82-1.24-.51-.33-1.14-.42-1.74-.25l-.7.19c-.72.2-1.36.59-1.84 1.13l-.01.01-2.71 2.51a6.72 6.72 0 0 0-1.67 2.38l-.01.02c-.21.42-.42.94-.63 1.44-.18.41-.36.84-.53 1.2z" style="clip-path:url(#SVGID_00000143598568861778451940000014941266560795007642_)"/><g style="clip-path:url(#SVGID_00000143598568861778451940000014941266560795007642_)"><path class="st6" d="M46.34 59.5c-.03 0-.07-.01-.1-.03-.1-.06-.14-.18-.08-.28 1.02-1.85 2.19-1.92 2.24-1.92.12-.01.21.08.22.2 0 .11-.08.21-.2.22-.02 0-1 .09-1.89 1.71-.05.07-.12.1-.19.1zM45.31 58.43c-.04 0-.08-.01-.12-.04a.2.2 0 0 1-.05-.29c.24-.35.61-.73 1.15-1.21.79-.68 1.9-.57 1.95-.56.11.01.2.12.18.23-.01.11-.11.2-.23.19-.01 0-.98-.1-1.63.46-.52.45-.86.8-1.08 1.12-.03.07-.1.1-.17.1zM45.01 57.09a.22.22 0 0 1-.15-.06c-.08-.08-.08-.21 0-.3.37-.37.56-.51.91-.76l.17-.12c.6-.44 1.8-.3 1.85-.3.11.01.2.12.18.23-.01.11-.12.2-.23.18-.3-.04-1.17-.07-1.55.22l-.17.12c-.34.24-.5.37-.86.72-.04.05-.1.07-.15.07z"/></g><g style="clip-path:url(#SVGID_00000143598568861778451940000014941266560795007642_)"><path d="m25.7 5.86.05-.05a.978.978 0 0 0-.17-.13l.12.18z"/><path class="st4" d="M39.88 44.96c-.16-.1-.26-.16-.32-.2-.31-.21-1.79-1.08-4.28-2.53-.25.48-1.02 1.84-2.28 3.45-1.43 1.84-3.81 4.4-7.01 6.11l-.09.05-.09-.04c-4.4-2.17-9.67-8.41-10.33-9.21-2.96 1.56-7.11 4.05-9.73 6.93-.05.05-4.93 5.62-6.63 11.36.49.1 1.83.39 3.45.71l.12-.05c.01.03.02.05.03.08 2.58.52 5.8 1.13 7.37 1.29-.69-2.94-.26-5.57.26-7.31.61-2.05 1.43-3.32 1.46-3.37l.32.21c-.01.01-.83 1.28-1.42 3.28-.54 1.84-.99 4.7-.05 7.86l.01.02v.02c.09 1.44-.06 3.76-.31 6.4l.02.01-.03.1c-.63 6.59-1.95 19.93-2.18 21.4h35.19c-.11-1.71-.89-18.62-1.84-22.58-.73-3.05-.3-5.7.05-7.83.15-.89.27-1.66.29-2.31.04-2.11-2.32-6.63-2.34-6.67l.34-.18c.1.19 2.42 4.65 2.39 6.86-.01.67-.14 1.45-.29 2.36-.09.54-.18 1.11-.26 1.71l10.9-2.03c-.6-5.55-5.11-11.19-12.72-15.9z"/><path class="st7" d="M25.89 51.41c3.09-1.67 5.4-4.16 6.8-5.95 1.25-1.61 2.01-2.97 2.25-3.42-1.41-.82-2.76-1.59-3.38-1.94l.26.99-.37.1-.93-3.48c-1.22 1.04-2.53 1.8-3.92 2.1-.34.07-.67.11-1.01.11-1.92 0-3.86-1.11-5.6-2.61l-.9 3.53-.09.04c-.03.01-1.35.58-3.2 1.54.85.98 5.87 6.86 10.09 8.99z"/><path class="st8" d="M16.46 33.5c-.26.34-.82 1.16-1.07 2.26-.44 1.92.21 3.76 1.93 5.47.74-.36 1.27-.59 1.47-.68l.89-3.47.13.03c-1.26-1.1-2.4-2.4-3.35-3.61zM33.55 40.79c.34-.38 1.47-1.77 1.38-3.38-.06-1.02-.59-1.95-1.59-2.78-.76 1.03-1.6 1.98-2.49 2.79l.57 2.15c.15.09 1.01.58 2.13 1.22z"/><path class="st3" d="m31.83 41.09-.26-.99c-.22-.13-.35-.2-.35-.2l.19-.33s.01.01.02.01l-.57-2.15c-.11.1-.21.19-.32.28l.93 3.48.36-.1zM30.82 37.32l-.37.1.08.29c.11-.09.21-.19.32-.28l-.03-.11z"/><path class="st3" d="m33.72 41.17-.27-.27.13.14-.13-.14.1-.1c-1.11-.64-1.97-1.14-2.12-1.22l.14.52c.62.35 1.97 1.13 3.38 1.94l.08-.16.34.17s-.03.07-.09.18c2.5 1.44 3.98 2.32 4.28 2.53.06.04.16.1.32.2C47.49 49.67 52 55.31 52.59 60.87l-10.9 2.03c-.02.13-.03.26-.05.4l7.71-1.44c.02-.13.05-.24.09-.32l.35.15-.03.09 3.24-.6-.01-.18c-.35-3.76-2.37-7.48-6.01-11.06-2.87-2.82-5.9-4.69-6.9-5.31-.15-.09-.26-.16-.31-.19-.33-.22-1.83-1.11-4.48-2.64-.48-.28-.96-.55-1.4-.81-.1.1-.16.17-.17.18zM31.21 39.89s.13.08.35.2l-.14-.52c-.01-.01-.02-.01-.02-.01l-.19.33zM10.08 62.91c-1.57-.16-4.79-.77-7.37-1.29.04.11.07.25.09.41 2.63.53 5.86 1.14 7.39 1.28-.04-.14-.08-.27-.11-.4zM2.56 61.59c-1.61-.32-2.95-.61-3.45-.71 1.7-5.75 6.58-11.31 6.63-11.36 2.63-2.88 6.77-5.37 9.73-6.93-.04-.05-.07-.08-.07-.08l.3-.24c0 .01.05.06.12.14 1.85-.96 3.16-1.52 3.2-1.54l.09-.04.9-3.53c-.07-.06-.14-.12-.21-.19l-.13-.03-.89 3.47c-.2.09-.72.32-1.47.68.02.02.04.04.06.07l-.27.27c-.06-.05-.11-.11-.16-.16-2.87 1.4-8.29 4.34-11.49 7.85-.05.06-5.1 5.81-6.77 11.71l-.06.2.2.04c.15.03 1.66.35 3.57.74-.02-.1-.04-.19-.07-.26l.24-.1z"/><path class="st3" d="M19.79 37.12c.07.06.14.12.21.19l.03-.12-.24-.07zM42.11 69.92c-.07-.39-.14-.74-.22-1.05-.49-2.05-.44-3.92-.25-5.57l-.14.03-.07-.38.26-.05c.08-.6.17-1.17.26-1.71.15-.91.28-1.69.29-2.36.04-2.21-2.29-6.67-2.39-6.86l-.34.18c.02.05 2.38 4.56 2.34 6.67-.01.64-.14 1.41-.29 2.31-.35 2.13-.79 4.78-.05 7.83.95 3.96 1.73 20.87 1.84 22.58H8.17c.23-1.47 1.54-14.82 2.18-21.4l-.55 1.62c-.74 6.88-2.03 19.82-2.04 19.94l-.04.22h2.48c.04-.16.07-.24.07-.25l.36.12s-.01.04-.04.13h31.16c-.01-.1-.02-.16-.02-.17l.38-.04c0 .05.01.12.02.21h1.63l-.01-.2c-.01-.11-.55-13.95-1.3-19.6l-.7-2.08.36-.12zM10.66 63.63v-.02l-.01-.02c-.94-3.16-.5-6.02.05-7.86.59-2 1.41-3.27 1.42-3.28l-.32-.21c-.03.05-.86 1.32-1.46 3.37-.51 1.74-.94 4.37-.26 7.31l.36.03-.03.38c-.07 0-.15-.01-.23-.02.03.12.06.25.1.37.08 1.43-.06 3.75-.31 6.38l.05-.14.34.11c.25-2.64.39-4.97.3-6.4z"/><path class="st3" d="m10.41 63.32.03-.38-.36-.03c.03.13.06.26.1.39.08.01.16.02.23.02zM25.8 51.79l.09.04.09-.05c3.2-1.71 5.58-4.26 7.01-6.11 1.25-1.61 2.02-2.98 2.28-3.45-.06-.03-.11-.07-.17-.1-.05-.03-.11-.06-.16-.09-.24.45-1 1.81-2.25 3.42-1.4 1.8-3.71 4.28-6.8 5.95-4.21-2.13-9.23-8.01-10.07-9-.11.06-.23.12-.35.18.66.8 5.94 7.04 10.33 9.21z"/><path class="st3" d="M35.27 42.23c.06-.11.09-.18.09-.18l-.34-.17-.08.16c.05.03.11.06.16.09.06.03.11.06.17.1zM15.7 42.26l-.3.24s.03.03.07.08c.12-.06.23-.12.35-.18-.07-.08-.11-.13-.12-.14z"/><path d="M10.35 70.03c0 .04-.01.07-.01.11l.03-.1-.02-.01z" style="fill:#db2f88"/><path class="st3" d="m10.35 70.03-.34-.11-.05.14c-.05.56-.11 1.13-.17 1.71l.55-1.62c.01-.05.01-.08.01-.12zM34.93 37.41c.09 1.61-1.04 3-1.38 3.38.11.06.22.13.34.2.43-.49 1.52-1.9 1.43-3.59-.06-1.14-.65-2.17-1.75-3.07-.07.1-.15.21-.23.31 1 .82 1.53 1.76 1.59 2.77zM33.19 34.51l.15.12c.08-.1.15-.21.23-.31-.05-.04-.09-.08-.14-.12l-.24.31z"/><path class="st3" d="m33.45 40.9.13.14-.13-.14.27.27c.01-.01.08-.08.17-.18-.12-.07-.23-.13-.34-.2-.06.07-.1.1-.1.11zM15.39 35.76c.25-1.1.81-1.92 1.07-2.26-.08-.1-.16-.21-.24-.31-.25.32-.9 1.21-1.2 2.47-.32 1.4-.24 3.53 1.93 5.75.13-.06.25-.12.36-.18-1.71-1.71-2.36-3.55-1.92-5.47zM16.6 33.32l-.14-.13.14.13-.14-.13-.14-.13c-.01.01-.04.05-.1.12.08.1.16.21.24.31.08-.1.14-.17.14-.17z"/><path class="st3" d="M17.38 41.3a.435.435 0 0 1-.06-.07c-.12.06-.24.11-.36.18l.16.16.26-.27zM30.56 38.08l-.36.1.08.29c.11-.09.21-.18.32-.28l-.04-.11zM19.67 37.88l.21.18.03-.12-.24-.06zM32.9 35.3l.15.12c.07-.1.15-.2.22-.3-.05-.04-.09-.08-.14-.11l-.23.29zM16.52 34.13l-.14-.13.14.13-.14-.13-.14-.13c-.01.01-.04.05-.1.12.08.1.16.2.24.31.08-.1.13-.17.14-.17z"/><path class="st5" d="M34.52 19.29c-.19 0-1.52-2.2-3.32-4.05-1.62-1.67-3.68-2.99-4.57-3.26-.56 1.11-1.84 3.13-4.53 5.63-.22.12-1.04.44-1.25.97-.07.21-1.99 1.72-2.43 2.04-1.64 1.06-3.02 1.68-4.12 2.03l-.39 4.54-.03.03c-.05.06-.14.12-.26.09-.21-.05-.38-.34-.53-.95l-.02-.09c-.2-.8-.57-2.29-1.18-2.48-.19-.06-.39.02-.63.24-1.27 1.17-1.76 3.06-1.28 4.95.01.02.83 2.83 2.74 3.35 1.33.36 2.12.26 2.49.16-.77-1.19-1.26-2.07-1.32-2.17l.26-.15c.04.08 4.34 7.62 7.74 9.54.04.02 3.19 1.91 5.53.75 2.34-1.16 6.72-5.46 7.82-7.68l.01-.02c2.07-2.96 2.8-6.51 3.05-8.38l-.08.05c-.04-.03-1.6-2.44-3.7-5.14zm-9.11 4.81c.22.37.18 1.17.14 1.93-.02.33-.03.64-.02.87.01.41.16.46.79.63.28.08.63.17 1.07.34.37.15.62.39.74.72.27.76-.26 1.72-.28 1.76l-.13-.07c.06.04.13.08.13.08-.59.85-1.49 1.45-2.45 1.8.9-.42 1.71-1.09 2.2-1.95.01-.02.49-.89.26-1.52-.09-.25-.28-.43-.57-.54-.42-.16-.76-.26-1.04-.33-.61-.17-.98-.27-1-.91-.01-.25.01-.57.02-.9.03-.65.72-1.41.54-1.71l-.4-.2zm-5.86 4.08c-.43 0-.89-.13-1.39-.44-1.48-.93-2.07-2.3-1.88-3.12l-1.44-1.38s-.21-.21.12-.36c.21-.01.69.41.69.41s.23.13.44-.16c.21-.28.94-1.21 3.26-1.16 2.32.05 3.29.89 3.83 1.65.28.39.02.47-.15.48.03.32.08 1.71-1.01 2.75-.7.67-1.51 1.33-2.47 1.33zm3.98 7.96c1.31 1.24 2.31.91 3.78-.07-1.15 1.39-2.86 1.67-3.78.07zm4.16-.64c-2.25.84-4.87.23-6.71-1.26.44.27.9.5 1.37.69l-.06-.06c1.06-1.01 2.18-1.51 3.33-1.47 1.75.05 2.26 1.21 2.31 1.26l.47.36c.68-.31.3.12-.71.48zm8.34-12.46-1.44 1.38c.19.82-.4 2.19-1.88 3.12-.5.32-.96.44-1.39.44-.97 0-1.77-.66-2.47-1.32-1.1-1.04-1.04-2.43-1.01-2.75-.17-.01-.43-.09-.15-.48.54-.76 1.5-1.6 3.83-1.65 2.32-.05 3.05.87 3.26 1.16.21.28.44.16.44.16s.48-.42.69-.41c.33.14.12.35.12.35z"/><path class="st8" d="M22.06 5.44c-4.71.91-10.46 4.6-12.46 12.22-1.96 7.47-.14 8.52.07 8.61.23-.94.7-1.79 1.4-2.43.32-.29.62-.39.92-.31.77.23 1.15 1.77 1.38 2.69l.02.09c.11.42.2.6.26.68l.39-4.33c-.97.28-1.73.37-2.22.37-.46 0-.64-.05-.67-.06l.01-.22c.02.01 2.54.6 7.12-2.37.36-.26.71-.53 1.05-.79.85-.55 1.62-.84 2.49-2.1 4.1-3.79 4.95-6.51 4.96-6.54l.28.08c-.01.04-.09.28-.27.68 2.04.66 4.58 3.22 6.77 5.86.88 1.09.56.96 1.38 1.72a82.16 82.16 0 0 1 3.43 4.8c.32-2.68.09-4.75-.32-5.44l.25-.15c.24.41.41 1.17.48 2.15l.02-.01c.08.12 1.52 2.3 2.08 4.55.39-2.58.66-6.3-.8-10.34-1.57-4.36-4.63-7.76-8.19-9.11-3.59-1.36-6.1.17-6.13.18l-.06-.05-.15.16c-.01-.01-1.11-1.01-3.49-.59z"/><path class="st10" d="M22.74 24.1c-.07-.15-.59-1.08-2.07-1.35-2.75-.54-3.98 1.7-4.1 1.93-.17.73.43 1.98 1.75 2.81 1.31.83 2.27.32 3.5-.85 1.04-.98.94-2.36.92-2.54zm-3.18 2.43s-1.56.06-1.68-1.58c-.08-1.1.67-1.61 1.17-1.83.27-.12.57-.15.86-.11.6.1 1.62.42 1.62 1.47.01 1.51-1.04 2.2-1.97 2.05z"/><path d="M36.38 31.15h.18c1.71-3.35 2.29-7.29 2.22-9.95-.15-.25-.25-.4-.25-.4l.22-.15c-.07-.99-.24-1.75-.48-2.15l-.25.15c.41.69.64 2.76.32 5.44.07.1.11.17.13.2l-.17.11c-.25 1.87-.98 5.43-3.05 8.38l-.01.02c-1.09 2.22-5.48 6.52-7.82 7.68-2.34 1.16-5.49-.73-5.53-.75-3.4-1.92-7.7-9.46-7.74-9.54l-.26.15c.06.1.56.98 1.32 2.17.16-.04.24-.08.24-.09l.15.25c-.01.01-.08.05-.22.09 1.57 2.42 4.12 5.95 6.36 7.22.1.06 1.96 1.17 3.93 1.17.63 0 1.27-.11 1.87-.41 2.43-1.2 6.8-5.49 7.94-7.8.33-.48.64-.98.92-1.5h-.04l.02-.29zM33.03 17.44c.25.3.5.62.56.71.19.29.67.84.98 1.19.36.41.69.41.73.42.04.01-.67-.81-.85-1.04a35 35 0 0 0-.92-1.16c-2.19-2.64-4.73-5.2-6.77-5.86-.04.08-.08.17-.13.27 1.88.59 4.28 2.96 6.4 5.47z"/><path d="M34.52 19.29c2.1 2.7 3.75 5.25 3.78 5.31l-.01-.2v-.03c.01-.09.02-.19.04-.28-.42-.64-1.73-2.6-3.43-4.8h-.38zM22.11 17.61c2.69-2.5 3.96-4.52 4.53-5.63l-.22-.06.07-.29c.09.02.19.05.28.08.19-.4.26-.64.27-.68l-.28-.08c-.01.03-.86 2.75-4.96 6.54.11.03.21.07.3.11 0 0 0 .01.01.01z"/><path d="M19.67 19.68c.16-.16 1.82-1.47 2.47-2.1.4-.39-.28-.1-.31-.11-.03-.01-2.49 2.12-2.52 2.12-.33.26-.68.52-1.05.79-4.58 2.96-7.1 2.37-7.12 2.37l-.07.28c.03.01.28.07.73.07.49 0 1.23-.07 2.2-.35l.01-.15.29.03v.03c1.1-.35 2.48-.97 4.12-2.03.44-.33.86-.64 1.25-.95zM26.41 11.92l.22.06c.05-.1.09-.18.13-.27-.09-.03-.19-.06-.28-.08l-.07.29z"/><path d="M9.59 17.65c2-7.62 7.75-11.31 12.46-12.22 2.39-.42 3.48.58 3.49.59l.15-.16-.12-.18c-.4-.28-1.55-.9-3.58-.54-1.44.28-4.29 1.1-7.1 3.43-2.74 2.28-4.63 5.31-5.6 9-2.15 8.19.18 8.94.29 8.97l.06-.29c-.19-.09-2.01-1.14-.05-8.6z"/><path d="M40.33 14.75c-1.6-4.44-4.72-7.91-8.36-9.29-3.72-1.41-6.27.14-6.38.21.1.07.16.12.17.13l-.06.06-.16.17c.02-.02 2.74-1.65 6.33-.29 3.56 1.35 6.62 4.75 8.19 9.11 1.46 4.04 1.19 7.76.8 10.34.04.17.08.33.11.5l.03.33c.43-2.61.9-6.91-.67-11.27zM12.73 32.34c-1.91-.52-2.74-3.33-2.74-3.35-.48-1.88.01-3.78 1.28-4.95.24-.22.44-.3.63-.24.61.18.98 1.68 1.18 2.48l.02.09c.15.61.32.9.53.95.12.03.21-.03.26-.09l.03-.03.39-4.54-.3.09-.37 4.23c-.06-.08-.15-.26-.26-.68l-.02-.09c-.23-.92-.61-2.46-1.38-2.69-.29-.09-.6.02-.92.31-.7.64-1.17 1.49-1.4 2.43.01 0 .02.01.02.01l-.08.27c-.15.8-.12 1.66.1 2.52.03.12.87 3 2.95 3.56.74.2 1.33.27 1.78.27.46 0 .77-.07.96-.13l-.17-.26c-.37.1-1.16.2-2.49-.16z"/><path d="M15.45 32.42s-.08.04-.24.09c.05.08.11.17.17.26.14-.04.21-.09.22-.09l-.15-.26zM14.01 22.59l-.01.15.3-.09v-.03l-.29-.03zM9.68 26.26s-.01 0-.02-.01l-.06.29.08-.28zM27.58 30.21c-.49.87-1.31 1.53-2.2 1.95.97-.35 1.86-.96 2.46-1.81 0 0-.05-.08-.13-.07l-.13-.07z"/><path d="M28.12 28.6c-.12-.33-.37-.57-.74-.72a8.32 8.32 0 0 0-1.07-.34c-.62-.17-.77-.23-.79-.63-.01-.24.01-.55.02-.87.04-.75.1-1.48-.11-1.86 0-.01-.04-.04-.06-.03-.05 0-.12.06-.12.06-.06.03-.08.1-.06.16.13.35.09 1.07.06 1.67-.02.33-.03.65-.02.9.02.64.39.74 1 .91.28.08.62.17 1.04.33.29.11.48.29.57.54.22.63-.25 1.49-.26 1.52 0 0 .06.04.13.08l.13.07c.02-.07.55-1.03.28-1.79z"/><path d="m27.58 30.21.13.07c-.06-.03-.13-.07-.13-.07zM23.03 24.1c-.07.01-.13 0-.13 0s-.26-.82-1.47-1.34c-1.21-.52-2.63-.41-3.39.13-.76.54-1.63 1.43-1.76 1.73l-.01-.01c-.19.82.4 2.19 1.88 3.12.5.32.96.44 1.39.44.97 0 1.77-.66 2.47-1.32 1.11-1.04 1.05-2.43 1.02-2.75zm-1.21 2.54c-1.23 1.16-2.19 1.67-3.5.85-1.32-.83-1.92-2.08-1.75-2.81.11-.22 1.35-2.47 4.1-1.93 1.48.27 2 1.21 2.07 1.35.02.18.12 1.56-.92 2.54z"/><path d="M19.92 23.02c-.29-.05-.59-.01-.86.11-.51.22-1.26.73-1.17 1.83.13 1.64 1.68 1.58 1.68 1.58.93.15 1.98-.55 1.98-2.04-.01-1.06-1.03-1.38-1.63-1.48zm.87 2.66c-.24.25-.61.54-1.04.54h-.06c-.37-.02-.73-.26-1.05-.7-.01-.01-.64-.98.09-1.77s1.72-.41 2.2.03c.17.15.26.39.27.68.01.43-.16.96-.41 1.22z"/><path class="st11" d="m19.24 23.74-.01-.01.01.01zM20.49 23.65c.03.04.06.08.08.13.41.8.29 1.46-.38 1.96l-.01.01a.89.89 0 0 1-.48.13c-.09 0-.17-.01-.26-.04-.26-.09-.44-.31-.53-.67-.24-.92.25-1.42.29-1.46a.237.237 0 0 1-.09-.15c-.11.06-.21.15-.32.26-.68.73-.11 1.59-.08 1.64.31.42.64.64.98.66.43.03.79-.26 1.03-.51.23-.25.4-.74.38-1.15-.01-.19-.05-.44-.24-.61a2.24 2.24 0 0 0-.36-.25c0 .01 0 .03-.01.05z"/><path class="st11" d="M18.72 23.75c-.73.79-.1 1.76-.09 1.77.33.44.68.68 1.05.7h.06c.44 0 .81-.29 1.04-.54.25-.26.42-.79.41-1.22-.01-.29-.11-.53-.27-.68-.48-.44-1.47-.81-2.2-.03zm2.03 1.9c-.36.38-1.2 1.04-2.08-.16 0 0-.63-.94.08-1.7.12-.12.24-.22.36-.29.14-.21 1.01-.27 1.32.01.18.08.33.19.46.31.47.43.22 1.45-.14 1.83z"/><path class="st11" d="m20.43 23.51.02.02s.04.03.04.07c.14.08.27.17.36.25.19.17.24.43.24.61.02.41-.15.9-.38 1.15-.23.25-.6.54-1.03.51-.34-.02-.67-.24-.98-.66-.03-.05-.6-.92.08-1.64.1-.11.21-.19.32-.26 0-.01 0-.02-.01-.04 0-.01.01-.02.01-.02-.12.07-.25.16-.36.29-.72.77-.08 1.7-.08 1.7.88 1.2 1.73.54 2.08.16.36-.38.61-1.4.14-1.83a1.38 1.38 0 0 0-.45-.31z"/><path d="M19.27 23.77s-.5.49-.27 1.37c.08.32.24.52.47.6.28.1.58-.03.65-.08l.01-.01c.23-.17.94-.71.35-1.83-.02-.04-.05-.08-.07-.11-.04.02-.1.04-.18.05-.14.01-.14.03-.14.03l.01.76c0 .07-.01.13-.03.2-.04.12-.14.28-.3.23-.31-.07-.31-1.15-.31-1.15s-.13-.03-.23-.1l.04.04z"/><path d="M20.46 23.69c.02.03.05.07.08.11.62 1.19-.17 1.75-.38 1.9-.15.12-.96.38-1.2-.55s.28-1.42.28-1.42l-.01-.01c-.01-.01-.02-.01-.03-.02-.04.04-.54.54-.29 1.46.09.35.27.58.53.67.09.03.17.04.26.04.21 0 .41-.07.48-.13l.01-.01c.67-.5.79-1.16.38-1.96-.03-.05-.06-.09-.08-.13-.01.02-.02.03-.03.05z"/><path d="M20.49 23.82c.59 1.13-.12 1.66-.35 1.83l-.01.01c-.07.05-.37.18-.65.08-.23-.08-.39-.28-.47-.6-.23-.88.27-1.37.27-1.37l-.03-.04s-.53.49-.28 1.42c.24.93 1.04.66 1.2.55.2-.15 1-.72.38-1.9-.03-.04-.05-.08-.08-.11-.01.01-.02.02-.04.03.01.02.03.06.06.1z"/><path class="st10" d="M19.21 23.7c-.01 0-.01 0 0 0 .01.01.01.02.02.02l-.02-.02z"/><path d="M16.3 24.56c.01-.03 1.38-2.7 4.42-2.1 1.74.32 2.27 1.49 2.29 1.54l.01.02v.02c0 .01 0 .03.01.07.17-.01.43-.09.15-.48-.54-.76-1.5-1.6-3.83-1.65-2.32-.05-3.05.87-3.26 1.16-.21.28-.44.16-.44.16s-.48-.42-.69-.41c-.33.15-.12.36-.12.36l1.44 1.38v-.03l.02-.04z"/><path d="M18.05 22.9c.76-.54 2.18-.64 3.39-.13 1.21.52 1.47 1.34 1.47 1.34s.06.01.13 0c0-.04-.01-.06-.01-.07v-.02l-.01-.02c-.02-.05-.56-1.23-2.29-1.54-3.05-.6-4.41 2.07-4.42 2.1l-.01.03v.03l.01.01c.11-.3.98-1.2 1.74-1.73z"/><path class="st11" d="m20.52 23.73.03-.19s-.31-.23-.75-.23-.65.09-.76.24c-.11.16.36.46.36.46l1.12-.28z"/><ellipse cx="19.86" cy="24.29" rx=".87" ry=".93"/><path class="st10" d="m19.97 23.4.69.65h.02l.03-.01c.06-.01.11-.04.15-.09-.13-.2-.3-.34-.48-.43-.14-.06-.27-.1-.41-.12zM19.57 23.43c.04-.02.08-.04.12-.05h-.11c0 .01-.01.03-.01.05z"/><path class="st10" d="M20.88 23.89c-.03-.25-.79-.68-1.19-.56.42 0 .89.14 1.19.56z"/><path class="st10" d="M19.59 23.38h.11c.18-.06.29-.02.29-.01l-.02.04c.14.02.27.06.4.12.18.09.35.23.48.43.01-.01.01-.02.02-.03v-.03c-.29-.42-.76-.56-1.19-.56-.01 0-.02 0-.03.01.01-.02-.04-.01-.06.03z"/><path class="st10" d="M19.61 23.51c.03.03.07.08.14.12.12.07.11.08.11.08l-.15.34c-.03.06-.05.12-.06.19-.01.13 0 .31.17.34.31.07.58-.56.58-.56s.13.03.25.02l-.69-.64-.02.04c.01.01-.11-.04-.33.07z"/><path class="st10" d="M19.59 23.47c.25-.13.38-.07.38-.07v-.01c-.09-.01-.19-.02-.28-.02-.04.01-.08.03-.12.05 0 .02.01.04.02.05z"/><path class="st10" d="M19.99 23.36c-.01 0-.11-.05-.29.01.09 0 .18.01.28.02l.01-.03z"/><path class="st10" d="M19.59 23.47c.01.01.01.03.03.04.22-.11.33-.07.33-.07l.02-.04c0 .01-.14-.05-.38.07z"/><path d="m39.58 71.33-4.34.54c-2.93-.58-5.92-1.21-8.96-1.9-4.2-.95-8.27-1.95-12.21-2.99 3.08-.23 6.22-.43 9.41-.6 2.53-.14 5.04-.25 7.51-.34 1.84.73 3.47 1.6 4.76 2.37.78.47 1.73.92 2.75 1.83.47.42.84.81 1.08 1.09z" style="fill:#f1be95"/><path class="st10" d="M18.95 58.05c-.01 0-.03 0-.04.01-.02.01-.04.02-.05.04-1.75 1.81-3.89 1.08-4.14-1.04v-.04c0-.01 0-.02-.01-.03-.02-.04-.06-.08-.11-.08-.04 0-.07.02-.09.05-.01.02-.02.03-.03.06-.98 2.81.19 6.14 3.5 9.25.01.01.02.02.03.02.01.01.03.01.05.01.05 0 .08-.04.08-.08v-.01c0-.02-.02-.05-.02-.06a.076.076 0 0 1-.02-.04l-.03-.06s0-.01-.01-.01c-.01-.02-.02-.05-.03-.07 0-.01-.01-.02-.01-.02-.02-.03-.02-.05-.03-.06 0-.01-.01-.02-.01-.03-.01-.01-.01-.03-.02-.04 0-.01-.01-.02-.01-.03-.01-.01-.01-.03-.02-.04 0-.01-.01-.02-.01-.03-.01-.01-.01-.03-.02-.04 0-.01-.01-.02-.01-.03-.01-.02-.01-.03-.02-.05 0-.01-.01-.02-.01-.03-.01-.02-.01-.04-.02-.06 0-.01 0-.01-.01-.02-.01-.02-.02-.05-.03-.07 0-.01-.01-.02-.01-.02-.01-.02-.01-.03-.02-.05 0-.01-.01-.02-.01-.03-.01-.01-.01-.03-.01-.04 0-.01-.01-.02-.01-.03 0-.01-.01-.03-.01-.04 0-.01-.01-.02-.01-.03 0-.01-.01-.03-.01-.04 0-.01-.01-.02-.01-.03 0-.01-.01-.03-.01-.04 0-.01-.01-.02-.01-.03-.01-.02-.01-.03-.01-.05 0-.01 0-.01-.01-.02-.01-.02-.01-.05-.02-.07 0-.01 0-.02-.01-.02 0-.02-.01-.03-.01-.05 0-.01-.01-.02-.01-.03 0-.01-.01-.03-.01-.04 0-.01-.01-.02-.01-.03 0-.01-.01-.03-.01-.04 0-.01-.01-.02-.01-.03 0-.01-.01-.03-.01-.04 0-.01-.01-.02-.01-.03 0-.01-.01-.03-.01-.04 0-.01 0-.02-.01-.03 0-.01-.01-.03-.01-.04 0-.01 0-.02-.01-.03 0-.02-.01-.05-.01-.07 0-.01 0-.02-.01-.03 0-.01-.01-.03-.01-.04 0-.01 0-.02-.01-.03 0-.01 0-.03-.01-.04 0-.01 0-.02-.01-.03 0-.01 0-.02-.01-.04 0-.01 0-.02-.01-.03 0-.01 0-.02-.01-.04 0-.01 0-.02-.01-.03v-.17c0-.02 0-.04-.01-.06V63.47c0-.05 0-.11-.01-.16v-.33c0-.08.01-.16.01-.24v-.19c.01-.14.03-.29.05-.43.19-1.22.7-2.39 1.38-3.53.06-.1.13-.2.19-.3.01-.02.01-.03.02-.04 0-.01.01-.02.01-.04 0-.11-.04-.16-.1-.16z"/><path d="M17.84 57.19v-.16c0-.02-.01-.04-.01-.06 0-.01 0-.02-.01-.02v-.01c0-.01 0-.01-.01-.02v-.01c0-.01 0-.01-.01-.02v-.01c0-.01 0-.01-.01-.02v-.01c0-.01 0-.01-.01-.02v-.01s0-.01-.01-.01c-.01-.02-.02-.04-.02-.05a1.046 1.046 0 0 0-1.97.5c.01.48.35.88.79.99.01 0 .02 0 .03.01.01 0 .02 0 .03.01.02 0 .04.01.06.01h.15c.57-.01 1.03-.49 1.02-1.06-.02-.01-.02-.02-.02-.03z" style="fill-rule:evenodd;clip-rule:evenodd;fill:#fff"/><path class="st5" d="m37.22 70.93-2.24-5.18c-2.06.1-4.13.19-6.19.28l-15.01.69c-1.14.05-2.28.1-3.42.16-.18-.98-.43-2.69-.61-3.67-1.44-.17-2.86-.55-5.72-.97-1.45-.22-3.41-.69-4.62-.91-.03 1.1-.98 6.44-.78 7.86.1.74-.07 2.35.08 2.98.04.26.1.52.19.77.01.05.03.11.04.17h.02c.69 1.71 2.68 2.5 4.78 2.24l27.86-3.31 5.79-.72-.17-.39z"/><path class="st3" d="M2.96 75.46c-1.88 0-3.44-.86-4.05-2.28h-.02l-.02-.06a.292.292 0 0 1-.02-.09l-.02-.08a4.04 4.04 0 0 1-.19-.78c-.08-.35-.07-.98-.05-1.6.01-.52.02-1.05-.02-1.39-.13-.92.22-3.43.49-5.45.15-1.09.28-2.03.29-2.42v-.08l.08.01c.48.09 1.07.21 1.71.35.95.2 2.03.43 2.91.56 1.48.22 2.59.43 3.49.6.86.16 1.54.29 2.23.37l.05.01.01.05c.09.49.2 1.17.3 1.83.1.64.2 1.3.29 1.78l3.36-.15c2.5-.12 5-.23 7.5-.34 2.5-.11 5.01-.23 7.51-.35l6.24-.29 2.46 5.7-5.88.73-27.87 3.33c-.26.03-.52.04-.78.04zM-1 73.03l.02.05c.64 1.58 2.53 2.47 4.71 2.2l27.86-3.31 5.71-.71-.14-.32-2.22-5.13-6.14.28c-2.5.12-5.01.23-7.51.35-2.5.11-5 .23-7.5.34l-3.47.16-.02-.04c-.09-.49-.2-1.18-.3-1.84-.1-.64-.21-1.3-.29-1.78-.68-.08-1.35-.21-2.19-.37-.89-.17-2.01-.38-3.48-.6-.88-.13-1.96-.36-2.92-.56-.6-.13-1.16-.25-1.63-.33-.02.43-.15 1.33-.29 2.36-.28 2.01-.62 4.51-.49 5.41.05.35.04.86.02 1.41-.01.61-.03 1.24.05 1.57.04.26.1.52.19.76l.02.09c0 .01 0 .02.01.03v-.02z"/><path class="st3" d="M2.96 75.6c-1.88 0-3.47-.85-4.12-2.26l-.05.01-.05-.18a.292.292 0 0 1-.02-.09l-.02-.07c-.09-.26-.16-.52-.19-.79-.1-.47-.09-1.37-.08-2.16 0-.33.01-.64 0-.86-.02-.89.24-3.07.48-5 .16-1.3.3-2.43.31-2.87l.01-.23.23.04c.48.09 1.08.21 1.71.35.95.2 2.03.43 2.9.56 1.48.22 2.6.43 3.49.6.86.16 1.54.29 2.22.37l.15.02.03.14c.09.49.2 1.18.3 1.84.09.59.19 1.19.27 1.66l3.24-.15c2.5-.12 5-.23 7.5-.34 2.5-.11 5.01-.23 7.51-.35l6.33-.29 2.57 5.94-6.06.75-27.86 3.31c-.27.03-.54.05-.8.05zm-3.87-2.7.05.13c.62 1.53 2.45 2.38 4.57 2.12l27.86-3.31 5.53-.68-.07-.16-2.18-5.05-6.05.28c-2.5.12-5.01.23-7.51.34-2.5.11-5 .23-7.5.34l-3.59.17-.03-.17c-.09-.49-.2-1.18-.3-1.84-.09-.6-.19-1.21-.28-1.68-.65-.08-1.3-.21-2.11-.36-.89-.17-2-.38-3.48-.6-.89-.13-1.97-.36-2.93-.56-.54-.11-1.05-.22-1.48-.3-.04.55-.16 1.54-.3 2.67-.22 1.82-.5 4.08-.47 4.94.01.23 0 .54 0 .87-.01.74-.02 1.65.07 2.07v.02c.04.25.1.49.18.73l.02.03z"/><path class="st5" d="M24.5 24.88c0 2.27-2.33 4.1-5.2 4.1s-5-2.12-5-4.38 1.52-2.74 4.39-2.74 5.81.75 5.81 3.02zM33.89 27.89l2.58-5.23-2.14-1.46h-5.61s-1.64 1.56-1.68 1.79.38 3.86.38 3.86l3.77 3.25 2.7-2.21zM53.45 67.12c-.09-.52-.96-5.41-1.09-5.81-1.25.11-1.77.33-3.74.67-1.55.27-3.46.68-4.72.48-.03.14.31 2.49.28 2.63h-.03c-9.75-.81-19.5-1.61-29.25-2.42-.07-.01-.15-.02-.22-.02-.12-.01-.32-.01-1.09.1-.47.07-.53.1-1 .17-1.55.23-1.95.35-2.35.54-.14.07-1.44.69-1.59 1.37-.14.64.69 1.65 2.11 2.16h4.93c16.57 3.66 28.88 7.32 32.57 7.91.73.12 2.17.28 3.26-.54 1.7-1.29 2.08-4.74 2.08-5.52 0-.87-.15-1.72-.15-1.72z"/><path class="st3" d="M49.35 75.19c-.49 0-.9-.06-1.12-.1-1.61-.26-4.85-1.09-9.33-2.25-5.85-1.51-13.86-3.58-23.22-5.65-.82 0-1.78-.02-2.71-.03-.94-.01-1.9-.03-2.72-.03h-.03l-.03-.01c-1.52-.55-1.87-1.6-1.71-2.33.14-.66 1.12-1.22 1.69-1.5.43-.21.86-.34 2.41-.56.23-.03.36-.06.5-.08.13-.02.27-.05.5-.09.82-.12 1.02-.11 1.13-.1.07 0 .15.01.24.03l29.04 2.4c-.03-.25-.08-.7-.12-1.04-.14-1.1-.16-1.33-.14-1.42l.04-.18.18.03c1.05.17 2.62-.12 4-.36.22-.04.44-.08.65-.12.81-.14 1.39-.26 1.85-.36.67-.14 1.16-.25 1.9-.31l.16-.01.05.15c.14.44 1.09 5.79 1.1 5.84.01.04.15.89.15 1.75 0 .8-.39 4.34-2.16 5.68-.73.52-1.6.65-2.3.65zm-39.07-8.47c.82 0 1.77.02 2.69.03.94.01 1.9.03 2.72.03h.04c9.38 2.07 17.4 4.15 23.26 5.66 4.47 1.16 7.71 1.99 9.3 2.25.5.08 2.02.32 3.11-.51 1.52-1.15 2-4.34 2-5.36 0-.82-.14-1.64-.15-1.68-.15-.86-.85-4.76-1.05-5.63-.63.06-1.08.16-1.69.29-.47.1-1.05.22-1.87.37-.21.04-.43.08-.65.12-1.31.24-2.79.5-3.89.39.03.27.08.73.13 1.09.13 1.07.15 1.27.13 1.36l-.04.18-.21-.03-29.24-2.42c-.08-.01-.15-.02-.22-.02-.09-.01-.26-.02-1.04.1-.23.03-.36.06-.49.08-.13.03-.27.05-.51.09-1.5.22-1.9.34-2.29.52-.66.32-1.39.81-1.48 1.23-.12.6.19 1.4 1.44 1.86z"/><path class="st11" d="M27.9 20.08c.2.7 2.19-.66 4.19-.47 1.94.19 2.8.74 3.5 1.6.11.13.28-.03.22-.2-.44-1.22-1.41-2.28-2.7-2.71-2.37-.8-3.73-.38-4.57.26-.37.27-.7 1.31-.64 1.52z" id="XMLID_00000021098400283321342710000003554337915051781531_"/><path d="M35.67 21.4c-.07 0-.15-.03-.2-.1-.66-.82-1.46-1.36-3.4-1.55-.98-.1-1.95.19-2.73.43-.65.19-1.12.33-1.39.19a.386.386 0 0 1-.19-.24c-.08-.28.05-1.2.68-1.68 1.14-.87 2.68-.96 4.7-.28 1.27.43 2.31 1.47 2.79 2.8.06.15 0 .33-.14.4-.03.02-.08.03-.12.03zm-3.98-1.95c.14 0 .27.01.41.02 2.01.2 2.89.79 3.58 1.63 0-.01.01-.03 0-.05-.45-1.25-1.43-2.23-2.62-2.63-1.92-.65-3.38-.57-4.44.24-.56.42-.63 1.22-.58 1.38.01.05.03.06.05.07.17.09.66-.05 1.18-.21.65-.19 1.52-.45 2.42-.45z" id="XMLID_00000057839710510419962420000007731053940918178958_"/><path class="st10" d="M30.07 22.52c-1.4.56-1.73 1.57-1.77 1.73.02.18.19 1.55 1.39 2.31 1.43.9 2.48 1.21 3.6.15 1.13-1.07 1.48-2.41 1.17-3.1-.15-.19-1.8-2.16-4.39-1.09zm3.16 1.63c.2 1.63-1.34 1.88-1.34 1.88-.88.32-2.05-.15-2.34-1.62-.21-1.04.74-1.55 1.3-1.76.28-.1.58-.13.87-.06.55.11 1.38.47 1.51 1.56z"/><path d="M32.67 22.16c-.85-.38-2.26-.21-3.35.54-1.09.74-1.18 1.6-1.18 1.6s-.05.02-.12.02c.03.32.25 1.69 1.53 2.5.82.52 1.74 1.01 2.68.82.42-.08.85-.3 1.27-.71 1.27-1.2 1.58-2.66 1.23-3.43l-.01.01c-.17-.27-1.2-.97-2.05-1.35zm.63 4.55c-1.12 1.07-2.17.75-3.6-.15-1.21-.76-1.38-2.13-1.39-2.31.04-.16.37-1.18 1.77-1.73 2.59-1.07 4.24.9 4.39 1.09.31.69-.04 2.03-1.17 3.1z"/><path d="M31.73 22.58c-.29-.06-.59-.04-.87.06-.57.21-1.51.72-1.3 1.76.29 1.47 1.46 1.94 2.34 1.62 0 0 1.54-.24 1.34-1.88-.14-1.08-.97-1.44-1.51-1.56zm.88 2.26c-.24.5-.54.8-.9.9-.02.01-.04.01-.06.01-.43.09-.85-.13-1.13-.33-.3-.21-.57-.69-.64-1.12-.05-.29 0-.54.14-.72.39-.53 1.29-1.09 2.16-.46.87.64.43 1.71.43 1.72z"/><path class="st11" d="m31.67 23.2-.01.01.01-.01zM31.7 23.17c.05.03.63.43.57 1.38-.02.36-.15.62-.39.76a.75.75 0 0 1-.25.09c-.21.04-.41.01-.5-.04l-.01-.01c-.75-.36-1-.98-.75-1.84.02-.05.04-.1.06-.14-.01-.02-.02-.03-.02-.05-.13.1-.23.22-.3.32-.15.2-.15.47-.12.65.06.4.32.85.6 1.05.28.2.69.41 1.11.3.33-.09.61-.37.83-.84.02-.05.41-1.02-.4-1.6-.12-.09-.24-.15-.36-.19a.39.39 0 0 1-.07.16z"/><path class="st11" d="M30.02 23.58c-.14.18-.18.43-.14.72.07.43.34.91.64 1.12.28.2.7.41 1.13.33.02 0 .04-.01.06-.01.36-.09.66-.4.9-.89 0-.01.44-1.08-.43-1.71-.87-.64-1.77-.08-2.16.44zm2.54 1.24c-.63 1.35-1.59.86-2.01.56-.42-.3-.87-1.25-.49-1.77.1-.13.23-.27.39-.39.25-.34 1.11-.45 1.29-.27.14.04.27.11.41.21.85.62.41 1.66.41 1.66z"/><path class="st11" d="m31.74 22.95.02.02v.04c.12.04.24.1.36.19.8.58.42 1.54.4 1.6-.22.47-.5.75-.83.84-.41.11-.83-.1-1.11-.3-.28-.2-.53-.65-.6-1.05-.03-.18-.03-.44.12-.65.07-.1.18-.21.3-.32 0-.04.03-.08.03-.08 0-.01.01-.01.02-.02a1.8 1.8 0 0 0-.39.39c-.38.52.07 1.47.49 1.77.42.3 1.38.79 2.01-.56 0 0 .44-1.04-.41-1.66a2.28 2.28 0 0 0-.41-.21z"/><path d="M30.83 23.43s0-.02-.14 0c-.08 0-.14-.01-.18-.02-.02.04-.04.08-.05.13-.35 1.22.44 1.6.7 1.73l.01.01c.08.04.4.1.66-.05.21-.12.32-.35.34-.68.05-.91-.53-1.29-.53-1.29l.03-.04c-.09.09-.21.14-.21.14l-.63.07z"/><path d="M31.67 23.21s.61.38.55 1.34c-.06.96-.9.85-1.07.77-.23-.11-1.12-.51-.74-1.79.02-.05.03-.09.05-.13-.02-.01-.03-.02-.04-.03-.02.04-.04.09-.06.14-.25.86 0 1.48.75 1.84l.01.01c.09.04.29.08.5.04.08-.02.17-.05.25-.09.24-.14.37-.39.39-.76.06-.95-.52-1.35-.57-1.38-.01.01-.01.02-.02.03v.01z"/><path d="M31.15 25.32c.17.08 1.01.19 1.07-.77.06-.96-.55-1.34-.55-1.34l-.03.04c.01 0 .59.38.53 1.29-.02.33-.14.56-.34.68-.26.15-.58.09-.66.05l-.01-.01c-.26-.13-1.06-.51-.7-1.73.02-.05.03-.09.05-.13-.02 0-.03-.01-.05-.02-.02.04-.04.08-.05.13-.37 1.3.51 1.7.74 1.81z"/><path class="st10" d="m31.69 23.17-.02.03c.01-.01.02-.02.02-.03.01 0 0 0 0 0z"/><path class="st10" d="m30.72 23.11.94.11.01-.01.02-.03c.04-.05.06-.1.06-.16-.22-.08-.44-.09-.64-.05-.13.02-.27.07-.39.14zM30.42 23.37c.02-.04.04-.08.07-.11a.27.27 0 0 0-.08.07c-.01.01 0 .03.01.04z"/><path class="st10" d="M31.74 22.95c-.18-.18-1.04-.07-1.29.27.34-.26.8-.42 1.29-.27z"/><path class="st10" d="M30.4 23.32a.5.5 0 0 0 .08-.07c.11-.16.22-.19.23-.19l.01.04c.12-.06.25-.12.39-.14.2-.04.42-.03.64.05v-.04c0-.01-.01-.01-.02-.02-.48-.16-.95.01-1.29.27l-.02.02c.01 0-.02.04-.02.08z"/><path class="st10" d="M30.51 23.41c.04.01.1.02.18.02.14-.02.14 0 .14 0l.09.36c.01.07.03.13.07.18.07.11.19.25.34.17.29-.13.12-.8.12-.8s.12-.05.21-.14l-.94-.09.01.05s-.12.04-.22.25z"/><path class="st10" d="M30.46 23.4c.12-.25.26-.28.26-.28v-.01c-.08.04-.16.1-.24.15-.02.03-.04.07-.07.11.02.01.03.02.05.03z"/><path class="st10" d="M30.71 23.07c-.01 0-.12.03-.23.19.07-.05.15-.11.24-.15l-.01-.04z"/><path class="st10" d="M30.46 23.4c.01.01.03.01.05.02.11-.22.23-.25.23-.25l-.01-.05c-.01 0-.15.03-.27.28z"/><path d="M35.7 21.53c-.21.03-.6.54-.6.54s-.2.17-.46-.07c-.26-.24-1.15-1-3.42-.5s-3.06 1.52-3.43 2.36c-.2.44.07.46.24.45 0-.04-.01-.06-.01-.07v-.04c.01-.05.31-1.31 1.95-1.96 2.87-1.18 4.73 1.17 4.75 1.2l.02.03c0 .01.01.02.01.02l1.15-1.63c-.02 0 .15-.24-.2-.33z"/><path d="M34.71 23.44c-.02-.02-1.87-2.38-4.75-1.2-1.64.65-1.94 1.91-1.95 1.96v.04c0 .01 0 .03.01.07.07-.01.12-.02.12-.02s.1-.86 1.18-1.6c1.09-.74 2.5-.91 3.35-.54.85.38 1.88 1.09 2.06 1.35l.01-.01c0-.01-.01-.02-.01-.02l-.02-.03zM22.82 24.98a.22.22 0 0 1-.2-.12c0-.01-.54-.93-1.67-1.16-1.04-.22-2.25.18-3.59 1.18-.1.08-.25.05-.32-.05-.08-.1-.05-.25.05-.32 1.46-1.09 2.8-1.51 3.97-1.26 1.34.29 1.94 1.34 1.97 1.39.06.11.02.25-.09.31-.05.02-.08.03-.12.03z"/><path d="M17.58 24.51c.04-.12.1-.27.07-.39-.31.21-.29-.02-.29-.02s-1-.88-1.21-.88c-.33.13-.24.39-.24.39L17 24.79c.12.13.32.13.43 0 .07-.09.12-.19.15-.28z"/><path d="M21.15 23.29s-2.47-1-4.52.66c.29.55.97.5.97.5s.33-.47 1.4-.8c.48-.15 1.66-.31 2.15-.36z"/><ellipse class="st5" cx="25.12" cy="35.07" rx="4.41" ry="2.01"/><path class="st14" d="M25.61 33.79c-1.03-.15-2.98-.3-4.05.49.85.56 2.12 1.14 3.26 1.36 1.12.21 2.3.12 3.23-.16.06-.02.1-.1.17-.12-.12-.16-1.09-1.35-2.61-1.57z"/><path class="st14" d="M28.15 35.36s-.59 1.1-1.64 1.53c-.47.19-1.32.39-2.09.23-.94-.19-1.82-.83-2.28-1.57-.28-.37-.63-1.15-.63-1.15s3.29 1.53 4.03 1.42c.74-.11 2.15-.15 2.63-.46"/><path d="M22.18 35.61c.9 1.75 3.23 2.12 4.83.94-1.93.71-3.4.51-4.83-.94zM25.61 33.79c1.52.22 2.24 1.55 2.35 1.69.02-.01.32-.09.32-.09-.04-.06-.89-1.64-2.62-1.89-1.14-.16-3.08-.2-4.25.69 0 0 .19.12.25.16 1.07-.8 2.92-.71 3.95-.56z"/><path d="M27.59 35.47c-.07.02-.13.03-.2.05-1.91.45-3.83-.03-5.48-1.02-.07-.03-.25-.16-.25-.16a8.2 8.2 0 0 1-1.07-.79c-.05-.04-.24-.22-.29-.26.04.05.21.24.25.28 1.55 1.71 3.95 2.72 6.25 2.31a6.94 6.94 0 0 0 2.93-1.27c-.67.36-1.37.65-2.1.85.02 0 0 0-.04.01z"/><path class="st11" d="M22.62 19.73c.48-.01.76-.23.92.01.31.45.01 2.12-1.23 2.09-.84-.02-2.5-.69-3.24-.86-1.19-.28-2.1-.27-2.75.06-.13.07-.26-.1-.16-.22.4-.5 1.51-1.29 2.64-1.32 2.26-.06 2.72.34 3.82.24z" id="XMLID_00000145776230779617737270000016676978725466017161_"/><path d="M22.33 21.96h-.03c-.57-.01-1.48-.31-2.28-.57-.38-.12-.74-.24-.99-.3-1.17-.28-2.04-.26-2.66.05-.12.06-.25.03-.33-.07a.274.274 0 0 1 0-.36c.45-.55 1.6-1.35 2.74-1.37 1.25-.03 1.95.08 2.52.17.46.07.82.13 1.31.08h.01c.16 0 .3-.03.42-.06.23-.05.46-.1.61.13.22.32.17 1.02-.11 1.54-.26.49-.69.76-1.21.76zm-4.77-1.33c.45 0 .96.07 1.54.2.26.06.6.17 1.01.3.74.24 1.67.54 2.2.55.54.02.84-.33.99-.62.24-.45.27-1.05.12-1.25-.04-.06-.09-.06-.33-.01-.13.03-.28.06-.47.07-.52.05-.9-.01-1.37-.08-.56-.08-1.25-.19-2.47-.16-1.05.02-2.13.77-2.53 1.27.36-.19.79-.27 1.31-.27z" id="XMLID_00000062877718081646891070000012917936351749837224_"/></g><path class="st7" d="m31.42 39.57 3.51 2.46s-4.66 3.73-4.66 3.85-9.81-1.99-9.81-1.99l-.45-2.49 11.41-1.83z"/></g><path class="st3" d="M3.82 77.75c-2.04-.21-6.2-1-9.54-1.67.05.14.08.32.11.53 3.4.68 7.58 1.47 9.55 1.65l-.12-.51zM45.25 86.81v.01c-.09-.51-.19-.97-.28-1.37-.64-2.65-.57-5.07-.32-7.21l-.18.03-.09-.49.33-.06c.1-.78.22-1.52.34-2.21.19-1.17.36-2.19.38-3.06.05-2.85-2.96-8.62-3.09-8.87l-.44.23c.03.06 3.07 5.9 3.03 8.63-.01.83-.18 1.83-.37 2.98-.45 2.76-1.02 6.19-.07 10.13 1.23 5.12 2.24 27 2.38 29.21H1.34c.3-1.9 2-19.17 2.82-27.68l-.71 2.1C2.49 98.07.84 114.82.81 114.97l-.05.29h3.21c.06-.2.09-.31.1-.33l.47.16s-.02.06-.05.17H44.8c-.01-.13-.02-.2-.02-.22l.49-.05c.01.06.02.15.03.27h2.1l-.02-.26c-.01-.14-.71-18.04-1.69-25.36l-.91-2.69.47-.14z" style="clip-path:url(#SVGID_00000012433103678100009110000006540348042367672207_)"/><path class="st3" d="m44.38 77.79.09.49.18-.03.06-.51-.33.05zM4.25 78.28l.03-.49c-.14-.01-.29-.02-.46-.04.04.17.08.34.13.51.1.01.2.01.3.02zM54.74 75.97c-.05.11-.09.25-.12.41l.53-.1c.01-.04.03-.08.04-.12l-.45-.19z" style="clip-path:url(#SVGID_00000012433103678100009110000006540348042367672207_)"/><path class="st4" d="M-5.92 76.04c.07.01.13.03.2.04-.01-.04-.03-.07-.04-.11l-.16.07z" style="clip-path:url(#SVGID_00000012433103678100009110000006540348042367672207_)"/><path class="st3" d="M-5.72 76.08c-.07-.01-.13-.03-.2-.04l-.3.13c.04.08.07.2.09.33.17.03.34.07.51.1-.02-.2-.05-.38-.1-.52z" style="clip-path:url(#SVGID_00000012433103678100009110000006540348042367672207_)"/><path style="clip-path:url(#SVGID_00000012433103678100009110000006540348042367672207_);fill:#f2c7aa" d="M13.48 34.41 32.6 29.3l-.91 11.15-14.06 1.6z"/><path class="st8" d="M13.8 34.71c-.23.43-.91 1.6-.99 2.87-.13 2.22.57 3.2 2.77 4.79.75-.53 1.59-.59 1.79-.72l.62-3.53.14.01c-1.57-1.01-3.07-2.24-4.33-3.42zM33.91 39.64c.31-.48 1.3-2.21.91-3.97-.25-1.11-1.01-2.04-2.25-2.77-.65 1.27-1.4 2.47-2.23 3.52l1.02 2.26c.18.07 1.21.45 2.55.96z" style="clip-path:url(#SVGID_00000012433103678100009110000006540348042367672207_)"/><path class="st3" d="m32.38 40.41-.47-1.05-.42-.16.15-.4s.01 0 .03.01l-1.02-2.26c-.1.12-.2.25-.3.37L32 40.58l.38-.17zM30.29 36.31l-.39.17.14.31c.1-.12.2-.24.3-.37l-.05-.11zM18.12 38.08c.09.06.18.11.27.17l.01-.14-.28-.03zM34.82 35.67c.39 1.76-.6 3.48-.91 3.97.13.05.27.1.41.15.39-.61 1.33-2.36.92-4.21-.28-1.24-1.11-2.27-2.48-3.06-.06.13-.13.25-.19.38 1.25.73 2.01 1.66 2.25 2.77z" style="clip-path:url(#SVGID_00000012433103678100009110000006540348042367672207_)"/><path class="st3" d="M32.38 32.79c.06.04.13.07.19.11.06-.13.13-.25.19-.38-.06-.03-.12-.07-.18-.1l-.2.37zM13.03 37.39c.08-1.25.54-2.26.77-2.68-.11-.1-.22-.2-.32-.3-.22.39-.77 1.5-.87 2.94-.1 1.6-.19 3.23 2.6 5.28.13-.09.25-.18.37-.26-2.2-1.57-2.68-2.79-2.55-4.98z" style="clip-path:url(#SVGID_00000012433103678100009110000006540348042367672207_)"/><path class="st3" d="m13.92 34.49-.18-.12.18.12-.18-.12-.18-.12c-.01.01-.04.06-.09.15.11.1.21.2.32.3l.13-.21zM30.14 37.19l-.38.17.14.31.3-.36-.06-.12zM18.12 38.94c.09.06.18.11.26.16l.01-.14-.27-.02zM32.21 33.72c.06.04.13.07.19.11.06-.12.13-.25.19-.38-.06-.03-.12-.07-.17-.1l-.21.37zM13.98 35.4l-.18-.11.18.11-.18-.11-.18-.11c-.01.01-.04.06-.09.15.1.1.21.2.32.3.08-.16.13-.23.13-.23z" style="clip-path:url(#SVGID_00000012433103678100009110000006540348042367672207_)"/><path class="st7" d="M31.19 15.95c-.21.04-2.07-2.14-4.38-3.85-2.08-1.54-4.59-2.62-5.62-2.76-.42 1.33-1.45 3.77-3.96 7.01-.23.17-1.06.67-1.2 1.29-.04.24-1.88 2.26-2.3 2.68-1.61 1.46-3.43 2.06-4.57 2.64l.37 5.37.05.36c-.04.07.23-.13.09-.14-.24-.01-.48-.3-.76-.95l-.04-.09c-.36-.85-.88-2.81-1.58-2.9-.22-.03-.95.14-1.17.42-1.19 1.52-1.03 4.03-.16 6.01.01.03 1.42 2.97 3.62 3.19 1.53.16 2.38-.1 2.77-.27-1.06-1.18-1.76-2.05-1.85-2.15l.26-.21c.06.08 6.04 7.87 10.13 9.37.04.02 3.96 1.24 6.33-.45 2.36-1.69 6.4-7.22 7.21-9.85l.01-.02c1.74-3.63 1.9-7.67 1.83-9.77l.28-.35c-.06-.04-2.56-1.99-5.36-4.58zm-9.15 6.94c.31.37.41 1.25.51 2.1.04.36.08.71.13.97.09.44.26.48.98.55.32.03.73.08 1.24.18.44.09.75.31.94.66.44.79.02 1.94.01 1.99l-.15-.06c.08.03.15.06.15.06-.5 1.04-1.37 1.87-2.37 2.43.91-.63 1.68-1.5 2.07-2.55.01-.03.38-1.06.01-1.72-.14-.26-.38-.42-.72-.49-.49-.11-.89-.15-1.2-.18-.7-.07-1.13-.12-1.27-.81-.06-.27-.09-.62-.14-.99-.08-.72.53-1.68.28-1.98l-.47-.16zm-5.71 5.54c-.47.08-1 .02-1.61-.24-1.79-.76-2.69-2.15-2.63-3.09l-1.83-1.26s-.27-.19.06-.41c.23-.05.84.33.84.33s.28.1.46-.25.81-1.5 3.38-1.86c2.57-.36 3.78.39 4.51 1.12.37.38.11.51-.08.56.09.35.4 1.87-.62 3.21-.66.85-1.42 1.72-2.48 1.89zm5.81 8.04c1.66 1.13 2.71.58 4.14-.76-1 1.74-2.83 2.35-4.14.76zm4.46-1.45c-2.32 1.33-5.32 1.13-7.6-.17.53.21 1.08.38 1.64.51l-.08-.06c.98-1.3 2.12-2.05 3.4-2.22 1.94-.26 2.7.92 2.77.97l.58.31c.68-.46.34.08-.71.66zm6.92-15.22-1.34 1.78c.36.87-.04 2.48-1.5 3.77-.49.44-.97.66-1.45.74-1.06.17-2.06-.4-2.96-1.01-1.39-.94-1.58-2.48-1.61-2.84-.19.02-.48-.03-.25-.5.45-.93 1.37-2.03 3.91-2.51 2.55-.48 3.51.41 3.8.68.28.27.51.09.51.09s.46-.55.69-.58c.4.11.2.38.2.38z" style="clip-path:url(#SVGID_00000012433103678100009110000006540348042367672207_)"/><path class="st10" d="M19.01 23.24c-.11-.15-.84-1.08-2.52-1.11-3.12-.1-4.07 2.59-4.16 2.86-.05.84.83 2.1 2.43 2.78 1.59.67 2.56-.06 3.7-1.56.96-1.28.6-2.77.55-2.97zm-3.05 3.25s-1.7.35-2.14-1.43c-.29-1.19.44-1.89.96-2.23.28-.18.6-.27.93-.27.67 0 1.86.16 2.05 1.33.27 1.64-.76 2.59-1.8 2.6z" style="clip-path:url(#SVGID_00000012433103678100009110000006540348042367672207_)"/><path class="st5" d="M34.67 28.68c1.11-.13 2.38-.8 3.29-1.76.98-1.03 1.48-2.31 1.4-3.58-.15-2.42-2.22-5.32-3.06-6.4.39 3.06.1 7.68-1.63 11.74z" style="clip-path:url(#SVGID_00000012433103678100009110000006540348042367672207_)"/><path d="m35.29 28.52.2-.03c1.27-3.99 1.2-8.43.64-11.34.03-1.27-.34-.39-.35-.4l.22-.21c-.25-1.07-.58-1.88-.92-2.28l-.25.21c.57.68 1.2 2.92 1.33 5.92.09.1.15.17.18.2l-.17.15c.06 2.11-.1 6.14-1.83 9.77l-.01.02c-.8 2.63-4.84 8.16-7.21 9.85-2.36 1.69-6.17.19-6.22.17-4.09-1.5-10.18-9.01-10.24-9.09l-.26.21c.08.1.79.97 1.85 2.15.17-.08.25-.14.25-.14l.21.25a.93.93 0 0 1-.23.14c2.17 2.38 5.61 5.8 8.3 6.78.12.05 2.37.94 4.54.58.69-.11 1.38-.36 1.99-.79 2.45-1.76 6.48-7.27 7.33-10.01.28-.59.52-1.19.74-1.81-.01 0-.03 0-.04.01l-.05-.31zM29.12 14.06c.33.28.66.59.74.68.26.29.89.8 1.29 1.13.47.38.84.33.88.33.05 0-.89-.77-1.12-.99-.06-.06-1.06-.98-1.22-1.11-2.89-2.51-6.15-4.87-8.51-5.22-.03.1-.06.2-.09.32 2.18.3 5.24 2.47 8.03 4.86z" style="clip-path:url(#SVGID_00000012433103678100009110000006540348042367672207_)"/><path d="M31.27 15.92c2.92 2.45 5.3 4.86 5.35 4.91l-.05-.21v-.04l-.03-.31c-.6-.6-2.49-2.44-4.85-4.43-.13.01-.27.04-.42.08zM17.14 16.21c2.51-3.24 3.54-5.68 3.96-7.01l-.25-.03.02-.33c.11.01.21.02.32.04.13-.48.17-.75.18-.8l-.33-.04c0 .04-.45 3.18-4.27 8.09.13.02.25.04.35.07.01.01.01.01.02.01z" style="clip-path:url(#SVGID_00000012433103678100009110000006540348042367672207_)"/><path d="M14.83 18.93c.15-.2 1.73-1.94 2.34-2.76.37-.51-.32-.06-.36-.06-.04 0-2.35 2.79-2.39 2.78-.32.35-.66.7-1.01 1.05-4.5 4.09-7.37 3.89-7.4 3.89l-.03.33c.04 0 .32.02.82-.06.54-.09 1.34-.3 2.36-.78l-.01-.17.33-.03v.04c1.15-.59 2.55-1.52 4.17-2.98.41-.42.8-.84 1.18-1.25zM20.84 9.17l.25.03c.04-.11.07-.22.09-.32-.11-.02-.22-.03-.32-.04l-.02.33zM39.1 21.2c-.79-2.44-2.45-4.74-2.54-4.86l-.02.02c.03.2.06.4.08.61.7 1.05 2.43 3.85 2.58 6.18.08 1.22-.31 2.43-1.09 3.41-.73.91-1.75 1.54-2.65 1.65-.04.11-.08.23-.12.34.03 0 .06 0 .1-.01 1-.09 2.1-.76 2.9-1.76a5.232 5.232 0 0 0 1.16-3.65 7.79 7.79 0 0 0-.24-1.39c.01-.17-.17-.36-.16-.54z" style="clip-path:url(#SVGID_00000012433103678100009110000006540348042367672207_)"/><path d="m38.14 19.71-.03-.62-.25.17c.01.01.12.18.28.45zM3.38 18.52c.82-8.74 6.48-13.84 11.5-15.7 2.55-.9 3.93.01 3.95.02l.14-.2-.17-.18c-.49-.24-1.86-.71-4.04.06-1.54.57-4.52 1.98-7.19 5.06-2.6 3-4.13 6.67-4.53 10.91-.87 9.39 1.83 9.8 1.96 9.81 0-.11.01-.22.02-.33-.25-.06-2.45-.89-1.64-9.45z" style="clip-path:url(#SVGID_00000012433103678100009110000006540348042367672207_)"/><path d="M35.3 12.57c-1.78-4.95-5.26-8.82-9.32-10.35-4.15-1.57-6.99.15-7.12.23.11.08.17.14.18.15l-.06.06-.18.19c.03-.02 3.05-1.84 7.05-.32 3.97 1.5 7.38 5.3 9.13 10.16 1.62 4.51 1.33 8.65.89 11.52.05.19.09.37.12.56l.03.37c.5-2.92 1.03-7.71-.72-12.57zM9.49 34.11c-2.2-.22-3.61-3.16-3.62-3.19-.87-1.98-.68-4.15.51-5.67.22-.28.43-.41.65-.38.7.09 1.38 1.67 1.75 2.51l.04.09c.28.64.51.94.76.95.13.01.23-.08.27-.15l.02-.04-.39-5.06c-.11.06-.21.11-.32.16l.36 4.72c-.08-.07-.21-.25-.4-.7l-.04-.09c-.42-.97-1.12-2.59-2.01-2.71-.34-.04-.66.13-.95.5-.65.83-1.02 1.85-1.1 2.92h.02L5 28.3c-.02.91.17 1.85.57 2.75.06.13 1.5 3.14 3.89 3.38.85.09 1.51.05 2-.03.5-.08.83-.21 1.03-.31-.08-.09-.16-.17-.23-.25-.39.17-1.24.42-2.77.27z" style="clip-path:url(#SVGID_00000012433103678100009110000006540348042367672207_)"/><path d="M12.5 33.7s-.08.06-.25.14c.08.08.15.17.23.25a.93.93 0 0 0 .23-.14l-.21-.25zM10.54 21.25l-.01.17c.11-.03.22-.07.34-.1v-.04l-.33-.03zM5.71 25.35s-.01 0-.02-.01c-.03.11-.05.21-.07.32l.09-.31zM25.63 29.05c-.38 1.04-1.16 1.92-2.07 2.55 1-.56 1.88-1.39 2.38-2.43 0 0-.07-.08-.16-.05l-.15-.07z" style="clip-path:url(#SVGID_00000012433103678100009110000006540348042367672207_)"/><path d="M25.86 27.35c-.19-.34-.51-.56-.94-.66-.51-.11-.91-.15-1.24-.19-.72-.08-.89-.11-.98-.55-.05-.26-.09-.6-.13-.97-.09-.83-.16-1.65-.45-2.03a.149.149 0 0 0-.08-.03c-.06.01-.12.08-.12.08-.05.05-.07.12-.03.19.2.37.29 1.17.36 1.82.04.37.08.72.14.99.14.7.56.74 1.27.81.32.03.71.07 1.2.18.34.07.62.22.72.49.26.71 0 1.69-.01 1.72 0 0 .08.03.15.06l.15.06c.02-.03.43-1.18-.01-1.97z" style="clip-path:url(#SVGID_00000012433103678100009110000006540348042367672207_)"/><path d="m25.44 29.08.15.06a4.1 4.1 0 0 0-.15-.06zM19.33 23.19c-.08.02-.14.02-.14.02s-.44-.85-1.86-1.2c-1.42-.35-2.97.02-3.7.75-.74.73-1.53 1.87-1.62 2.21l-.01-.01c-.06.94.84 2.33 2.63 3.09.61.26 1.14.32 1.61.24 1.06-.17 1.83-1.04 2.48-1.9 1.02-1.34.7-2.86.61-3.2zm-.87 3c-1.14 1.5-2.11 2.24-3.7 1.56-1.6-.68-2.49-1.94-2.43-2.78.09-.26 1.04-2.96 4.16-2.86 1.68.03 2.42.97 2.52 1.11.05.22.41 1.71-.55 2.97z" style="clip-path:url(#SVGID_00000012433103678100009110000006540348042367672207_)"/><path d="M15.71 22.56c-.33 0-.65.09-.93.27-.52.33-1.25 1.04-.96 2.23.44 1.78 2.14 1.43 2.14 1.43 1.04-.01 2.08-.96 1.81-2.6-.2-1.17-1.38-1.33-2.06-1.33zm1.44 2.77c-.22.32-.57.71-1.05.79-.02 0-.04.01-.07.01-.41.04-.85-.15-1.29-.58-.01-.01-.89-.96-.22-1.96.66-1 1.82-.77 2.43-.37.21.14.36.38.43.7.09.46 0 1.07-.23 1.41z" style="clip-path:url(#SVGID_00000012433103678100009110000006540348042367672207_)"/><path class="st11" d="M15.1 23.47c-.01 0-.01-.01-.02-.01l.02.01z" style="clip-path:url(#SVGID_00000012433103678100009110000006540348042367672207_)"/><path class="st11" d="m16.45 23.15.12.12c.6.8.58 1.55-.06 2.22l-.01.01c-.08.08-.27.2-.51.24-.09.02-.19.02-.29 0-.3-.05-.54-.27-.71-.64-.43-.97.02-1.61.06-1.66a.254.254 0 0 1-.13-.14c-.11.09-.21.2-.3.34-.61.92.17 1.77.21 1.82.42.4.82.59 1.2.55.47-.05.82-.43 1.04-.75.21-.31.3-.89.21-1.33-.04-.2-.14-.48-.38-.63-.12-.08-.27-.15-.44-.21 0 .02 0 .04-.01.06z" style="clip-path:url(#SVGID_00000012433103678100009110000006540348042367672207_)"/><path class="st11" d="M14.52 23.58c-.66 1 .21 1.95.22 1.96.44.43.87.62 1.29.58.02 0 .04-.01.07-.01.48-.08.83-.47 1.05-.79.23-.34.32-.94.23-1.41-.07-.32-.21-.56-.43-.7-.61-.4-1.76-.63-2.43.37zm2.58 1.72c-.32.48-1.13 1.36-2.32.2 0 0-.86-.92-.22-1.89.1-.16.22-.28.35-.38.11-.26 1.06-.48 1.45-.22.21.06.4.15.56.25.6.39.51 1.55.18 2.04z" style="clip-path:url(#SVGID_00000012433103678100009110000006540348042367672207_)"/><path class="st11" d="M16.37 23c.01.01.02.01.03.01 0 0 .05.03.06.07.17.06.32.14.44.21.24.15.34.43.38.63.09.45 0 1.02-.21 1.33-.21.31-.56.7-1.04.75-.38.04-.78-.15-1.2-.55-.04-.05-.82-.9-.21-1.82.09-.14.19-.25.3-.34 0-.01-.01-.03-.01-.04 0-.01.01-.02.01-.03-.12.1-.24.22-.35.38-.65.97.22 1.89.22 1.89 1.19 1.16 1.99.28 2.32-.2.32-.48.42-1.65-.18-2.04-.16-.09-.36-.18-.56-.25z" style="clip-path:url(#SVGID_00000012433103678100009110000006540348042367672207_)"/><path d="M15.14 23.5c0 .01-.46.63-.05 1.56.15.34.36.53.62.57.33.06.64-.13.7-.2l.01-.01c.22-.23.9-.95.06-2.08-.04-.04-.07-.08-.1-.11-.04.03-.1.06-.19.09-.15.04-.15.05-.15.05l.15.84c.01.07.01.15 0 .22-.03.14-.1.34-.29.31-.35-.02-.54-1.21-.54-1.21s-.14-.01-.27-.06l.05.03z" style="clip-path:url(#SVGID_00000012433103678100009110000006540348042367672207_)"/><path d="M16.42 23.19c.03.03.07.07.1.11.89 1.19.12 1.96-.07 2.16-.15.16-.98.59-1.42-.38-.43-.97.06-1.61.06-1.61l-.01-.01c-.01-.01-.02-.01-.03-.02-.04.05-.49.69-.06 1.66.16.37.4.58.71.64.1.02.2.01.29 0 .23-.04.43-.16.51-.24l.01-.01c.64-.67.66-1.42.06-2.22a.679.679 0 0 0-.12-.12c0 .01-.01.03-.03.04z" style="clip-path:url(#SVGID_00000012433103678100009110000006540348042367672207_)"/><path d="M16.48 23.34c.85 1.13.17 1.84-.06 2.08l-.01.01c-.07.07-.37.26-.7.2-.27-.05-.48-.24-.62-.57-.41-.93.04-1.55.05-1.56l-.04-.03s-.49.64-.06 1.61c.43.97 1.27.54 1.42.38.2-.21.97-.97.07-2.16-.04-.04-.07-.08-.1-.11l-.04.04c.02.03.06.07.09.11z" style="clip-path:url(#SVGID_00000012433103678100009110000006540348042367672207_)"/><path class="st10" d="M15.05 23.44c.01.01.02.02.03.02l-.03-.02z" style="clip-path:url(#SVGID_00000012433103678100009110000006540348042367672207_)"/><path d="M12.01 24.9c.01-.03 1.02-3.22 4.49-3.11 1.97.04 2.77 1.23 2.8 1.28l.01.02.01.02c0 .01.01.03.02.07.18-.05.45-.18.08-.56-.73-.74-1.94-1.49-4.51-1.12-2.57.36-3.2 1.51-3.38 1.86-.18.35-.46.25-.46.25s-.61-.38-.84-.33c-.33.22-.06.41-.06.41L12 24.96v-.03l.01-.03z" style="clip-path:url(#SVGID_00000012433103678100009110000006540348042367672207_)"/><path d="M13.63 22.76c.74-.73 2.28-1.1 3.7-.75 1.42.35 1.86 1.2 1.86 1.2s.06 0 .14-.02c-.01-.04-.02-.06-.02-.07l-.01-.02-.01-.02c-.03-.05-.83-1.25-2.8-1.28-3.46-.11-4.48 3.08-4.49 3.11v.06l.01.01c.09-.35.89-1.49 1.62-2.22z" style="clip-path:url(#SVGID_00000012433103678100009110000006540348042367672207_)"/><path class="st11" d="M16.5 23.23v-.21s-.38-.2-.87-.12c-.49.08-.7.21-.79.41-.09.19.48.44.48.44l1.18-.52z" style="clip-path:url(#SVGID_00000012433103678100009110000006540348042367672207_)"/><ellipse transform="rotate(-9.341 15.878 23.966)" cx="15.88" cy="23.97" rx=".97" ry="1.04" style="clip-path:url(#SVGID_00000012433103678100009110000006540348042367672207_)"/><g style="clip-path:url(#SVGID_00000012433103678100009110000006540348042367672207_)"><path class="st10" d="M15.84 22.96v.01l.88.58c.01 0 .01 0 .02-.01l.03-.02c.06-.03.11-.07.15-.13-.18-.2-.39-.32-.61-.38-.16-.03-.32-.05-.47-.05zM15.4 23.07c.04-.03.08-.06.12-.08-.03.01-.07.01-.11.02-.01.02-.01.04-.01.06z"/><path class="st10" d="M16.92 23.34c-.08-.27-.99-.61-1.41-.4.47-.08 1.01-.01 1.41.4z"/><path class="st10" d="M15.41 23.01c.04-.01.08-.02.12-.02.19-.1.31-.07.32-.07l-.01.04c.15 0 .31.02.46.06.22.06.43.19.61.38.01-.01.01-.02.02-.04 0-.01-.01-.02-.01-.03-.4-.4-.94-.48-1.41-.4-.01 0-.02.01-.03.01 0 .01-.05.03-.07.07z"/><path class="st10" d="M15.46 23.16c.04.03.09.07.17.11.14.05.14.07.14.07l-.1.4a.78.78 0 0 0-.03.22c.01.14.06.34.25.34.35.03.53-.72.53-.72s.14.01.28-.03l-.88-.58-.01.05c.01.01-.13-.02-.35.14z"/><path class="st10" d="M15.43 23.12c.25-.19.41-.14.41-.14v-.01c-.11 0-.21.01-.31.03-.04.02-.08.05-.12.08 0 0 0 .02.02.04z"/><path class="st10" d="M15.85 22.92c-.01 0-.13-.03-.32.07.1-.02.2-.03.31-.03l.01-.04z"/><path class="st10" d="M15.43 23.12c.01.01.02.03.04.04.22-.16.36-.13.36-.13l.01-.05c-.01-.01-.17-.05-.41.14z"/></g><path class="st7" d="M21.09 23.77c.41 2.49-1.82 4.93-4.97 5.45-3.16.52-5.88-1.42-6.29-3.92s1.17-3.28 4.33-3.8 6.52-.22 6.93 2.27zM31.95 25.39l1.89-6.21-2.61-1.22-6.17 1.01s-1.52 2.02-1.52 2.28 1.11 4.17 1.11 4.17l4.73 2.9 2.57-2.93z" style="clip-path:url(#SVGID_00000012433103678100009110000006540348042367672207_)"/><g style="clip-path:url(#SVGID_00000012433103678100009110000006540348042367672207_)"><path d="M19.47 24.84a.272.272 0 0 1-.24-.09c-.01-.01-.76-.92-2.05-.98-1.18-.05-2.44.6-3.74 1.95-.1.1-.26.1-.36.01-.1-.1-.1-.26-.01-.36 1.41-1.46 2.81-2.17 4.14-2.1 1.52.07 2.38 1.13 2.42 1.17.09.11.07.27-.04.36-.03.02-.07.03-.12.04z"/><path d="M13.63 25.27c.02-.14.06-.31.01-.45-.3.28-.33.03-.33.03s-1.26-.79-1.49-.75c-.34.2-.19.47-.19.47l1.42 1.11c.15.12.38.08.47-.08.06-.1.1-.22.11-.33z"/><path d="M17.34 23.29s-2.9-.66-4.86 1.54c.42.55 1.16.37 1.16.37s.28-.58 1.4-1.13c.5-.25 1.77-.64 2.3-.78z"/></g><g style="clip-path:url(#SVGID_00000012433103678100009110000006540348042367672207_)"><path d="M25.34 24.08c.09-.01.17-.08.2-.17 0-.01.42-1.12 1.62-1.58 1.1-.43 2.5-.21 4.17.65.13.07.28.02.35-.11.07-.13.02-.28-.11-.35-1.81-.93-3.35-1.15-4.6-.66-1.42.56-1.89 1.83-1.91 1.88-.05.13.02.28.15.33.04.02.08.02.13.01z"/><path d="M31.01 22.62c-.06-.13-.15-.28-.15-.42.38.17.32-.08.32-.08s.94-1.15 1.17-1.19c.39.08.34.39.34.39l-.99 1.5c-.11.16-.33.2-.48.07a.79.79 0 0 1-.21-.27z"/><path d="M26.86 21.93s2.53-1.55 5.09-.09c-.22.66-.98.73-.98.73s-.45-.46-1.69-.63c-.54-.08-1.87-.05-2.42-.01z"/></g><path transform="rotate(-9.341 23.817 35.686)" style="clip-path:url(#SVGID_00000012433103678100009110000006540348042367672207_);fill:#f2c7aa" d="M18.95 32.75h9.75v5.88h-9.75z"/><g style="clip-path:url(#SVGID_00000012433103678100009110000006540348042367672207_)"><path class="st11" d="M24.08 18.94c.29.76 2.37-.95 4.6-.94 2.17.02 3.18.55 4.04 1.43.13.14.31-.06.23-.25-.61-1.31-1.79-2.39-3.27-2.75-2.71-.65-4.18-.05-5.05.74-.37.35-.64 1.54-.55 1.77z" id="XMLID_00000044899184264327351970000008313470559942203781_"/><path d="M32.84 19.63a.274.274 0 0 1-.23-.09c-.82-.84-1.76-1.37-3.93-1.38-1.09-.01-2.15.41-2.99.74-.7.28-1.21.48-1.52.34a.407.407 0 0 1-.23-.25c-.12-.31-.06-1.33.59-1.93 1.18-1.08 2.88-1.33 5.19-.78 1.45.35 2.71 1.41 3.37 2.83.08.17.03.36-.11.46-.05.04-.09.06-.14.06zm-4.62-1.76c.15-.01.3-.02.46-.02 2.25.02 3.29.59 4.13 1.46 0-.01 0-.03-.01-.05-.62-1.34-1.81-2.33-3.17-2.66-2.2-.53-3.8-.3-4.91.71-.58.52-.58 1.42-.51 1.59.02.05.04.07.07.08.2.09.72-.12 1.29-.35.72-.3 1.66-.68 2.65-.76z" id="XMLID_00000129911565028749406830000005004547607013119908_"/></g><g style="clip-path:url(#SVGID_00000012433103678100009110000006540348042367672207_)"><path class="st11" d="M18.91 19.79c-.04.81-2.55-.15-4.66.59-2.05.71-2.84 1.54-3.37 2.65-.08.17-.31.04-.29-.16.16-1.43.93-2.84 2.22-3.65 2.36-1.48 3.94-1.38 5.02-.91.45.19 1.09 1.24 1.08 1.48z" id="XMLID_00000073706163193881499700000003400839551970214299_"/><path d="M10.68 23.25a.366.366 0 0 1-.25-.4c.17-1.56 1.03-2.97 2.29-3.76 2.01-1.26 3.7-1.57 5.16-.92.81.35 1.19 1.31 1.18 1.64a.43.43 0 0 1-.14.31c-.25.23-.8.2-1.55.16-.91-.05-2.04-.11-3.07.25-2.05.71-2.78 1.51-3.28 2.57a.3.3 0 0 1-.19.16c-.05 0-.1 0-.15-.01zm6.7-3.29c.6.03 1.17.06 1.33-.08.02-.02.04-.04.04-.09.01-.18-.28-1.03-.99-1.34-1.36-.6-2.96-.3-4.87.9-1.18.74-1.99 2.07-2.15 3.53 0 .02 0 .04.01.05.52-1.09 1.32-1.96 3.45-2.7.15-.05.29-.09.44-.13.96-.23 1.98-.18 2.74-.14z" id="XMLID_00000076582791599940700130000006544381751696720524_"/></g><g style="clip-path:url(#SVGID_00000012433103678100009110000006540348042367672207_)"><path class="st14" d="M24.36 33.51c-1.16.02-3.33.2-4.37 1.27 1.03.46 2.54.87 3.83.9 1.27.03 2.56-.28 3.52-.76.07-.03.1-.13.16-.17-.15-.13-1.43-1.27-3.14-1.24z"/><path class="st14" d="M27.43 34.78s-.45 1.31-1.52 1.98c-.48.3-1.38.67-2.25.64-1.07-.04-2.15-.59-2.8-1.31-.37-.36-.9-1.15-.9-1.15s3.89 1.09 4.69.84c.8-.25 2.33-.56 2.8-.99"/><path d="M20.92 36.14c1.31 1.76 3.94 1.75 5.48.16-1.99 1.13-3.65 1.18-5.48-.16zM24.36 33.51c1.71-.03 2.74 1.29 2.89 1.44l.33-.16c-.06-.06-1.27-1.65-3.23-1.61-1.28.02-3.43.34-4.55 1.52 0 0 .23.1.31.13 1.04-1.06 3.09-1.29 4.25-1.32z"/><path d="m26.84 35.01-.21.09c-2.01.84-4.21.66-6.21-.13-.08-.02-.3-.13-.3-.13-.47-.2-.89-.41-1.32-.67-.06-.03-.31-.2-.37-.23l.33.26c2.01 1.6 4.84 2.27 7.29 1.41 1.14-.39 2.17-1.08 2.99-1.93-.67.52-1.39.97-2.15 1.31.01-.01 0 0-.05.02z"/></g><path style="clip-path:url(#SVGID_00000012433103678100009110000006540348042367672207_);fill:#111" d="m33.65 39.45-2.15-1.02-.51-1.58h2.85z"/><path class="st8" d="M14.88 2.84C9.86 4.7 4.21 9.79 3.38 18.53c-.81 8.57 1.39 9.39 1.63 9.45.08-1.08.45-2.09 1.1-2.92.29-.38.61-.55.95-.5.89.11 1.59 1.74 2.01 2.71l.04.09c.19.45.33.63.4.7l-.08-5.24c-1.02.48-2.1 1.13-2.64 1.22-.5.08-.71.06-.75.06l-.03-.24c.03 0 2.9.2 7.4-3.89.35-.36.69-.71 1.01-1.05.83-.76 1.62-1.22 2.36-2.76 3.82-4.91 4.27-8.05 4.27-8.09l.33.04c-.01.04-.04.32-.18.8 2.36.35 5.61 2.71 8.51 5.22 1.16 1.04.79.96 1.82 1.64 2.26 2.11 4.06 4.03 4.64 4.66-.13-3.01-.76-5.24-1.33-5.92l.25-.21c.34.4.66 1.21.92 2.28l.02-.02c.11.11 2.21 2.82 3.23 5.2-.03-2.91-.53-7.61-2.87-11.79-2.51-4.51-6.5-7.7-10.65-8.54-4.19-.84-6.68 1.29-6.7 1.31l-.06-.06-.14.2c-.03-.03-1.41-.94-3.96-.04z" style="clip-path:url(#SVGID_00000012433103678100009110000006540348042367672207_)"/><path style="clip-path:url(#SVGID_00000012433103678100009110000006540348042367672207_);fill:none;stroke:#000;stroke-width:.5193;stroke-miterlimit:10" d="M31.36 38.68s-.16 2.21 4.01 3.37"/><path style="clip-path:url(#SVGID_00000012433103678100009110000006540348042367672207_);fill:#111" d="m33.91 39.64-.9 1.24s-1.44-1.13-1.37-2.07 2.27.83 2.27.83z"/><path style="clip-path:url(#SVGID_00000012433103678100009110000006540348042367672207_);fill:#020202" d="m34.32 39.79-1.03 1.43-.5-.32 1.12-1.26.32-.02"/></g><path class="st19" d="M17.92 39.19s2.75 5.09 5.8 5.09 6.33-6.02 6.33-6.02-.59.91-1.78 1.86c-1.84 1.48-5.19 2.82-10.35-.93zM21.14 9.29s.3 4.23-5.38 8.69L21 9.37l.14-.08z"/><path class="st19" d="M21.09 9.19s-.25.35.04.32c2.71-.29 14.42 10.64 15.11 11.05.01 0-10.15-10.56-15.15-11.37z"/><path d="M10.61 43.48s-.16-1.48-.68-3.7c-.21-.88-.83-2.37-1.65-2.73-.76-.33-1.77.13-2.28 1.53-.19.51-.13 1.33-.11 1.88.05 1.21.59 3.57.59 3.57L2.3 45.04s-3.57.64-.96 3.51c0 0-1.98 2.01-.19 4.15 0 0-.7.77.26 3.57 0 0-.96 4.07 3.25 3.76 2.56-.19 4.44-.57 5.52-.84a2.82 2.82 0 0 0 1.96-1.7c.3-.77.3-1.7-.91-2.31 0 0 3.13-1.6-.13-3.64 0 0 1.62-1.58.68-3.43-.21-.42-.58-.74-1.01-.92l.4-.13c0 .01 2.18-1.41-.56-3.58z" style="fill:#f2c7aa;stroke:#020202;stroke-width:.3616;stroke-miterlimit:10"/><path class="st21" d="M10.48 47.13c-.26 0-7.4.98-7.4.98l7.32-.77.08-.21zM10.95 51.46c-.26 0-7.32 1.06-7.32 1.06l7.32-.77v-.29zM10.99 54.93c-.25-.03-7.39.25-7.39.25l7.36.05.03-.3zM11.28 58.11c-.25-.03-7.39.25-7.39.25l7.36.05.03-.3z"/></svg>