<svg version="1.1" id="Capa_1" xmlns="http://www.w3.org/2000/svg" x="0" y="0" viewBox="0 0 940.2 1000" style="enable-background:new 0 0 940.2 1000" xml:space="preserve"><style>.st0{fill:#fff}.st1{fill:#e3c0ab}.st2{fill:#be947c}.st3{fill:#010101}.st5{fill:#020202}.st6{fill:#1d1411}.st7{fill:#e5c2ad}.st8{fill:#22b7ce;stroke:#101010;stroke-width:2.05;stroke-miterlimit:10}.st10{fill:#d8a175}.st11{fill:#1d1e1c}.st12{fill:#111}.st13{fill:#592a23}.st14{fill:#22b7ce}.st15{fill:#1d1d1b}</style><g id="Capa_1_00000131356955081364281720000016135262167193757589_"><ellipse class="st0" cx="642.3" cy="269.4" rx="45.6" ry="47.5"/><ellipse class="st0" cx="734.4" cy="260" rx="58.1" ry="65.2"/><path class="st1" d="M219.9 125.8s-131 78.9-132.2 175.6c-.5 42.6 10.6 83.2 26.7 112.5 20.4 37.2 46.7 57.9 46.7 57.9l46.9 26.6s86.9-20 148.2-89.4c0 0 41.4 85.7 71.3-3.3S219.9 125.8 219.9 125.8z"/><path class="st2" d="M170.2 415.7s11.1 24.9 24.9 26.6c13.8 1.7 27.7-13.6 27.7-13.6l-1.1-6.2-51.5-6.8z"/><ellipse class="st0" cx="270" cy="278.7" rx="46.7" ry="31.9"/><ellipse class="st0" cx="142" cy="273.7" rx="36.5" ry="26.3"/><path class="st3" d="M251.7 216.9c4.7-2 9.8-3.1 14.9-3.1 7 .1 13.8 1.8 20.1 4.8 14.1 6.8 21.3 22.7 21.4 22.9v.1c1 2 1.8 4.1 2.3 6.3-.4-.3-.9-.6-1.6-1.1-5.7-4.5-12-8.2-18.8-11a91.05 91.05 0 0 0-39.9-7.3c-1.1-3-2.2-6-3.3-9.2 1.6-.9 3.2-1.7 4.9-2.4z"/><path d="M90.6 267.2h.2v.2l-.2-.2z" style="fill:#24b8ce"/><path class="st5" d="M169.4 313.2c.6-.3 1.2-.6 1.7-.9 1.4-.7 2.9-1.3 4.4-1.8 3.7-1.3 6-2 10.9-14.5 6.6-16.7 6.1-28.6 6.1-28.8-.1-1.5 1-2.8 2.4-2.9 1.5-.1 2.8 1 2.9 2.4v.2c0 .5.6 13.2-6.5 31.1-5.6 14.1-9 15.9-14.2 17.6-1.2.4-2.5.9-3.6 1.5l-1.8.9c-7.8 3.9-22.2 11.2-19.7 27.8v.3c.2 1.6.5 3.3 1 4.8 4 11.6 16.5 19.3 27.4 23.3-14-3.3-29.8-11.4-33.5-26.7-.1-.2-.1-.4-.2-.6v-.4c-2.9-20.3 15-29.4 22.7-33.3zM181.7 432.6c.4.2 1.5 1 1.9 1.3 12.7 8.2 25 3.6 37.4-2.9-4 5.3-9.5 9.1-15.8 11-8.8 2.8-18.5 0-24.3-7.2-1.4-1.7-2.6-3.5-3.5-5.5.4.3.9.6 1.3 1 .9.8 2 1.5 3 2.3z"/><path class="st6" d="M238.2 228.7c-.3-.6.2-2.3.8-3.2 1-1.1 2.1-2.1 3.3-3 1.9-1.5 4-2.7 4.6-3.1.5 1.5 4.6 6.9 3.9 9.1-2.3.1-3 .2-5.6.4-1.5.1-2.9.3-4.4.5-1.8-.1-2.5-.5-2.6-.7z"/><path class="st5" d="m90.6 267.2.2.1v-.2l-.2.1z"/><path class="st3" d="m368.9 508.4 3.9-2.7c-16.3-24.6-.9-66.7-.8-67.2l-4.4-1.7c-.6 1.9-16.3 45 1.3 71.6z"/><path class="st3" d="M220.7 517.2c.7-1.7 1.3-3.5 1.7-5.2.8-5.1.8-10.3.1-15.5-4.9 1.1-10 1.7-15 1.8-3.6.1-7.2-.5-10.5-1.8-13.3-5.7-46.6-22.7-70.6-56.2-10.1-13.3-18.6-29.4-25.3-47.9-6-16.6-10.3-33.8-12.8-51.2-4.4-29.1-3.6-53.9-.3-66.9-1.8 2.8-3.4 5.8-5 8.8-7.9 15.8-13.9 32.6-18.9 49.5 4.7-20.3 10.3-40.6 19.7-59.2 1.3-2.4 2.6-4.8 4.1-7.2.2-13.4 2.1-26.7 5.7-39.6 3.5-13.1 8.6-25.7 15.2-37.6 7-12.4 15.8-23.8 26.1-33.6 6.1-17.4 17.4-33.7 31.8-40.4 15.7-7.4 33.4-6.7 45.5-4.8 7.7 1.1 15.3 3.1 22.6 5.9l-1 2.8c2-.9 4.4-1.8 6.9-2.7 16.9-6.2 34.7-9.7 52.7-10.5 23.8-1 47.5 4.1 68.7 15 26.3 13.4 49.3 35.9 68.5 66.7 12 19.4 20.8 40.6 26.2 62.7 4.9 21 5.8 41 2.5 59.2-4.1 22.5-14.8 43.2-30.7 59.6 1.1 3.9 1.8 8 2.1 12 4.2-4.5 12.2-10.1 25.7-11.1h.1c6.9-.3 15.1 1.9 23 6.1 8.6 4.7 16.1 11.1 22 18.9 14 18.3 17.9 41.6 11 65.7-8.2 28.7-25.9 48-39.2 59.2-6.8 5.7-14.2 10.8-22 15-.4-.5-.8-.9-1.1-1.4 8.1-5.2 15.8-11.1 22.8-17.7 12.3-11.3 27.6-28.9 35.5-56.4 6.5-22.5 2.8-44.4-10.2-61.5-7.4-9.6-17.5-17.1-27.4-20.8-.8-.3-1.5-.5-2.3-.8-3.8-1.3-7.8-1.9-11.9-1.8-17.9 1.5-24.5 11.5-25.7 13.8 0 3-.2 5.9-.6 8.8-1.7 14.6-7.3 28.8-15.3 39-8.6 11-18.8 15.7-28.2 13.1-.4-.1-.9-.3-1.3-.4-6.1-2.3-11.8-5.8-16.6-10.2 0 .1 0 .1-.1.2-.1-.1-.3-.2-.4-.3-1.5-1.2-2.9-2.6-4.1-4.1-2.7-3.1-5.1-6.4-7.2-9.9-2-3.4-3.6-7-4.9-10.7-7.1 9.7-15.3 18.6-24.3 26.6-2 1.9-4.3 3.7-6.5 5.5h.1c0 .3 4.4 32.5 6.8 44.5.2.8.4 1.6.5 2.5.1 1.7.1 3.4-.1 5.1-1.4 7.2-7.2 14-12.1 19.8-1.9 2.1-3.6 4.2-5.2 6.5-5 7.7-35.7 42.9-61 62.8-24.9 19.5-58.7 35.8-59 35.9l-3.6 1.7.3-4c.1-1.9 3-46.6 11.5-64.6 3.5-7.2 7.3-13.7 11-20l3-5.1c.7-1.6 1.5-3.1 2.6-4.5.1-.1.1-.2.2-.3 1.5-2.6 2.8-5.3 4-8.1 0-.1.1-.4.2-.7zM427.3 364c27.4-29.7 35.9-67.5 25.4-112.5-5.2-21.7-13.9-42.4-25.6-61.4h-.1c-34-54.6-78.7-81.4-133-79.5-17.4.7-34.7 4.1-51.1 10.1-7.2 2.5-14.2 5.6-20.9 9.2l-2.3-4.1c3.9-2.1 7.8-4 11.9-5.7-7.5-2.7-38.1-12.1-62.7-.5-12.2 5.7-21.3 15.8-27 30 14.7-12.1 31.4-21.5 49.3-27.7l1.5 4.5c-18.3 6.3-35.3 16-50 28.6-26.8 23.4-38.9 52.6-44.4 73-3 11.2-4.9 22.7-5.4 34.3 5.3-10.7 15.4-24.2 27.3-37.9.1-.1.1-.2.2-.3 9.8-11.3 20.7-22.7 31-32.8 22.7-22.2 54.4-49.3 72.4-56.4 1.1-.4 2.3-.8 3.4-1.1l2.7-.7.2 2.8c1.9 26.8 7 53.2 15.1 78.7 1.4-.8 2.9-1.5 4.4-2.1 8.4-3.6 21.9-6.1 38.9 1.8 15.5 7.5 23.1 24.1 23.6 25.2.7 1.5 1.4 3.1 1.9 4.7 1 2.9 1.9 6.5-.2 8.2-.6.5-1.4.8-2.2.8-2.2 0-4.6-1.8-5.7-2.7l-.1-.1c-.2-.2-21.4-18.1-53.9-17.4 11.6 29.9 28.3 57.5 49.4 81.6 26.8 30.3 52.7 45.2 59.4 48.8 4.3-6.2 19.9-26.6 37.4-26.6 9 0 16.9 5.3 23.6 15.8 2.3 3.6 4.2 7.4 5.6 11.4zM412 433.4c15.1-19.3 21.4-53.7 6-78-5.8-9.1-12.4-13.7-19.7-13.7-17.7 0-30.4 18.1-34.7 26.2l-2.7-4.3c-1.2-.6 27.9-15.6-3.8-51.4-1.7-1.9-22.6 21.7-24.3 19.7 7.3 2-16.7-10.1-24.6-10.9 5.7-.3-19.1-11.3-18.2-12.5-9-11.2-17.1-23.2-24.3-35.7-4.2-7.4-8.2-15.1-11.8-23-3.4 1.1-6.6 2.6-9.7 4.3 4 2.3 14.8 9.2 20.4 19.3 1.3 2.3 2.3 4.8 2.9 7.5 1.6 7.2-4.2 16.1-9.2 23l-.5.4-1.3-.5c1.1-1 2.1-2 3.1-3.1 4.4-6 5.8-12.1 4.4-18.1-3.4-14.9-22.8-25.1-23-25.2-.1-.1-.3-.2-.4-.3l-.5.4c-1.5 1-3 2.2-4.4 3.4 4.2 2.4 23.2 14.5 20.6 29-.8 5.3-2.6 9.2-5.4 11.9-.4-.2-.9-.4-1.4-.5-1.1-.5-2.2-.9-3.3-1.4.2 0 .5-.1.7-.3 3.1-2.1 5-5.7 5.8-11.1 2.3-13.3-19.4-25.5-19.6-25.6l-.3-.2c-5 5-8.1 11.5-8.8 18.5-.3 3.3 4 8.3 9 12.4-8.3-4.6-14-9.2-13.7-12.8 1-11.1 7.4-20.8 18.2-28.1 4.4-2.9 9.2-5.3 14.2-7.1-1.7-3.9-3.4-8-4.9-12-1.9.1-3.8.4-5.7.6h-.1c-3.4 0-5.7-1-6.8-3.1-1.9-3.4.7-7.8 1-8.3l.1-.2.1-.1c1.8-1.9 3.7-3.6 5.9-5.1-8.1-25.3-13.2-51.5-15.4-78-14.3 5.5-42.1 27.2-71.1 55.5-9.6 9.4-18.4 18.7-26.3 27.5 1-.2 2.3-.3 3.5-.5-1.1 1.8-2.3 3.6-3.6 5.3-2.3.4-4 .7-4.9.9-2 2.3-3.8 4.5-5.6 6.7-.8.9-3 4-3.5 4.4-10.3 13-17.3 24.1-19.7 31.5l-.1.3c-4.3 9.3-6.1 36.9-1.2 69.9 3.4 22.3 12.6 64.6 37.2 96.9l.1.1c23.3 32.6 55.8 49.1 68.7 54.7 13.8 5.9 47.9-8.1 48.3-8.3l.1-.1c14.6-5.9 28.8-13 42.3-21.2 21-12.7 49.4-33.6 65.6-61.5l4 2.4c-1 1.8-2.1 3.5-3.3 5.3 1.7 6.1 9.1 27 31.2 35.4 7.5 2.8 16.5-1.2 24.4-11.2zm-98.4 81.3c5.9-6.9 13.2-15.4 10.8-22.8l-.1-.3c-2-10.1-5.4-34.2-6.5-42.3-8.2 6.4-16.7 12.2-25.6 17.6-13.7 8.3-28.1 15.5-43 21.5-7.1 2.9-14.3 5.3-21.7 7.2.9 5.8.8 11.7-.1 17.4v.2c-2 8.1-7.1 16.5-12.3 25.5-3.6 6.1-7.4 12.6-10.8 19.7-6.7 14-9.9 47.1-10.8 58.7 9.3-4.7 34.8-18.1 54.6-33.6 24.5-19.2 55.2-54.3 59.9-61.7 1.8-2.5 3.6-4.8 5.6-7.1zm-4.8-267.9c.5.4 1 .8 1.6 1.1-.6-2.2-1.4-4.3-2.4-6.3v-.1c-.1-.2-7.3-16.1-21.3-22.9-6.2-3.1-13.1-4.7-20.1-4.8-5.1 0-10.2 1.1-14.9 3.1-1.7.7-3.3 1.5-4.8 2.4 1 3.1 2.1 6.1 3.3 9.2 13.7-.5 27.3 2 39.9 7.4 6.7 2.8 13 6.4 18.7 10.9zm-63.6-18c-.8-2.2-1.6-4.5-2.4-6.7-1.4 1-2.6 2.2-3.8 3.4-.5 1-1.1 2.7-.8 3.3.1.2.8.6 2.6.6 1.4-.3 2.9-.5 4.4-.6z"/><path class="st3" d="M498.3 398c13.1 17.1 16.7 38.9 10.2 61.5-7.9 27.5-23.2 45.1-35.5 56.4-7 6.6-14.7 12.5-22.8 17.7-.6-.8-1.1-1.6-1.6-2.5 7.8-4.2 15.1-9.2 21.9-14.9 12.8-10.7 29.7-29.3 37.6-56.8 6.5-22.5 2.8-44.4-10.2-61.5-7.3-9.5-17.3-16.9-27-20.6 9.9 3.5 20 11 27.4 20.7z"/><path d="M497.9 397.8c13.1 17.1 16.7 38.9 10.2 61.5-7.9 27.5-24.8 46.1-37.6 56.8-6.8 5.7-14.1 10.7-21.9 14.9.4.9 1 1.7 1.6 2.5-14.1 8.8-22 9.2-24.5 10.4-2.3-3-4.8-5.8-7.4-8.4-3.2-3.9-6.6-7.6-10.2-11-3.5-3.3-7.4-6.3-11.5-8.8-.3-.2-.4-.4-.4-.4l-.3-.1c-8.2-4.9-16.3-7.2-23.9-6.6-3.1-3.8-5.4-8.1-6.8-12.8-8-31.5 2.9-51.4 3.8-56.8 4.8 4.3 10.3 7.6 16.3 9.9.1 0 .3.1.4.1.4.2.9.3 1.3.4 9.5 2.9 19.8-1.8 28.6-13 8-10.2 13.5-24.4 15.3-39 .3-2.9.5-5.9.6-8.8 1.2-2.2 7.8-12.3 25.7-13.7 3.9-.1 7.8.4 11.5 1.7.7.2 1.5.5 2.3.8 9.6 3.5 19.6 10.9 26.9 20.4z"/><path class="st3" d="M470.9 715.2v1.9l-1.8.4c-7.7 1.7-15.2 3.1-22.3 4.3l.2-.9 20.2-6.5c-.6-107.9-42.7-168.2-61.8-189.9 4.7 3.2 9 6.8 13 10.8 25.4 31.3 51.5 92.6 52.5 179.9z"/><path class="st3" d="M335.3 720.5c-5-1.1-8.7-2.2-11-3-1.8-.5-2.7-.9-2.7-.9l-1.3-.5-.2-1.4c-.1-.8-11.2-80.7 4.5-134.7 10.5-52.2 39.3-68.1 45.3-70.9.3.1.6.2.9.4l2.7.6c.5.5 1.1 1 1.6 1.5 4 .4 16.6 3.6 30.2 13 19.1 21.8 61.2 82 61.8 189.9l-20.2 6.5-.2.9c-53.3 8.7-92.1 3-111.4-1.4zm130.9-7.1c-1.5-96.6-33.8-160.3-61.3-185.5-11.3-10.4-22.5-15.5-32.6-14.7-3.2 1.4-32.8 16.1-43.2 67.9l-.1.2c-14.3 49.1-6 120.5-4.6 131.4 8.8 2.9 60.8 18.4 141.8.7z"/><path class="st7" d="M321.2 793.1h.7l5.4-34 8-38.7c19.3 4.4 58.1 10.1 111.4 1.4l-22 90.4c-6.3 17.4-21.2 50.6-52.6 83.8-20.9 1.2-41.8-.9-62.1-6.1 0 0-79.4-23.6-115.6-46.6v-.1l86.9-40.4c12.2-6.8 26-10.2 39.9-9.7z"/><path class="st8" d="M405 527.9c27.4 25.3 59.8 88.9 61.3 185.5-81 17.8-133.1 2.2-141.7-.7-1.4-10.9-9.8-82.3 4.6-131.4l.1-.2c10.4-51.8 40-66.5 43.2-67.9 9.9-.9 21.2 4.3 32.5 14.7zM444.7 1010.7l-352.5 8.5 24.6-82.5s24.4-52.3 24.4-66.4h-.2l3.3-3.6 50.2-23.4v.1c36.2 23 115.6 46.6 115.6 46.6 20.3 5.2 41.2 7.3 62.1 6.1 31.4-33.1 46.3-66.3 52.6-83.8l-4.3 18c-.1 0-7.3 130.3 24.2 180.4z"/><path class="st3" d="M408.1 524.4c3.7 3.4 7.1 7.1 10.2 11-4-4-8.3-7.6-13-10.8-2.7-3.2-5.7-6.2-8.8-9.1 4.2 2.6 8 5.6 11.6 8.9z"/><path class="st3" d="M405.3 524.6c-13.7-9.4-26.3-12.6-30.2-13-.6-.5-1.1-1-1.6-1.5l22.4 5 .7.4c3 2.9 6 5.9 8.7 9.1z"/><path d="m396.5 515.5-.7-.4.3.1s.2.1.4.3z"/><path class="st3" d="m395.8 515.1-22.4-5c-.4-.4-.9-1-1.5-1.6 7.7-.6 15.7 1.6 23.9 6.6zM385.6 448.9c-.1-.1-.3-.1-.4-.1-6-2.3-11.5-5.6-16.3-9.9 0-.1 0-.1.1-.2 4.9 4.4 10.5 7.8 16.6 10.2z"/><path class="st3" d="m373.5 510.1-2.7-.6c-.3-.1-.6-.2-.9-.4.6-.3.9-.4 1-.5l.3-.1.3-.1h.4c.6.7 1.1 1.3 1.6 1.7z"/><path class="st8" d="M369.9 509.1c-6 2.8-34.8 18.8-45.3 70.9-15.7 54-4.6 133.9-4.5 134.7l.2 1.4 1.3.5c.1 0 1 .4 2.7.9 2.3.7 6 1.8 11 3l-8 38.7 1.7-10.7-41.3-11.3s-37.7-6.5-70.4 7.1c0 0-14.8 4.1-34.3 9.1-17.8-3-29.3-6.5-36.6-9.4-.8-3-1.9-5.9-3.3-8.7 0 0-35.3-33.7-33.7-51.2 0 0-19.9-54.2 110.8-165.9-1.2 2.8-2.5 5.5-4 8.1 0 .1-.1.2-.2.3-1 1.4-1.9 2.9-2.6 4.5l-3 5.1c-3.7 6.3-7.5 12.8-11 20-8.5 17.9-11.4 62.6-11.5 64.6l-.3 4 3.6-1.7c.3-.2 34.2-16.5 59-35.9 25.3-19.9 56-55.1 61-62.8 1.6-2.3 3.3-4.5 5.2-6.5 4.9-5.8 10.8-12.6 12.1-19.8l.4.1c.3-.1 21.6 3.3 41 10.9z"/><path class="st7" d="M67.3 770.8c16.8.4 33.6-.3 50.4-1.9 44.9-4.6 67-15.2 67-15.2l-1.6-.3c19.5-5 34.3-9.1 34.3-9.1 32.7-13.5 70.4-7.1 70.4-7.1l41.3 11.3-1.7 10.7-4.4 21.1-1.8 12.9c-13.9-.5-27.7 2.9-39.8 9.8l-86.9 40.4-50.2 23.4-3.3 3.6-67.2 17.9s-83.3 8.5-61.6-89.3c0 0 7.5-20 19.2-47.5 4.6-2.3 9.8-3 14.8-2 7.5 5.8 13.8 13.1 18.3 21.4 1-.2 1.9-.1 2.8-.1zM324.4 491.9c2.4 7.4-4.9 15.9-10.8 22.8-2 2.2-3.9 4.6-5.6 7.1-4.7 7.3-35.4 42.5-59.9 61.7-19.7 15.5-45.3 28.9-54.6 33.6.9-11.6 4.1-44.7 10.8-58.7 3.4-7.1 7.2-13.5 10.8-19.7 5.3-9 10.2-17.4 12.3-25.5v-.2c.9-5.8.9-11.6.1-17.4 7.4-1.9 14.7-4.3 21.7-7.2 14.9-6 29.2-13.2 42.9-21.5 8.9-5.4 17.4-11.2 25.6-17.6 1.1 8.1 4.5 32.1 6.5 42.3l.2.3z"/><path class="st0" d="M278.4 310.8c-11.2.6-26-.9-22.3-5.2l1.6-1.4c7.4 2.7 14.7 5 20.7 6.6z"/><path d="M256.5 303.8c-4.1 3.6-8.4 5.5-12.9 5.7-5.3.2-8.1-3.2-6-3.2 4.8 0 8.5-1 11.4-3 .7-.5 1.4-1 2-1.7 1.8.7 3.6 1.5 5.5 2.2z" style="fill:#f3f2f3"/><path class="st3" d="M246.3 299.7c-2.6.6-8.2-2.4-13.1-6.3 3.8 2.1 8.3 4.3 13.1 6.3z"/><path class="st8" d="M220.7 517.2c-.1.3-.3.6-.4.9C89.6 629.8 109.5 684 109.5 684c-1.6 17.5 33.7 51.2 33.7 51.2 1.4 2.8 2.5 5.7 3.3 8.7-8.6-3.4-11.3-6-11.3-6-24.8-30-62.1-66.7-62.1-66.7l-3.4-.1c11.8-21.9 24.4-42 36.5-55.7-.1-.1 24.6-48.6 114.5-98.2z"/><path class="st10" d="m183.1 753.3 1.6.3s-22 10.7-67 15.2c19.3-3.9 44.9-10.2 65.4-15.5z"/><path class="st7" d="M50.7 708.4c3.1-6.5 6.3-13 9.6-19.5 3.1-6 6.1-12 9.3-17.9l3.4.1s37.3 36.7 62.1 66.7c0 0 2.7 2.6 11.3 6 7.3 2.9 18.8 6.4 36.6 9.4-20.4 5.3-46 11.6-65.4 15.5 0 0-26.8-1.8-50.4 1.9h-2.8c-4.6-8.3-10.8-15.6-18.3-21.4-5-1-10.2-.2-14.8 2 3.7-8.7 7.8-18 12.2-27.6 2.4-4.8 4.8-10 7.2-15.2z"/><path class="st10" d="M67.3 770.8c23.6-3.7 50.4-1.9 50.4-1.9-16.7 1.6-33.5 2.2-50.4 1.9z"/><path class="st7" d="M69.6 671c-3.2 5.9-6.3 11.9-9.3 17.9l-1-.5s-6.3-3.6-40.8 0c2.4-7 5.4-13.2 8.8-16.3 0 0-2.3-3 42.3-1.1z"/><path class="st7" d="m59.3 688.4 1 .5c-3.3 6.5-6.5 13.1-9.6 19.5-6-1.1-22.2-3.2-38.1 1.1 1.5-7.2 3.5-14.2 5.8-21.1 34.5-3.6 40.9 0 40.9 0z"/><path class="st7" d="M50.7 708.4c-2.5 5.2-4.8 10.3-7.2 15.4-7.9-.7-23.9-1.1-33.4 5.4H10c.1-2.9.3-5.9.6-9.2 0 0 .7-4.3 2-10.5 15.9-4.2 32.1-2.1 38.1-1.1z"/><path class="st7" d="M43.6 723.8c-4.4 9.6-8.5 18.9-12.2 27.5-4.9 2.4-10.1 6.8-14.3 15.2 0 0-8.4-3.3-7-37.3h.2c9.4-6.5 25.4-6.1 33.3-5.4z"/><path d="M369.1 511.3c-19-7.5-40-10.9-40.2-10.9l.7-4.6c.2 0 21.7 3.5 41.1 11.2l-1.6 4.3zM395.7 517.5l-.3-.1.1-.6-.5.5-.3-.3 1-1.3.6-2.9.8.2.4.4.5.4-2.2 2.5-.1 1.2zM426.9 812.9l-4.3-1.2 21.9-90.4 4.4 1.2z"/><path d="m89.1 1021.5 25.6-85.9c7.7-16.5 21.6-48.8 23.8-62.2L74 890.5c-1.4.1-34.7 3.2-54.3-19.7-13.6-16-16.9-40.4-9.8-72.6l.1-.3c.1-.2 7.7-20.4 19.3-47.6l4.1 1.9c-11 25.8-18.4 45.3-19.1 47.2-6.7 30.5-3.8 53.5 8.8 68.2 17.4 20.4 47.8 18.3 50.3 18.1l69.8-18.5.1 3c0 14.1-22.8 63.4-24.5 67.2l-23.6 79.3 345.5-8.3c-29.2-52.3-22.9-173-22.6-178.3l.1-.4 4.4-17.9 4.4 1.1-4.3 17.7c-.3 6-6.2 130.9 24 178.7l2.2 3.5-359.8 8.7zM71.6 672.2l-3.9-2.3c13.3-24.6 25.6-43.5 36.6-56 2.3-4.4 28.4-50.8 115.4-98.8l3.1-1.7 2.1 4.1c-1 .6-2 1.1-3.1 1.7-88.1 48.6-113.5 96.6-113.8 97.1l-.3.5c-10.7 12.3-22.9 30.9-36.1 55.4z"/><path d="m141.2 873.5-3.3-3.2 5-5.4.4-.2 137-63.7c12-6.9 25.8-10.4 39.7-10.1l6.4-40.6-39.3-10.8c-.2 0-37.2-6.1-68.9 7l-.3.1c-.1 0-15 4.1-34.3 9.1l-1.1-4.5c18.3-4.7 32.6-8.6 34.1-9 32.9-13.6 69.9-7.4 71.5-7.2l43.5 11.9-7.7 48.9-2.1-.2h-.5c-13.5-.4-26.8 2.8-38.6 9.5l-.3.1-136.7 63.6-4.5 4.7zM38.4 784.2l-3.1-3.4c5.8-5.9 16.5-10 31.8-12.4l.7 4.6c-14.4 2.3-24.3 6-29.4 11.2z"/><path d="m319.9 819.2-4.5-.6 5.3-38.6 12.4-60 4.4 1-12.4 59.8z"/><path class="st11" d="m426.9 813.1-4.2-1.6c1.5-4.1 2.8-8.2 3.8-12.4l4.4 1c-1.1 4.5-2.4 8.8-4 13z"/><path d="M422.5 812.3h4.5z"/><path class="st11" d="M361.5 898.8c-17.5 0-35-2.1-52-6.5-.9-.3-80.1-24-116.2-46.8l2.4-4c35.6 22.5 114.2 46.1 115 46.3 28.4 7.6 55.4 6.4 60.5 6.1 30.7-32.8 45.4-65.6 51.5-82.3l4.2 1.6c-6.1 17.2-21.3 51-53.1 84.6l-.6.6-.8.1c-.1 0-4.2.3-10.9.3z"/><path d="M144.3 744.5c-.7-2.7-1.7-5.4-2.9-7.9-3.6-3.5-35.2-34.4-34.1-52.3-1.9-6.3-13.5-61 111.7-168l1.5-1.2 2.9 3.6-1.5 1.3C94.4 628.8 111.4 682.7 111.6 683.2l.2.5v.5c-1.3 13.4 23.4 40.1 32.9 49.3l.3.3.2.3c1.5 2.9 2.7 6 3.5 9.2l-4.4 1.2z"/><path d="M76.1 773.2c-2.9 0-5.8 0-8.8-.1-.9 0-1.8 0-2.8-.1h-1.3l-.6-1.2c-4.3-7.8-10.2-14.7-17.3-20.3-4.4-.7-8.9 0-12.9 1.9-5.4 2.6-9.9 7.4-13.3 14.2l-.9 1.8-1.9-.7c-1.7-.6-9.8-5.6-8.5-39.6.1-2.9.3-5.9.6-9.3.1-.4.8-4.7 2.1-10.8 1.5-7.3 3.5-14.4 5.8-21.4 2.8-8 5.8-13.7 8.9-16.8.8-1.6 2.5-4 44.4-2.2l4.3.2.6.6c.4.4 37.6 37 62.2 66.7.4.4 3.3 2.6 10.5 5.5 9 3.6 21.2 6.7 36.1 9.2l8.8 1.5-6.6 3.2c-.9.5-22.9 10.9-67.7 15.5-13.8 1.5-27.7 2.2-41.7 2.2zm-10.2-4.8h1.4c16.7.4 33.5-.3 50.1-1.9 29.3-3 48.8-8.6 58.7-12.1-12.3-2.3-22.5-5.1-30.5-8.4-8.8-3.5-11.7-6.2-12-6.5l-.2-.2c-22.7-27.5-56.3-61-61.3-65.9l-2.6-.1c-31.2-1.3-38.7-.2-40.5.3l-.3.3c-1.8 1.7-4.8 5.7-8.1 15.3-2.3 6.8-4.2 13.8-5.7 20.9-1.3 6-2 10.3-2 10.3-.2 3.1-.4 6.1-.5 8.9-.9 21.8 2.3 30.3 4.2 33.4 3.7-6.3 8.4-10.9 13.9-13.5 5-2.5 10.8-3.3 16.3-2.2l.4.1.4.3c7.4 5.8 13.6 12.9 18.3 21z"/><path class="st11" d="m11.2 730.7-1.9-2.9c9.8-6.8 25.8-6.5 34.4-5.7 2.9.3 4.7.5 4.8.6l-.5 3.5s-1.8-.3-4.6-.5c-8.2-.9-23.3-1.2-32.2 5zM12.9 711.3h-.2v-1.5l-.9-1.8.5-.1c16.2-4.3 32.5-2.2 38.8-1.1 1.7.3 2.6.5 2.6.5l-.8 3.4s-.9-.2-2.4-.5c-6.1-1-21.8-3.1-37.4 1l-.2.1zM17.8 690.2l-.3-3.5.9-.1c34-3.5 41-.2 41.7.2l-1.6 3.1c-.2-.1-7-3.2-39.8.2l-.9.1z"/><path d="M788.9 118.3c21.8 46.4 15.5 82.7 15.5 82.7-1.2 28.3-5.8 61.3-5.8 61.3-2.7-20.6-5.8-38-8.7-51.9v-.2c-4.6-24.4-11.7-50.1-22.3-70.5l-.1.1c-.1-.3-.3-.5-.4-.8.5-.3.7-.5.7-.5 8.8-4.6 16.1-11.6 21.1-20.2z"/><path d="M800.5 52.4s4.9 38.6-11.6 65.9c-.1-.2-.2-.5-.3-.7l-8.2 6.8-14.8 11.8s.6.9 1.6 2.8c-5.3 3.9-38.8 27.1-86.7 30.3 0 0-62.2 1-112-27.1 0 0-11.9 10.5-9.6 14.5 0 0 12.7 32.1 1.4 48.2 0 .1-.1.1-.1.1-.4.5-1 1.1-1.5 1.9l-.1.1c-.3.4-.7.7-1 1-5.7 6.4-8.4 14.8-7.6 23.3 0 0 4.7 32.9 1.4 46.8 0 0-3.8 10.1-7.7-2.7 0 0-7.2-22.5-13.1-34.3 0 0-1.6-1.5-7-3.6-1.2-.8-2.5-1.6-3.8-2.2l-6.9-2s-.6 0-2.2.1c-1.9-.5-3.9-1-6.1-1.5 0 0-14.3-71.6-13.6-92.9 0 0 1.5-24.3 13.1-37 0 0 12.3-21.2 40.3-26.3 0 0 8.1-28.8 36.6-26.8 0 0-2.1-26.4 22.1-39.8 0 0 51.1-17 65.5 10.6 0 0 8.4-16.3 21.5-16.3 0 0 20.3-6.3 37.2 19.3 0 0 3-21.3 23.8-20-.2.1 36.6-2.8 49.4 49.7z"/><path class="st1" d="M798.8 290.8c5.9 76.7-36.2 125.3-36.2 125.3-29.7 33.8-60 37.9-60 37.9-43.1 8.6-67.9-3.1-67.9-3.1-40.6-14.6-64-47.8-64-47.8-20.2-27.2-20.3-67.7-20.3-68.1-41.6-.4-51.1-24.6-51.1-24.6-17.3-33.9-13.9-48.5-13.9-48.5.5-23.6 14.7-27 14.7-27 3.4-.7 6.9-1.2 10.4-1.6 4.4 1.1 8.7 2.5 12.9 4.1 9.5 6.5 9.7 14.9 9.7 14.9 5.5 11 6.6 14.1 6.6 14.1 4 17.2 8.6 16.9 8.6 16.9 6.1 2 3.8-29.3 3.8-29.3.2-15.2-1.3-21.3-1.3-21.3-.8-10.8 2.3-17.6 2.3-17.6 1.6-2.8 3.4-5.5 5.3-8.1l.1-.1c.6-.6 1.1-1.2 1.5-1.9.1 0 .1-.1.1-.1.6-.7 1.3-1.4 2-2 5.5-8.6 2.8-27.3 2.8-27.3-1.2-6.6-2.9-13-5.3-19.2-.5-1.7 2.3-6.1 2.3-6.1l6.8-7.3 11.9 6.3c29.1 13.2 63.1 18.2 63.1 18.2 27.1 4 45.3 2.2 45.3 2.2 18.1-3.3 35.8-8.5 52.9-15.5 9-3.9 17.5-8.7 25.5-14.3 5 9.7 9.1 19.8 12.3 30.2 0 0 4.6 13.8 10.1 40.2v.2c5 26.5 8 53.4 9 80.3zm-17.5-73.4-.3-8.9s-6.5-10.2-27.9-13.4c0 0-21.9-2.6-41.2 7.7l-.6 15.1 18.3-3.6c.1 0 19.3-2.9 51.7 3.1zm-1.5 52.7s5.5-23.8-16.1-37.4c-6.7-2.1-13.8-2.4-20.7-1 0 0-19.8 4.3-24.4 21.2 0 0-4.6 21.9 4.2 30.1 0 0 3.6 6 18.4 11.4 0 0 8.2 2.6 22.5-3 0 0 12.3-4.4 16.1-21.3zM712 389.9c19.6-19.1 9.6-29.4 9.6-29.4-7.4-7.4-20-3.2-20-3.2-10.4 2.6-21.3 3-31.9 1.2-18.4-7-27.5-6.1-27.5-6.1-11.5 2.3-11.3 9.5-11.3 9.5.1 12.6 19.4 28.1 19.4 28.1 2.3 1.1 4.7 2 7.2 2.7h.1c.9.3 1.7.5 2.6.7 15.9 3.9 33.2 1.2 33.2 1.2 14.2-2.2 18.6-4.7 18.6-4.7zm-48.7-173.4 3-13.3s-7.9-4.2-33.5-8.1c0 0-24.3 1.5-51.2 21.4l-.3 11.3s13.3-5.8 24.2-7.9c0-.1 19.1-10.6 57.8-3.4zm-1.7 59.2c1.2-2.7 1.7-5.6 1.7-8.6 0-3.7-.9-7.3-2.7-10.6-2.6-7.9-7.9-14.7-15-19 0 0-8.7-3.3-20.7-1 0 0-19.8 4.3-24.4 21.2 0 0-4.6 21.9 4.2 30.1 0 0 3.6 6 18.4 11.4 0 0 8.1 2.6 22.5-2.9 0-.1 12.1-4.3 16-20.6z"/><path d="M788.6 117.6c.1.2.2.5.3.7-5 8.6-12.3 15.6-21 20.1 0 0-.2.2-.7.5-1-1.9-1.6-2.8-1.6-2.8l14.8-11.8 8.2-6.7zM789.8 210.3c-5.5-26.4-10.1-40.2-10.1-40.2-3.2-10.4-7.3-20.5-12.3-30.2l.1-.1c10.7 20.4 17.7 46.1 22.3 70.5zM780.8 211.5l-.5 8.9c-31.8-8.9-50.7-6.2-50.7-6.2-6.2.7-12.3 1.9-18.3 3.6l1.1-18.2c20.1-8.5 41.6-4 41.6-4 21.2 5.2 26.8 15.9 26.8 15.9z"/><path class="st12" d="M738.5 243.8c11.9-.3 21.8 9.2 22.1 21.1.3 11.9-9.2 21.8-21.1 22.1-11.9.3-21.8-9.2-22.1-21.1v-.5c-.1-11.8 9.4-21.4 21.1-21.6zm11.3 21c-.1-2.6-2.2-4.7-4.8-4.6s-4.7 2.2-4.6 4.8c.1 2.6 2.2 4.6 4.7 4.6 2.6 0 4.8-2.1 4.7-4.8.1 0 .1 0 0 0z"/><ellipse class="st0" cx="763" cy="260.4" rx="4.7" ry="4.8"/><path d="m665.1 198.2 2.3 18.5c-39.3-2.6-60.9 5.2-60.9 5.2-8.3 2.4-16.7 4.3-25.3 5.8l.3-11.3c24.5-22.9 49.3-22.4 49.3-22.4 26 .9 34.3 4.2 34.3 4.2z"/><path class="st12" d="M640.1 257.7c1.9 6 2.3 12.3 1.1 18.4 0 .3-.1.5-.2.8-4.8 11.1-17.6 16.2-28.7 11.4-11.1-4.8-16.2-17.6-11.4-28.7 4.8-11.1 17.6-16.2 28.7-11.4 4.4 2 8.1 5.3 10.5 9.5zm-9 7.6c-.1-2.6-2.2-4.7-4.9-4.7-2.6.1-4.7 2.2-4.7 4.9.1 2.6 2.2 4.7 4.8 4.7 2.6-.1 4.8-2.2 4.8-4.9zM661.8 274.9c1.1-6.1.8-12.5-1.1-18.4 1.7 3.3 2.6 6.9 2.6 10.6 0 3-.6 5.9-1.7 8.6.1-.3.1-.5.2-.8z"/><path class="st0" d="M646.9 259.2c2.7-.1 4.9 2.1 5 4.8s-2.1 4.9-4.8 5c-2.7.1-4.9-2.1-5-4.8v-.1c0-2.7 2.1-4.9 4.8-4.9z"/><path d="M558.5 206.9c.6-.8 1.1-1.4 1.5-1.9-.4.7-.9 1.4-1.5 1.9zM519.6 235.3c1.3.7 2.6 1.4 3.8 2.2-4.2-1.6-8.5-3-12.9-4.1 1.6-.1 2.2-.1 2.2-.1l6.9 2z"/><path d="m560.3 208.4-3.6-2.9c.6-.7 1.1-1.4 1.5-1.9l.2-.3c.6-.7 1.3-1.4 2-2 4.7-7.9 2.3-25.2 2.3-25.4-1.1-6.4-2.9-12.6-5.1-18.7l-.1-.2c-.7-2.3 1-5.6 2.6-8l.2-.3 7.9-8.5 13.4 7c28.3 12.8 62.1 17.9 62.4 18 26.5 3.9 44.6 2.2 44.7 2.2 17.9-3.3 35.4-8.5 52.3-15.4 8.8-3.8 17.2-8.5 25.1-14l2.6 3.8c-8.1 5.7-16.8 10.6-26 14.5-17.2 7-35.1 12.3-53.3 15.6-.9.1-18.9 1.9-46-2.2-.3-.1-34.7-5.3-63.7-18.4l-10.5-5.5-5.4 5.9c-.8 1.3-1.5 2.6-1.9 4.1 2.3 6.3 4.1 12.8 5.3 19.4.1.9 2.7 19.8-3.1 29l-.2.3-.3.2c-.6.5-1.1 1-1.5 1.6l-.1.3-.3.2c-.5.4-.9 1-1.4 1.6z"/><path d="M671.7 459.6c-23.8 0-37.2-6.1-37.9-6.5-40.6-14.5-64-47.1-64.9-48.6-18-24.1-20.3-58.1-20.7-67.2-39.8-1.3-50-23.9-50.9-25.9-16.4-32.1-14.5-47.5-14.1-49.8.6-25 15.8-28.8 16.5-29 4.4-.8 7.9-1.4 10.7-1.6.8-.1 1.6-.1 2.4-.1l.5.1 7.3 2.2c1.4.7 2.7 1.5 4 2.4 9 6.1 10.5 13.9 10.7 16.2 5.3 10.6 6.5 13.8 6.5 13.9l.1.3c2.9 12.6 6 14.8 6.5 15.1h.2c1.5-2.4 2.1-14.5 1.2-26.8.2-14.8-1.3-20.8-1.3-20.9l-.1-.4c-.9-11.3 2.4-18.4 2.5-18.8 1.7-3 3.5-5.8 5.6-8.5l3.5 2.9c-1.9 2.5-3.6 5.1-5.1 7.8 0 0-2.7 6.2-2 16 .3 1.2 1.5 7.7 1.3 21.6.6 7.9 1.5 27.1-3.1 30.8-.9.8-2.1 1-3.2.8-2.2-.2-6.8-2.6-10.4-18.4-.3-.7-1.8-4.3-6.5-13.8l-.2-.5v-.5c0-.3-.4-7.3-8.7-13-1.1-.7-2.2-1.4-3.3-2l-6.4-1.9c-.3 0-.8 0-1.7.1-1.8.2-5 .6-10.1 1.6-.4.1-12.4 3.4-12.9 24.7l-.1.5c0 .1-2.9 14.5 13.7 46.9l.1.2c.4.9 9.6 22.7 49 23.2h2.2v2.3c0 .4.2 40.4 19.8 66.7.3.4 23.6 32.9 63 47 .4.2 24.9 11.3 66.7 3 .4-.1 30-4.5 58.7-37.3.4-.5 41.4-48.8 35.6-123.5-1-26.9-4-53.6-8.9-80.1l4.4-.9c4.9 26.7 7.9 53.7 9 80.8 5.9 76.7-36.3 126.4-36.7 126.9-29.9 34.1-60.1 38.6-61.4 38.7-10.1 2.2-20.6 3.3-31.1 3.3z"/><path d="M707.9 336.2c-1.2 0-2.3-.1-3.5-.3l-18.2-2.7c-3.9-.8-7.6-2-11.2-3.8l1.9-4.2c3.1 1.5 6.5 2.7 9.9 3.4l18.2 2.7c.6.1 15.3 2.2 20-10.9l.1-.3c.1-.3 3.2-6.8-4.1-14.2-2.2-2.2-4.9-3.9-7.9-4.9-6.6-2.4-8-4.6-8.5-6.1l-.1-.6-3.2-44.6 4.5-.3 3.1 44.1c.3.4 1.4 1.5 5.7 3.1 3.6 1.3 6.8 3.3 9.5 6 9.2 9.4 5.6 18.2 5 19.6-3.9 11.1-14.2 14-21.2 14zM659.7 395.6c-.9-.2-1.9-.5-2.8-.7l1.3-4.5c.8.2 1.7.5 2.5.7l-1 4.5z"/><path class="st12" d="M628.7 302.1c-2.1.1-4.1-.2-6.1-.7-13.8-5-18.4-10.6-19.5-12.1-9.4-9.1-4.9-31.1-4.7-32.1 4.9-18.2 25.3-22.8 26.1-23 12.5-2.4 21.5 1 21.9 1.1l.4.2c7.6 4.6 13.3 11.8 16 20.2 2 6.4 2.4 13.1 1.2 19.7 0 .3-.1.6-.2.8-4.2 17.3-16.8 21.9-17.4 22.1-5.7 2.4-11.6 3.7-17.7 3.8zm-4.8-5.1s7.7 2.2 20.9-2.9c.5-.2 11-4.2 14.5-18.9v-.2c.1-.2.1-.3.1-.5 1.1-5.8.7-11.7-1-17.3-2.4-7.3-7.3-13.6-13.8-17.6-6.3-1.9-12.9-2.1-19.3-.9-.1 0-18.5 4.2-22.6 19.5-1.2 5.6-2.8 21.8 3.6 27.7l.4.5c0 .1 3.6 5.6 17.2 10.6zM746.7 297.2c-2.1.1-4.1-.2-6.1-.7-13.8-5-18.4-10.6-19.5-12.1-9.4-9.1-4.9-31.2-4.7-32.1 4.9-18.2 25.3-22.8 26.1-23 12.5-2.4 21.5 1 21.9 1.1l.4.2c22.8 14.3 17.2 39.7 17.1 40-4 17.9-17 22.7-17.6 22.9-5.6 2.4-11.5 3.6-17.6 3.7zm-4.8-5.1s7.7 2.2 20.9-2.9c.5-.2 11.3-4.3 14.7-19.6.2-.9 4.8-22.2-14.9-34.8-6.3-1.9-12.9-2.2-19.3-.9-.1 0-18.4 4.2-22.6 19.6-1.1 5.6-2.8 21.8 3.6 27.7l.4.5s3.6 5.4 17.2 10.4z"/><path class="st3" d="M219.9 281.2c-1.6 14.3 10.3 25.6 23.2 29.4 15.7 4.6 33.9 1.9 49.5-2 2.2-.6 1.3-4-1-3.4-14.1 3.5-30.2 5.9-44.6 2.7-12.6-2.7-25.2-12.5-23.6-26.6.3-2.3-3.3-2.3-3.5-.1z"/><path class="st3" d="M258.4 302.7s-1.9 7.1-11.9 7.3"/><path class="st2" d="M163.2 409.9s26.9-25.8 58.4 12.6c0 0-21 14.1-58.6-10.7"/><path class="st5" d="M163.2 409.9c-3.3-2-6.6-4.1-9.8-6.2 7.6 8.5 16.8 15.4 27.1 20.4 10.5 5 22.5 7.2 34 4.5 13.7-3.2 25.4-12.4 31.8-24.9-6 7.1-13.5 12.7-21.9 16.6-2-3.9-7.8-11.4-24.4-19.5l-.1-.1c-14.2-5.7-23.4-2.8-28.7.6-3.4 2.1-6.1 5.1-8 8.6zm4 2.3c1-2 8.8-16.1 30.7-7.2 14.7 7.2 20 13.7 21.9 16.9-4.1 1.4-8.3 2.1-12.6 2.3-14.3.5-27.5-4.9-40-12z"/><path d="M104.8 272.1c7.5-14.8 23.3-25.4 40-23.6 16.2 1.9 29.5 15.2 34.4 30.6 1.2 3.7 7 2.1 5.8-1.6-4.5-14.1-14.6-26.2-28.1-32-13.3-5.7-28.5-3.7-40.4 4.4-7.1 4.8-12.9 11.4-16.8 19.1-1.9 3.4 3.3 6.5 5.1 3.1z"/><path d="M99 273.3c6.5 16.9 25.8 25.1 42.3 27.3 17.4 2.3 35.5-4.9 43.1-21.8.8-1.8-1.8-3.3-2.6-1.5-7.2 16.1-24.3 22.7-40.8 20.3-14.9-2.2-33.2-9.6-39.2-25-.6-1.9-3.5-1.1-2.8.7z"/><path class="st13" d="M169 258.6s-24.9 9.2-13.2 39.8l-7.4.9c-7.7-17-5.3-36.9 6.3-51.6l14.3 10.9z"/><path d="M145.4 300.2c-4.4-7.8-4.6-17.4-3.4-26.3 1.3-9.9 4.7-19.4 10-27.9.5-.8 1.5-1 2.2-.5.8.5 1 1.5.5 2.2-4.9 7.6-8.1 16.2-9.5 25.1-1.3 8.5-1.4 18 2.8 25.5 1.2 2-1.5 3.8-2.6 1.9z"/><path class="st3" d="M153 274.2c-2.3 10.8-4.9 22 3.1 24.2 7.9 2.2 23.4-5.4 25.7-16.2 2.3-10.8-2.2-21.4-10.2-23.6s-16.2 4.8-18.6 15.6z"/><path class="st0" d="M165.1 282.6c6.1 3.1 12.9-9.9 12.9-9.9s-7.9-10.2-8.3-9.9c-7.3 5.6-10.7 16.8-4.6 19.8z"/><path class="st1" d="m823.8 697.8 48.5 3.4s11.1-18 26.4-24.9c0 0 11.5-3.9 20.7 10.8 5.4 20.3 9.4 41 12 61.9 0 0 3.4 34.8-19.2 60.1 0 0-5.5 13.5-48.6 10.4 0 0-9.7-2.5-25.6-7.7-30.7-10-60.7-22.1-89.8-36.3l-104.8-54.8c-16.2-6.1-24.7-4.4-24.7-4.4l12.8 49.6-18.6-60.1.9-.2s.4-6.5-1.8-17.6c61.1-37.3 99.7-18.6 99.7-18.6l90.3 25.5 12.1 1.7 3.8.9 5.9.3z"/><path class="st1" d="M930 660.7c1 16-1.5 23.4-1.5 23.4-1.7 14.5-7.7 5.5-7.7 5.5-.5-.9-1-1.8-1.5-2.5-1.8-6.6-2.9-10.4-2.9-10.4l-15.6-21.8c8.6-.2 20.4.6 28 5.9l1.2-.1z"/><path class="st1" d="m930 660.7-1.1.1c-7.6-5.3-19.4-6.1-28-5.9l-11.3-15.8c7.4-1.1 22.3-2.4 36.9 1.5l.7-.1c1.4 6.6 2.3 13.4 2.8 20.2z"/><path class="st1" d="m927.3 640.4-.7.1c-14.6-3.9-29.5-2.6-36.9-1.5l-13.2-18.5 2.2-1.7s6.6-3.7 42.7.1l1.2-.3c.7 3.2.9 5.3.9 5.3 1.5 6.1 2.8 11.6 3.8 16.5z"/><path class="st1" d="m922.5 618.7-1.2.3c-36.1-3.8-42.7-.1-42.7-.1l-2.2 1.7-11.3-15.8c12.9-11.2 19.2-7.9 19.2-7.9l30.1.9c4.6 6.9 7 15.5 8.1 20.9z"/><path class="st1" d="m900.9 654.9 15.6 21.8s1.2 3.8 2.9 10.4c-9.2-14.7-20.7-10.8-20.7-10.8-15.4 7-26.4 24.9-26.4 24.9l-48.5-3.4-9.8-1.3-43.6-10.7c29.8-11.6 36.1-14.2 36.1-14.2 3.4-2.1 6.5-4.5 9.4-7.2 15.2-13.8 28.9-36 28.9-36 8-11.5 14.8-18.9 20.3-23.7l11.3 15.8 13.2 18.5 11.3 15.9z"/><path class="st8" d="m855.2 591 9.8 13.7c-5.5 4.8-12.3 12.2-20.3 23.7 0 0-13.7 22.2-28.9 36l-.3-.4s-5.6-146.1-98.8-187.4v-.1s13.7-2 46 7.8l23 15c36.7 23.1 53.3 49.3 69 90.3.2.5.4 1 .5 1.4zM838 811.7c4.4 19 23.6 107.2 19.5 193.5 0 0-182.9 32.5-364.7 0 0 0 31.8-145 10.2-251.8l2.6-1.8c4 7.9 6.5 12.5 6.5 12.5 23.3 61.8 52.3 75.7 52.3 75.7 79 4.1 183.8-64.4 183.8-64.4 29.1 14.2 59.1 26.3 89.8 36.3z"/><path class="st14" d="m815.5 664.1.3.4c-2.9 2.7-6 5.1-9.4 7.2 0 0-6.3 2.6-36.1 14.2l43.6 10.7-12.1-1.7-90.3-25.5s-38.6-18.6-99.6 18.6c-1.5-7.5-3.6-14.8-6.3-21.9 0 0-22.1-100.6-75.1-167.3 7.4-3.5 24-10.6 60.2-23.3l-.2 3.8 116.7 88.2c28.1-64.4 8.9-81.5 8.9-81.5l-1.1-9.9.4-.1c.4.2.8.3 1.1.5 93.4 41.4 99 187.6 99 187.6z"/><path class="st1" d="m643.4 720.7 104.8 54.8S643.4 844 564.4 839.9c0 0-29-13.9-52.3-75.7 0 0-2.5-4.7-6.5-12.5-3.5-7-8.3-16.6-13.3-27.7 31.9-2.3 75.1-7.3 120.5-18.1l18.6 60.1-12.8-49.7c.1 0 8.6-1.7 24.8 4.4zM590.7 475.5l2.3-49.6s2.2 2.4 18.8 14.4c0 0 19.4 12.3 47.7 17 0 0 10.8 5.7 53.1-5.1l2.6 23.9 1.1 9.9s19.2 17.1-8.9 81.5l-116.7-88.2v-3.8z"/><path class="st8" d="M453.8 603.8s3.1-9.5 8.7-22.9c-3.7 10.7-6.8 21.6-9.3 32.7-.1-3.2.1-6.5.6-9.8zM529.9 498.3c-2.2 1.1-24.7 12.5-43.2 36.6 10.1-15.2 22.2-28.7 35.7-35.3 1.9-1.2 3.9-2.2 6-3.1l1.5 1.8z"/><path class="st8" d="M616 703v.3l-.9.2c-.2 0-.3.1-.5.1l-.9.2-2.2.5c-22.5 5-44.6 8.7-65 11.5 20-2.8 42.1-6.7 64.8-12.1-.1-5.1-.7-10.2-1.8-15.3-1.4-7.3-3.5-14.5-6.1-21.5l-.1-.3c-.2-1-22.3-99.4-73.5-164.9-1.3.6-2.5 1.2-3.6 2l-.4.2c-2.3 1.2-4.6 2.6-6.7 4.2-33.4 24.3-55.9 94.5-57.3 98.6-.2 1.8-.4 3.6-.4 5.4l2 2.3-1.9 3.7-3.4 6.4c-.2.2-.5.4-.7.6-1 .6-3 .8-3-5.7-1.7 7.8-3.3 16.5-4.8 26.1-.6 6.5-.9 13.9-.9 22.3 0 42.4-1.7 53.4-1.7 53.4l41.4-.3h5.1l.3.5-2.5.2s0 .1.1.1c.4.8.7 1.5 1 2.3l-2.5.2c-30.5 2.1-50 1.7-50 1.7 1.9-49.6 7.5-86.1 13.4-112.1.2-.9.4-1.7.6-2.5.6-2.5 1.2-4.9 1.8-7.2.1-.5.3-1 .4-1.4l.4-1.4c.2-.9.5-1.8.7-2.7v-.1l.9-3c.2-.6.3-1.1.5-1.7 0-.1.1-.2.1-.3.5-1.6.9-3.1 1.4-4.6.5-1.5 1-3.1 1.5-4.5v-.1c.2-.5.3-1 .5-1.5l.5-1.6c5.6-13.3 13.9-30.5 24.1-46 0 0 0-.1.1-.1.4-.6.8-1.1 1.3-1.6.4-.5.7-.9 1.1-1.3.9-1.1 1.8-2.2 2.7-3.2.2-.2.3-.4.5-.6.5-.6 1-1.2 1.6-1.7 1.1-1.2 2.3-2.4 3.4-3.6l.9-.9.9-.9c.6-.6 1.2-1.1 1.8-1.7l1.3-1.3c.4-.4.9-.8 1.3-1.2.7-.6 1.3-1.2 2-1.8l1.9-1.6 1.3-1 1.3-1 1.3-1 1.2-1 1.6-1.2c.5-.3.9-.7 1.4-1l1.3-1 .2-.2 1-.7.9-.6c.1 0 .2-.1.2-.2l1-.7c2.5-1.6 4.6-2.9 6.2-3.8l.8-.5s.1-.1.2-.1c.3-.2.6-.3.9-.5.3-.1.4-.2.6-.3.5-.3.9-.5 1.1-.6.2.2.3.4.5.6l1.5 1.9c2 2.5 4 5.1 5.9 7.7l.4.6.1.1.1.2c40.6 55.2 61.6 126.1 67.4 147.8.1.2.1.4.2.6.1.4.2.7.3 1v.2c0 .2.1.4.2.6.2.7.3 1.3.5 1.8l.6 2.4c2.6 6.6 4.7 13.3 6.3 20.3.1.6.2 1.1.4 1.6.1.3.1.6.2.9.2.9.3 1.7.5 2.5.4 4.6.9 9.3.9 13.9z"/><path class="st8" d="M471.8 559.7c3.9-8.8 8.9-17.1 14.8-24.7-10.2 15.5-18.4 32.6-24.1 46 5.3-15 9.3-21.3 9.3-21.3zM530.5 498.7l-.2.1c-.1-.2-.3-.4-.5-.6l.2-.1c.2.3.4.5.5.6z"/><path d="m708.2 571.1-120-90.7.2-5 2.5-54.9 3.7 3.9c.1.1 2.7 2.7 18.4 14.1 14.5 8.3 30.3 13.9 46.7 16.6l.7.2c.1 0 11.2 5 51.5-5.3l2.5-.6 3.9 35.6c3.4 3.9 16.8 24.4-9 83.5l-1.1 2.6zm-115.3-93 113.5 85.8c25.2-59.4 8.5-76 8.3-76.1l-.6-.6-.1-.9-3.4-31.1c-37.1 9.2-49.3 5.5-51.8 4.4-28.3-4.8-47.4-16.8-48.2-17.3-8.1-5.9-12.8-9.5-15.5-11.7l-2.2 47.5z"/><path d="M455.1 609c-.1 1.9-.1 3.8 0 5.9l-3.5 6.3c-.2.2-.5.4-.7.5-.7-5.3-.8-10.7-.4-16 0-.3 0-.7.1-1 .1-.6.1-1.3.2-1.9l.1-.4c.1-.4.6-1.9 1.4-4.1 3.6-10.2 13.9-37.1 29.1-60.9v-.1c.5-.8 1.1-1.7 1.6-2.5v-.1c3.9-5.9 8.2-11.5 12.8-16.8v.1c7.2-8.2 15.2-15 23.8-19.2 1.7-1 3.5-2 5.4-2.7.2-.1.5-.2.8-.3l1.7-.8c8.5-3.7 25.6-10.4 59.6-21.6.5-.2 1-.3 1.5-.5l.8-.3.1.2 1.3 4.3-.2.1c-.2.1-.3.1-.5.2l-.8.3c-.8.3-1.6.5-2.4.8-31.2 10.4-47.6 16.7-56.3 20.4l-2.3 1-.1.1c-.1.1-.3.1-.4.2l-1.7.8c-1.3.6-2.6 1.2-3.8 2l-.4.2c-2.4 1.2-4.8 2.6-7 4.1-34.7 23.8-58.1 92.7-59.5 96.7-.2 1.5-.3 3.3-.3 5zM752.9 775.2l-2.2 1.4-1.2.8-1 .7c-11 7-103.6 64.2-177.1 64.3-2.3 0-4.6-.1-6.9-.2h-.5l-.4-.2c-1.2-.6-29.7-14.9-53-75.8-.1-.3-.2-.6-.4-1-.5-.8-2.8-5.3-6.3-12.2l-.1-.2-1.2-2.4c-4.1-8.3-7.9-16.1-11.5-23.9l-.7-1.5c-.1-.3-.3-.6-.4-.8-.3-.8-.7-1.5-1-2.3-.2-.3-.3-.7-.5-1h5.1l.3.5s0 .1.1.1c.2.5.5 1 .7 1.5.1.3.3.6.4.8.4.8.7 1.5 1 2.3 3.7 7.9 7.6 16 11.8 24.5 3.9 7.7 6.5 12.4 6.5 12.5l.1.3c21.2 56.2 47.3 72.3 50.7 74.2 69.2 3.2 159.6-50.2 178.4-61.8l-101-52.8c-10.2-3.9-17.3-4.5-20.8-4.4l12.1 46.8-4.5 1.3-16.6-58.3-.7-2.4-.5-1.7-.2-.6 1-7.3 1.2 3.9 1 3.3 1.2 3.9 2 6.5.4-.1c.4-.1 9.3-1.8 26 4.5l.3.1 104.7 54.8 3.7 1.9zM898.7 710.6l-97.4-13.4-90.7-25.7c-.4-.2-38.4-17.5-97.5 18.5-.4.2-.8.4-1.2.7v-2.8c1.8-1.2-3-1-1.2-2 59.9-36.5 98.2-20.4 101.6-18.8l90 25.4 97 13.3-.6 4.8zM784.6 501.4c37.3 23.5 53.2 50.5 68 89.2l.5 1.3 12.3 17.2c.6-.9 1.3-1.7 2-2.4.4-.4.8-.7 1.2-1.1l-11.3-15.7-.4-1c-15.2-39.6-31.6-67.2-69.9-91.5l-23-15-.6-.3c-32.5-9.9-46.5-8-47-7.9l.7 4.7c.1 0 13.7-1.8 44.8 7.7l22.7 14.8z"/><path d="m921.6 686.4-.5-1.9c-1.3-.9-2.5-1.8-3.6-2.9-1.5-1.5-2.7-3.3-3.8-5.1l-.3-.6-.4.1 1.3 1.8c.3 1.1 1.4 4.6 2.8 9.9 5.4 20.2 9.4 40.7 11.9 61.5 0 .3 3.1 34-18.6 58.2l-.4.6c-.1.1-6.1 11.9-46.1 9.1-1.5-.4-10.9-2.9-25.3-7.6-30.6-10-60.5-22-89.5-36.1l-2 4.3c29.2 14.2 59.3 26.3 90.1 36.4 15.8 5.1 25.6 7.7 25.8 7.7l.4.1c4.4.3 8.5.5 12.2.5 30.2 0 37.2-9.4 38.5-11.9 22.8-25.7 19.7-60.2 19.5-61.7-2.5-21.2-6.5-41.9-12-62.4z"/><path d="m873.5 703.7-56.3-3.9-54.8-13.4 7.1-2.8c27-10.5 34.7-13.6 35.9-14.1 3.2-2 6.1-4.3 8.9-6.8 14.8-13.5 28.4-35.3 28.5-35.5 7.4-10.6 14.3-18.7 20.8-24.3 12-10.4 19.1-9.2 21.1-8.5l30.9.9.7 1c5.1 7.7 7.5 17.1 8.5 21.9.6 2.7.9 4.7.9 5.3 1.5 5.5 2.8 11 3.9 16.4 1.4 6.8 2.3 13.7 2.8 20.6 1 14.8-1 22.5-1.5 24.1-.5 3.9-1.5 9.1-5.1 10-3.5.9-6.1-2.9-6.7-3.7-.6-1-1-1.9-1.5-2.6-7.7-12.3-16.8-10.1-17.9-9.8-14.5 6.7-25.2 23.8-25.3 24l-.9 1.2zm-55.3-8.6 53 3.7c2.8-4.2 13-18.4 26.6-24.6.7-.3 13.5-4.4 23.6 11.7.5.8 1 1.7 1.5 2.7.4.6 1 1.2 1.7 1.5 0-.1 1-1 1.6-6.1l.1-.5c0-.1 2.3-7.3 1.3-22.4-.5-6.7-1.4-13.4-2.7-19.9-1-5.3-2.3-10.8-3.8-16.2l-.1-.4s-.2-2-.9-5.1c-.9-4.3-3-12.4-7.2-19.3l-29.4-.9-.5-.2s-5.4-2-16.6 7.6c-6.1 5.3-12.8 13.1-19.9 23.3-.5.8-14 22.5-29.3 36.4-3 2.8-6.3 5.3-9.8 7.5l-.3.2c-.1 0-5.5 2.3-29 11.5l40.1 9.5zM667.7 1021.9c-54.2 0-114.9-3.6-175.2-14.3l-2.4-.4.5-2.5c.3-1.4 31.8-155.5 10.6-260.5l6.5 6.4c19.9 98.4-8 233.1-12.1 252.7 168.8 29.7 340.1 3.1 359.6-.1 3.7-86-15.6-174-19.6-190.9-.6-2.4-.9-3.7-.9-3.7l4.5-1.2s.3 1.3.9 3.8c4 17.1 23.7 106.9 19.6 194.2l-.1 1.9-1.8.3c-1.1.2-82.7 14.3-190.1 14.3zM616 703c-.2-4.6-.7-9.3-1.5-13.8-.1-.6-.2-1.1-.3-1.7 0-.3-.1-.5-.2-.8-.2-.8-.3-1.6-.5-2.4-1.4-6.4-3.3-12.7-5.6-18.9-.1-.5-.4-1.8-.9-3.9-.1-.6-.3-1.1-.5-1.8 0-.2-.1-.4-.2-.6v-.2c-.1-.3-.2-.7-.3-1-.1-.2-.1-.4-.2-.6-6.6-25.3-29-102.5-71.6-157.5-.5-.6-1-1.3-1.5-1.9l-.3-.4-1.1-1.5-.4-.6-1.7.8c-.3.1-1.3.6-3 1.6h-.1c-7.6 4.3-14.8 9.3-21.4 15-14.8 12.5-26.7 28.2-34.7 45.9-2.1 3.4-27.7 47-32.3 167.2l-.1 2.4 2.4.1h4.6c7.6 0 24.3-.2 46.5-1.8l1.6-.1.9-.1 2.5-.2c29-2.2 71.7-7.1 116.8-17.8l.7-.2h.2l2.3-.6h.1l.1-1.8c-.3-.2-.2-1.1-.3-2.8zm-122.2 18.4-1.6.1-.9.1-2.5.2c-23.6 1.6-40.6 1.7-46.6 1.6 1-26.2 3.4-52.2 7.4-78.1 1.5-9.6 3.1-18.3 4.8-26.1.7-3.3 1.4-6.4 2.2-9.4.2-.7.4-1.5.6-2.2.6-2.3 1.1-4.4 1.7-6.5 7.6-28.1 14.8-39.9 15-40.1l.2-.3c1.9-4.3 4.1-8.5 6.5-12.6l.1-.2c2.4-4 5-7.8 7.8-11.5 8.1-10.5 17.8-19.7 28.6-27.4.9-.6 1.7-1.2 2.5-1.8 3.2-2.2 6.5-4.2 9.9-6.1.1.2.3.3.4.5 51.2 65.5 73.3 163.9 73.5 164.9l.1.3c2.6 7 4.7 14.2 6.1 21.5 1 5 1.6 10.1 1.8 15.3-22.7 5.4-44.8 9.2-64.8 12.1l-3.6.5c-18.8 2.6-35.6 4.2-49.2 5.2z"/><path class="st14" d="M611.4 703.7c-22.7 5.4-44.8 9.2-64.8 12.1l-3.6.5c-18 2.3-34.6 3.9-49.2 5l-.3-.5h-5.1l-46.1 2.6s-2-10.7 6.5-55.8c1.5-8.2.3-15.8.9-22.3 1.5-9.6 3.1-18.3 4.8-26.1 0 6.5 1.9 6.3 3 5.7.3-.2.5-.3.7-.6l3.4-6.4 1.9-3.7-2-2.2c.1-1.8.2-3.6.4-5.4 1.3-4.1 23.9-74.3 57.2-98.5 2.1-1.6 4.4-2.9 6.7-4.2l.4-.2c1.2-.7 2.4-1.4 3.6-2 51.2 65.5 73.3 163.9 73.5 164.9l.1.3c2.6 7 4.7 14.2 6.1 21.5 1.1 5.1 1.7 10.2 1.9 15.3z"/><path d="M813.2 664.2c0-1.4-6.7-145.1-97.4-185.3-.4-.2-.6-.3-.9-.4l-.3-.1 1.8-4.4.2.1c.3.2.7.3 1 .5 93.3 41.4 100 188 100.1 189.5l-4.5.1z"/><path class="st11" d="M927.9 662.3c-7.3-5.1-18.7-5.8-27-5.6-3.6.1-7.2.4-10.7.9l-.5-3.6c3.7-.5 7.4-.9 11.2-.9 8.8-.2 21 .6 29 6.2l-2 3zM926.1 642.3c-14.2-3.8-28.8-2.6-36.3-1.5-2.9.4-4.7.8-4.7.8l-.7-3.5c.1 0 1.9-.4 4.9-.9 7.7-1.1 22.8-2.4 37.6 1.6l-.8 3.5zM921.1 620.8c-34.3-3.6-41.5-.4-41.8-.3l-1.6-3.2c.7-.4 8.1-3.9 43.7-.1l-.3 3.6z"/><path class="st1" d="M616.6 345.5h121.9v60.2H616.6z"/><path class="st15" d="M680.8 392.4c-29.7 0-46.1-21.6-46.3-22l5.4-4.2-2.7 2.1 2.7-2.1c1.3 1.7 31.4 41.1 86.6 2.3l3.8 5.8c-19.2 13.4-35.8 18.1-49.5 18.1z"/><path class="st15" d="M632.7 372.1c-4.9 0-9-1.7-11.5-5.1l5.4-4.2c2.8 3.9 12.4 3.2 21.8-3.9l4 5.6c-6.5 5-13.7 7.6-19.7 7.6z"/><path class="st0" d="M288.3 280.1c.1 16.4-13.2 29.8-29.6 29.8h-.3c-9.1 0-21-3.7-26.8-8.9-5.6-5-9.4-11.7-7.5-20.9 3.1-15 15.9-30.6 33.6-30.6s30.6 15.2 30.6 30.6z"/><path class="st13" d="M276.4 260.2s-24.4 16.2-6.4 50.3h-12.7s-12.1-18-7.3-39c1.7-7.6 3.6-16.2 8.8-24.7l17.6 13.4z"/><path d="M253.6 310c-6-8.3-7.4-19.1-7.2-29.3.2-11.4 2.9-22.6 7.9-32.8.4-.9 1.5-1.4 2.4-1s1.4 1.5 1 2.4c0 .1-.1.1-.1.2-4.6 9.3-7.1 19.3-7.6 29.6-.5 9.7.7 20.5 6.4 28.4 1.6 2.1-1.3 4.5-2.8 2.5z"/><path class="st3" d="M260.1 280.2c-1.4 13.6-2.9 27.7 8.7 29.5 11.7 1.8 37.8-5.3 39.1-18.9 1.4-13.6-12.5-30.2-24.2-31.9-11.7-1.9-22.2 7.7-23.6 21.3z"/><path class="st0" d="M273.8 290.1c7.3 2.6 13.5-12.9 13.5-12.9s-10.2-10.5-10.6-10.1c-7.8 7.3-10.3 20.4-2.9 23z"/><path class="st3" d="M421.8 352.8c-6.7-10.5-14.6-15.8-23.6-15.8-17.5 0-27.9 20-32.3 26.2-6.8-3.6-37.8-18.1-64.6-48.4-21.1-24.1-37.8-51.7-49.4-81.6 32.5-.7 53.7 17.2 53.9 17.4l.1.1c1.2.9 3.6 2.7 5.8 2.7.8 0 1.6-.3 2.2-.8 2.1-1.8 1.2-5.4.2-8.3-.6-1.6-1.2-3.2-1.9-4.7-.5-1.1-8.1-17.7-23.6-25.2-17-8-30.5-5.4-38.9-1.8-1.5.6-2.9 1.4-4.3 2.2-8.1-25.6-13.2-52-15.1-78.7l-.2-2.8-2.7.7c-17.2 4.5-51.6 33.8-75.8 57.5-10.2 10.1-21.2 21.5-31 32.8-.1.1-.2.2-.2.3-11.9 13.6-22 27.1-27.3 37.8.6-11.6 2.4-23.1 5.5-34.3 5.5-20.4 17.6-49.6 44.4-73 14.7-12.6 31.6-22.3 49.9-28.6l-1.5-4.5c-18 6.2-34.7 15.6-49.3 27.7 5.7-14.2 14.8-24.3 27-30 24.6-11.5 55.2-2.1 62.7.5-4.1 1.7-8 3.6-11.9 5.8l2.3 4.1c.4-.2 31.4-18 72-19.3 54.3-1.8 99 24.9 133 79.5v.1c11.7 19 20.4 39.7 25.6 61.4 10.6 45 2 82.8-25.4 112.5-1.5-4.2-3.4-8-5.6-11.5z"/><path class="st6" d="M166 213.8c3.9 1.1 6.6 2.9 7.8 5.4 1 2.3 1.2 4.9.5 7.3l-.1.3c-.3.8-.8 1.5-1.6 1.9-1.2.7-3.1.6-5.5-.3-15.8-5.8-32.3-7.2-42.2-7.9l-3.5-.3c5.5-5 19.2-8 31.4-8 4.4 0 8.9.5 13.2 1.6z"/><path class="st3" d="m114.6 220.7-.6 1.2.7 1.5c1 1.8 2.7 2 9.9 2.6 9.6.8 25.6 2.1 40.8 7.7 1.7.6 3.5 1 5.2 1 1.6 0 3.2-.4 4.6-1.1 2-1.2 3.5-3 4.1-5.3 1.2-3.8.9-7.9-.7-11.4-2-3.9-5.7-6.7-11.2-8.2-14.5-4.2-47.2-1.2-52.8 12zm6.8-.5c5.5-5 19.2-8 31.4-8 4.4-.1 8.9.4 13.2 1.5 3.9 1.1 6.6 2.9 7.8 5.4 1 2.3 1.2 4.9.5 7.3l-.1.3c-.3.8-.8 1.5-1.6 1.9-1.2.7-3.1.6-5.5-.3-15.8-5.8-32.3-7.2-42.2-7.9l-3.5-.2zM243.5 209.9l10 32.4s1.6-2.6 3-2.8c1.4-.2 10.5-6.1 10.5-6.1l-23.5-23.5z"/><path class="st0" d="M664.1 598.8v-.3c0-.4-.3-.7-.7-.7h-.3c-.1.1-.3.1-.4.2-12.2 12.6-26.8 7-28.1-8v-.6c-.1-.3-.4-.5-.7-.5-.2 0-.5.1-.6.3-.1.1-.2.3-.2.4-7.1 19.7.3 43.5 22.5 66.1.1.1.1.1.2.1.1.1.2.1.3.1.3 0 .6-.3.6-.6v-.1c0-.1-.1-.3-.1-.4-.1-.1-.1-.2-.2-.3-.1-.1-.1-.3-.2-.5v-.1l-.2-.5c0-.1 0-.1-.1-.2l-.1-.4s-.1-.1-.1-.2-.1-.2-.1-.3c0-.1-.1-.1-.1-.2s-.1-.2-.1-.3l-.1-.2c0-.1-.1-.2-.1-.3 0-.1-.1-.1-.1-.2s-.1-.2-.1-.3c0-.1 0-.1-.1-.2l-.1-.4v-.1l-.2-.5c0-.1 0-.1-.1-.2l-.1-.4-.1-.2c0-.1-.1-.2-.1-.3l-.1-.2-.1-.3c0-.1 0-.2-.1-.2 0-.1-.1-.2-.1-.3v-.2c0-.1-.1-.2-.1-.3 0-.1-.1-.1-.1-.2s-.1-.2-.1-.4v-.2l-.1-.5v-.2c0-.1-.1-.2-.1-.3v-.2c0-.1-.1-.2-.1-.3v-.2l-.1-.3v-.5c0-.1 0-.1-.1-.2v-.5l-.1-.3v-.2c0-.1-.1-.3-.1-.5v-3.5c0-.1 0-.3-.1-.4V632c0-.5 0-1.1.1-1.7v-1.5.2c.1-1 .3-2 .4-3.1.8-4.3 2-8.6 3.7-12.6 1.8-4.2 3.9-8.3 6.2-12.2.4-.7.9-1.4 1.4-2.1l-.4-.2zM167.3 668.3c0-.1.1-.2.1-.3 0-.4-.3-.7-.7-.7-.1 0-.2 0-.3.1-.1.1-.3.1-.4.2-12.2 12.6-26.8 7-28.1-8v-.6c-.1-.3-.4-.5-.7-.5-.2 0-.5.1-.6.3-.1.1-.2.3-.2.4-7.1 19.7.3 43.5 22.5 66.1 0 .1.1.1.2.1.1.1.2.1.3.1.3 0 .6-.2.6-.6v-.1c0-.1-.1-.3-.1-.4 0-.1-.1-.2-.2-.3 0-.1-.1-.3-.2-.5-.1-.1 0 0 0-.1-.1-.2-.1-.4-.2-.5 0-.1 0-.1-.1-.2l-.1-.4c0-.1-.1-.1-.1-.2-.1-.1-.1-.2-.1-.3 0-.1-.1-.1-.1-.2s-.1-.2-.1-.3l-.1-.2c0-.1-.1-.2-.1-.3 0-.1-.1-.1-.1-.2s-.1-.2-.1-.3c0-.1 0-.1-.1-.2l-.1-.4v-.1c-.1-.2-.1-.3-.2-.5v-.2c-.1-.1-.1-.2-.1-.4l-.1-.2c0-.1-.1-.2-.1-.3l-.1-.2-.1-.3c0-.1 0-.2-.1-.2 0-.1-.1-.2-.1-.3v-.2c0-.1-.1-.2-.1-.3v-.2c0-.1-.1-.2-.1-.4 0-.1 0-.1-.1-.2l-.1-.5v-.2s-.1-.2-.1-.3v-.2c0-.1-.1-.2-.1-.3 0-.1 0-.1-.1-.2l-.1-.3v-.7c0-.1 0-.2-.1-.3v-.2l-.1-.3v-.2c0-.1-.1-.3-.1-.5v-.5c0-.1 0-.2-.1-.2v-9.3c0-.6 0-1.1.1-1.7V698.5c.1-1 .3-2 .4-3.1.8-4.3 2-8.6 3.7-12.6 1.8-4.2 3.9-8.3 6.2-12.1.4-.7.9-1.4 1.4-2.1l-.5-.3z"/><path class="st0" d="M160.9 657.9v-1.1c0-.1-.1-.3-.1-.4 0-.1 0-.1-.1-.2v-.2s0-.1-.1-.1v-.4s0-.1-.1-.1 0-.1 0-.1-.1-.2-.2-.3c-.1-.1 0 0 0-.1-1.2-2.5-3.7-4.1-6.4-4.1-4 .1-7.2 3.4-7.1 7.4 0 3.1 2 5.9 5 6.9h.4c.1 0 .3.1.4.1H153.7c4-.1 7.2-3.4 7.2-7.3zM656 590.1V588.9c0-.1 0-.3-.1-.4V588.2s0-.1-.1-.1v-.5l-.2-.3c-1.2-2.5-3.7-4.1-6.4-4.1-4 .1-7.2 3.4-7.1 7.4 0 3.3 2.1 6.2 5.2 7.1.1 0 .1 0 .2.1h.2c.1 0 .3.1.4.1h1c4-.5 7.1-3.9 6.9-7.8z"/></g></svg>