<svg version="1.1" id="Capa_1" xmlns="http://www.w3.org/2000/svg" xmlns:xlink="http://www.w3.org/1999/xlink" x="0" y="0" viewBox="0 0 483.87 100.46" style="enable-background:new 0 0 483.87 100.46" xml:space="preserve"><style>.st0,.st1{clip-path:url(#SVGID_00000053525709380321004120000009622304804213939085_);fill:#fff}.st1{opacity:.3;fill:#eeb82c}</style><defs><path id="SVGID_1_" d="M-1.73 0h485.61v100.46H-1.73z"/></defs><clipPath id="SVGID_00000040533892833861782370000010155503810247511687_"><use xlink:href="#SVGID_1_" style="overflow:visible"/></clipPath><path style="clip-path:url(#SVGID_00000040533892833861782370000010155503810247511687_);fill:#fff" d="M454.03 434.52H26.5c-15.59 0-28.24-12.64-28.24-28.24v-532.66c0-15.59 12.64-28.24 28.24-28.24h427.53c15.59 0 28.24 12.64 28.24 28.24v532.66c0 15.6-12.65 28.24-28.24 28.24z"/><path style="opacity:.3;clip-path:url(#SVGID_00000040533892833861782370000010155503810247511687_);fill:#eeb82c" d="M483.99 19.88 315.06 87.59c-41.35 16.57-86.77 17.16-128.47 1.65L-.01 19.88V-86.76c0-25.02 18.86-45.29 42.13-45.29h399.73c23.27 0 42.13 20.28 42.13 45.29V19.88z"/></svg>