<svg xmlns="http://www.w3.org/2000/svg" viewBox="0 0 16.3 32" style="enable-background:new 0 0 16.3 32" xml:space="preserve"><path d="M15.68 6.09a.418.418 0 0 0-.28.13C9.75 11.77 3.03 9.31 2.41 2.67v-.13c0-.04-.01-.07-.02-.11a.367.367 0 0 0-.34-.25c-.12 0-.22.06-.29.14-.03.06-.06.09-.1.2-3.29 8.72.15 19.24 10.37 29.22.02.03.05.05.08.07.04.03.09.04.15.04.14 0 .26-.12.26-.26v-.04c-.01-.05-.05-.14-.07-.19a.826.826 0 0 1-.07-.13c-.03-.07-.06-.13-.09-.2 0-.01-.01-.02-.02-.03-.03-.08-.07-.15-.1-.23-.01-.03-.02-.05-.03-.08-.02-.05-.04-.1-.07-.16-.01-.03-.03-.06-.04-.09-.02-.05-.04-.09-.06-.14-.01-.03-.03-.06-.04-.1-.02-.05-.04-.09-.05-.14-.01-.03-.03-.06-.04-.1-.02-.05-.04-.09-.05-.14-.01-.03-.02-.06-.04-.09-.02-.05-.04-.1-.05-.15l-.03-.09-.06-.18c-.01-.02-.01-.03-.02-.05-.03-.08-.05-.15-.08-.23-.01-.03-.02-.05-.03-.08-.02-.05-.03-.1-.05-.15l-.03-.09c-.01-.05-.03-.09-.04-.14l-.03-.1c-.01-.04-.03-.09-.04-.13l-.03-.1c-.01-.04-.03-.09-.04-.13-.01-.03-.02-.06-.03-.1-.01-.05-.03-.09-.04-.14l-.03-.09c-.01-.05-.03-.11-.04-.16-.01-.02-.01-.05-.02-.07l-.06-.22c-.01-.03-.01-.05-.02-.08-.01-.05-.02-.1-.04-.15-.01-.03-.02-.06-.02-.1l-.03-.13a.355.355 0 0 1-.02-.1l-.03-.12a.355.355 0 0 1-.02-.1l-.03-.12c-.01-.03-.01-.07-.02-.1-.01-.04-.02-.08-.03-.13-.01-.03-.01-.07-.02-.1l-.03-.14c-.01-.03-.01-.06-.02-.09-.01-.07-.03-.14-.04-.21-.01-.03-.01-.06-.02-.09-.01-.04-.01-.09-.02-.13-.01-.03-.01-.07-.02-.1-.01-.04-.01-.08-.02-.12-.01-.04-.01-.07-.02-.11-.01-.04-.01-.08-.02-.11-.01-.04-.01-.07-.01-.11 0-.04-.01-.07-.01-.11 0-.04-.01-.07-.01-.11 0-.04-.01-.07-.01-.11 0-.04-.01-.07-.01-.11 0-.04-.01-.07-.01-.11 0-.04-.01-.07-.01-.11 0-.04-.01-.09-.01-.13-.01-.06-.01-.13-.02-.19 0-.03-.01-.07-.01-.1 0-.04-.01-.08-.01-.12 0-.03 0-.07-.01-.1 0-.04-.01-.08-.01-.12 0-.03 0-.06-.01-.1 0-.04 0-.08-.01-.12v-.09c0-.04 0-.08-.01-.12v-.3c0-.17-.01-.33-.01-.5V21.37c0-.05 0-.1.01-.15v-.04c.01-.25.03-.49.05-.74v-.03c0-.06.01-.11.02-.17v-.04c.01-.05.01-.11.02-.16V20c.01-.06.01-.11.02-.17v-.03c.05-.45.12-.9.2-1.34.69-3.81 2.38-7.43 4.6-10.95.2-.32.42-.62.63-.93.04-.07.04-.08.05-.12.01-.04.02-.07.02-.11.04-.12-.1-.26-.27-.26z" style="fill:#fff"/><path d="M12.23 3.31V3.1c0-.02 0-.04-.01-.06v-.03c0-.02 0-.04-.01-.06v-.03c0-.02-.01-.04-.01-.07v-.02c-.01-.06-.02-.12-.04-.17v-.01c-.01-.02-.01-.05-.02-.07 0-.01 0-.02-.01-.02-.01-.02-.01-.04-.02-.06 0-.01-.01-.02-.01-.03-.01-.02-.01-.04-.02-.06 0-.01-.01-.02-.01-.03-.01-.02-.01-.04-.02-.05 0-.01-.01-.02-.01-.03-.01-.02-.01-.03-.02-.05 0-.01-.01-.02-.01-.03-.01-.02-.02-.04-.03-.05-.02-.06-.05-.11-.07-.17 0 0 0-.01-.01-.01 0-.01 0-.01-.01-.02A3.282 3.282 0 0 0 8.94.14C7.13.14 5.66 1.6 5.66 3.4c0 1.5 1.02 2.77 2.42 3.14h.01c.03.01.06.01.08.02h.01c.03.01.06.01.09.02.06.02.13.03.19.04h.02c.02 0 .05.01.07.01h.03c.02 0 .04 0 .06.01h.3c1.81 0 3.28-1.46 3.28-3.26.01-.01.01-.04.01-.07z" style="fill-rule:evenodd;clip-rule:evenodd;fill:#fff"/></svg>