<svg version="1.1" id="Capa_1" xmlns="http://www.w3.org/2000/svg" x="0" y="0" viewBox="0 0 60 60" xml:space="preserve"><style>.st0{fill:#0ca3b3}</style><path class="st0" d="M19.78 11.51c-.8-.35-3.13-.8-4.2-.81-1.07.01-3.4.46-4.2.81-3.7 1.61-3.74 4.73-3.74 9.6h15.88c.01-4.87-.04-7.99-3.74-9.6zm-1.03 19.35H12.6s.94 5.35-3.54 9.77l6.32 7.64h.59l6.32-7.64c-4.48-4.42-3.54-9.77-3.54-9.77z"/><path class="st0" d="M12.6 30.86h6.15s-.45 2.61.79 5.68c-2.57-1-4.62-3.12-6.88-5.06-.02-.39-.06-.62-.06-.62z"/><path class="st0" d="M29.64 38.89c-1.2-2.18-10.35-4.39-10.35-4.39v.03l-.12-.03s.04.39.02 1.07l-.12-.4-3.38 1.87-3.44-1.87c-.06.23-.13.47-.21.7-.04-.87.01-1.37.01-1.38l-.12.03v-.03s-9.16 2.2-10.35 4.39C.96 40.03.36 46.01 0 50.36h31.24c-.37-4.35-.97-10.33-1.6-11.47zm-14.01 9.38h.13c-.03.09-.06.15-.06.15s-.03-.07-.07-.15z"/><path class="st0" d="M12.26 35.18c-.45 1.69 2.98 4.33 2.98 4.33l-1.72 8.75 2.15 1.29 2.14-1.29-1.61-8.7s3.34-2.69 2.88-4.38l-3.37 1.25-3.45-1.25zm11.52-14.43c-.24-.61-.65-.3-.97.11.09-4.76-2.42-7.17-2.42-7.17h-9.44S8.42 16.1 8.5 20.83c-.32-.39-.72-.67-.95-.07-.43 1.11.58 2.62.39 4.16-.13 1.04.69.93 1.21.64.2.79.49 1.71.95 2.8.99 2.29 3.82 4.38 5.55 4.38 1.74 0 4.52-2.1 5.55-4.38.47-1.05.77-1.91.95-2.81.52.3 1.37.42 1.23-.63-.18-1.55.83-3.06.4-4.17z"/><path class="st0" d="M15.71 36.43l2.47 2.91 2.57-4.61-1.9-.82zm0 0l-2.47 2.91-2.68-4.52 1.93-.91z"/><path class="st0" d="M29.67 38.89c-1.2-2.18-5.86-3.17-5.86-3.17s-7.43 11.43-8.18 12.59c-.75-1.16-8.18-12.59-8.18-12.59s-4.66.98-5.86 3.17C.96 40.03.36 46.01 0 50.36h31.27c-.37-4.35-.97-10.33-1.6-11.47zM10.04 24.78c-.34-2.93-.63-9.8 3.76-11.72l-1.35-.65s-3.93.79-4.29 6.86l1.05 6.41h.01c.5 0 .88-.42.82-.9zm12.01.9h.04l1.05-6.37c-.36-6.07-4.29-6.86-4.29-6.86l-1.35.65c4.39 1.91 4.1 8.77 3.76 11.71-.04.47.32.87.79.87z"/><path d="M56.15 8.91H38.14c-2.13 0-3.85 1.59-3.85 3.56v18.05c-4.91 1.46-9.62.27-9.62.27 2.04 2.24 6.01 2.88 9.62 2.93V38c0 1.96 1.72 3.56 3.85 3.56h18.01c2.13 0 3.85-1.59 3.85-3.56V12.47c0-1.97-1.72-3.56-3.85-3.56z" fill="#1d57c5"/><path d="M37.16 14.51h19.95v1.85H37.16zm0 3.39h19.95v1.85H37.16zm0 3.39h19.95v1.85H37.16zm0 3.39h19.95v1.85H37.16zm0 3.4h19.95v1.85H37.16zm0 3.54h19.95v1.85H37.16zm0 3.39h19.95v1.85H37.16z" fill="#fff"/></svg>