<svg xmlns="http://www.w3.org/2000/svg" viewBox="0 0 160 160"><defs><style>.cls-1{fill:#fff;}</style></defs><g id="Icono_2" data-name="Icono 2"><path class="cls-1" d="M79.76,93.7h67.92c7.43,0,11.75,4.29,11.75,11.7v40.1c0,7.33-4.33,11.68-11.61,11.68l-136.5,0A10.45,10.45,0,0,1,.57,146.38V104.46A10.45,10.45,0,0,1,11.35,93.73H79.76Zm40.18,21.23c5.34,0,10.48,0,15.61,0a5.4,5.4,0,1,0,0-10.79q-10.51,0-21,0a5.27,5.27,0,0,0-5.48,5.56q0,15.74,0,31.49a5.29,5.29,0,0,0,5.48,5.56q10.53,0,21,0a5.4,5.4,0,1,0,0-10.79c-4.58,0-9.17,0-13.75,0h-1.86v-5.11c3.45,0,6.8.07,10.15,0a7.21,7.21,0,0,0,3.26-.91,5.21,5.21,0,0,0,2.23-5.93,5.38,5.38,0,0,0-5.16-3.91c-3.46,0-6.92,0-10.48,0ZM82.6,133.55c-2.73-2.92-4.53-6.11-4.81-9.84-.34-4.61-.27-9.26-.35-13.89-.06-3.33-2.26-5.68-5.37-5.69a5.31,5.31,0,0,0-5.43,5.61c0,3.32-.13,6.64,0,9.94a52.25,52.25,0,0,0,1,8.84c1.63,7.24,6.39,12.48,11.78,17.17a5.08,5.08,0,0,0,7-.46,76,76,0,0,0,5.32-5.45,25.34,25.34,0,0,0,6.53-14.57c.44-5.44.27-10.92.36-16.38a3,3,0,0,0-.22-1,5.4,5.4,0,0,0-10.55,1.69c-.1,4.75,0,9.51-.38,14.23A15.45,15.45,0,0,1,82.6,133.55ZM19.12,136v-2.27q0-12,0-24a5.32,5.32,0,0,0-5.34-5.54,5.28,5.28,0,0,0-5.44,5.42q0,15.9,0,31.79a5.26,5.26,0,0,0,5.3,5.4q10.68,0,21.36,0A5.39,5.39,0,0,0,35,136c-4.64,0-9.27,0-13.91,0Zm37.11-10.51c0-5.19,0-10.39,0-15.58,0-3.33-2.22-5.7-5.31-5.73s-5.48,2.31-5.48,5.73q0,15.57,0,31.15c0,3.33,2.23,5.71,5.31,5.74s5.47-2.33,5.48-5.74C56.24,135.82,56.23,130.63,56.23,125.44Z"/><path class="cls-1" d="M37.08,2.82A6,6,0,0,1,42,6.33a5,5,0,0,1-1.25,5.91A48.51,48.51,0,0,0,32,24.41a47.7,47.7,0,0,0,8.13,54.45c1.35,1.41,2.46,2.87,2.26,4.92a4.94,4.94,0,0,1-3.41,4.47,5,5,0,0,1-5.59-1.4A58.09,58.09,0,0,1,20.68,67.64,56.73,56.73,0,0,1,16.53,43,56.84,56.84,0,0,1,33.48,4.82C34.42,3.88,35.87,3.47,37.08,2.82Z"/><path class="cls-1" d="M133.13,45.76a47.53,47.53,0,0,0-13.57-33.2c-2.4-2.5-2.69-5.29-.75-7.53a5.17,5.17,0,0,1,7.86-.09,54,54,0,0,1,13.65,22q10.44,33.48-13.26,59.48c-1.48,1.61-3.21,2.54-5.44,2-4-1-5.25-5.54-2.5-8.77a84.19,84.19,0,0,0,6.39-8C130.62,64,133,55.4,133.13,45.76Z"/><path class="cls-1" d="M37.6,46.74c.31-11.06,3.72-19.54,10.51-26.62,2.35-2.45,5.41-2.63,7.63-.52s2.25,5.19-.06,7.64A26.45,26.45,0,0,0,48.1,46.9a25.79,25.79,0,0,0,7.38,17.41,5.46,5.46,0,0,1,1.79,5.07,4.9,4.9,0,0,1-3.44,3.9,5,5,0,0,1-5.45-1.38,35.62,35.62,0,0,1-9.69-17.59C38.05,51.42,37.84,48.44,37.6,46.74Z"/><path class="cls-1" d="M122.39,45.56a37.48,37.48,0,0,1-10.63,26.18,5.17,5.17,0,0,1-5.57,1.56,4.94,4.94,0,0,1-3.48-3.86,5.41,5.41,0,0,1,1.73-5.09A25.87,25.87,0,0,0,111.87,45a26.47,26.47,0,0,0-7.53-17.69c-2.14-2.25-2.33-5.08-.61-7.16a5.05,5.05,0,0,1,7.61-.51A36,36,0,0,1,122,41C122.16,42.48,122.25,44,122.39,45.56Z"/><path class="cls-1" d="M69.49,45.66a10.51,10.51,0,0,1,21,.37,10.51,10.51,0,1,1-21-.37Z"/></g></svg>