<svg xmlns="http://www.w3.org/2000/svg" viewBox="0 0 160 160"><defs><style>.cls-1{fill:#fff;}</style></defs><g id="Icono_4" data-name="Icono 4"><path class="cls-1" d="M159.5,122c-1.36,4-4.26,5.44-8.29,5.19-1.6-.1-3.2,0-5.08,0,.91,1.94,1.73,3.69,2.54,5.44.29.61.62,1.2.86,1.83a2.74,2.74,0,0,1-3,3.85c-1.59-.21-3.18-.43-4.74-.78a1.88,1.88,0,0,0-2.47,1.13c-.55,1.16-1.32,2.21-2,3.33s-1.45,2.58-3.21,2.51-2.42-1.53-3.07-2.89l-5.55-11.66c-.37.71-.67,1.24-.93,1.79-1.65,3.45-3.31,6.89-4.93,10.35-.58,1.22-1.22,2.32-2.75,2.41s-2.39-1-3.09-2.18-1.59-2.44-2.23-3.73a1.81,1.81,0,0,0-2.34-1.07,22.44,22.44,0,0,1-4.59.69,4.77,4.77,0,0,1-2.88-1c-1-.79-.77-2-.24-3.16l2.53-5.31c.21-.45.4-.91.7-1.59h-2.25q-47,0-94.06,0a11.24,11.24,0,0,1-4.09-.64,6,6,0,0,1-3.77-5.28,13,13,0,0,1,0-1.4q0-48.42,0-96.86c0-2.54.62-4.84,2.88-6.13a10.08,10.08,0,0,1,4.55-1.17c4.76-.15,9.52-.06,14.28-.06q64.72,0,129.45,0c2.61,0,5,.45,6.57,2.73a21.69,21.69,0,0,1,1.27,2.44Zm-16.76-2c1,2.54,1,2.54,3.54,2.54h5.44c2.73,0,3.12-.41,3.12-3.15V23.53c0-3-.32-3.28-3.3-3.28H8.42c-2.89,0-3.25.35-3.25,3.18V119.2c0,.42,0,.83,0,1.25a1.86,1.86,0,0,0,1.93,2c.57,0,1.14,0,1.71,0H104.9c2.44,0,2.51,0,3.14-2.6a8.61,8.61,0,0,1-4.83-8.49,5.45,5.45,0,0,0-.83-2.6,8.63,8.63,0,0,1,0-9,7.76,7.76,0,0,0,.89-3.37,8.58,8.58,0,0,1,4.36-7.54,7.94,7.94,0,0,0,2.47-2.46A8.81,8.81,0,0,1,117.57,82a9.68,9.68,0,0,0,3.65-1,8.82,8.82,0,0,1,8.46,0,9.31,9.31,0,0,0,3.65,1,8.83,8.83,0,0,1,7.52,4.45,7.33,7.33,0,0,0,2.34,2.36,8.81,8.81,0,0,1,4.52,7.8,7.31,7.31,0,0,0,.86,3.2,8.57,8.57,0,0,1,0,8.86,5.41,5.41,0,0,0-.85,2.58C147.79,115.12,146.29,118,142.74,119.92Zm-17.39,4.15a10.23,10.23,0,0,0,2.09-.74,9.71,9.71,0,0,1,5.59-1.54c1.77.07,2.9-.83,3.94-2.25a16.56,16.56,0,0,1,3.75-3.77,5.18,5.18,0,0,0,2.36-4.23,13.48,13.48,0,0,1,1.29-4.83,5.11,5.11,0,0,0,0-5,14,14,0,0,1-1.26-4.84,5.22,5.22,0,0,0-2.4-4.21,16.77,16.77,0,0,1-3.75-3.77c-1-1.37-2.09-2.29-3.8-2.23a9.59,9.59,0,0,1-5.59-1.49,3.72,3.72,0,0,0-4.23,0,9.21,9.21,0,0,1-5.45,1.47,3.8,3.8,0,0,0-3.8,2.18,9,9,0,0,1-4,4,4.31,4.31,0,0,0-2.22,3.79,17.85,17.85,0,0,1-1.4,5.28,5.22,5.22,0,0,0,0,4.7,18.47,18.47,0,0,1,1.39,5.28,4.19,4.19,0,0,0,2.13,3.68,9.58,9.58,0,0,1,4.1,4.09c.81,1.54,2.15,2,3.82,2.17a34.48,34.48,0,0,1,5.3,1.39C123.93,123.45,124.62,123.78,125.35,124.07ZM111.48,124l-4.35,9.11c1.41-.22,2.52-.38,3.62-.57a3.2,3.2,0,0,1,3.63,1.73c.63,1.12,1.34,2.19,2.12,3.47l5-10.38a14.84,14.84,0,0,0-3.2-.85A9.46,9.46,0,0,1,111.48,124Zm22.92,13.75c.82-1.34,1.51-2.42,2.15-3.53a3.11,3.11,0,0,1,3.5-1.68l3.71.56-4.38-9.15c-2,2.14-4.48,2.47-7.06,2.6a12.25,12.25,0,0,0-2.86.87C131.16,131,132.72,134.23,134.4,137.73Z"/><path class="cls-1" d="M16.41,99.85c5.89,1.38,9.51,5,10.92,11H93.17c2.49,0,3.64.76,3.61,2.39s-1.13,2.27-3.54,2.27H27c-3.05,0-3.7-.54-4.24-3.5a8.71,8.71,0,0,0-7.58-7.5c-2.84-.52-3.44-1.24-3.44-4.16V42.39c0-2.9.61-3.62,3.45-4.14,4.31-.79,6.83-3.33,7.61-7.67.49-2.74,1.21-3.34,4.05-3.34H132.69c2.83,0,3.63.7,4.08,3.52a8.58,8.58,0,0,0,7.56,7.49c3.56.51,4,1,4,4.71V81c0,.47,0,.94,0,1.4a2.32,2.32,0,1,1-4.63,0c0-.46,0-.93,0-1.4V43q-9.25-1.83-11.52-11H27.33A14.66,14.66,0,0,1,23.61,39a14,14,0,0,1-7.2,3.79Z"/><path class="cls-1" d="M79.93,47.78H36.15a13.31,13.31,0,0,1-1.55,0,2.29,2.29,0,0,1-.23-4.53,6.46,6.46,0,0,1,1.39-.09h88.49a6.05,6.05,0,0,1,1.54.14,2.11,2.11,0,0,1,1.74,2.4,2.14,2.14,0,0,1-2.11,2.08,13.37,13.37,0,0,1-1.55,0Z"/><path class="cls-1" d="M80,68.53h43.78a10.83,10.83,0,0,1,1.71,0,2.27,2.27,0,0,1,.23,4.49,6.62,6.62,0,0,1-1.54.11H35.84a6.62,6.62,0,0,1-1.54-.11,2.27,2.27,0,0,1,.22-4.49,10.83,10.83,0,0,1,1.71,0Z"/><path class="cls-1" d="M91.33,60.45H59.05a8,8,0,0,1-1.69-.11,2.28,2.28,0,0,1,.26-4.52,12.9,12.9,0,0,1,1.39,0h65c.41,0,.83,0,1.24,0a2.19,2.19,0,0,1,2.25,2.12,2.22,2.22,0,0,1-2.06,2.46,9.87,9.87,0,0,1-1.54.06Z"/><path class="cls-1" d="M80.05,89.65H65.47a7.22,7.22,0,0,1-1.54-.11,2.14,2.14,0,0,1-1.78-2.23,2.17,2.17,0,0,1,1.93-2.26,5.55,5.55,0,0,1,1.08,0H94.77a6.77,6.77,0,0,1,.78,0,2.31,2.31,0,1,1,0,4.61c-1.14.08-2.28,0-3.41,0Z"/><path class="cls-1" d="M40.92,55.8c1.91,0,3.82,0,5.73,0a2.31,2.31,0,1,1,.12,4.61q-6,.09-11.93,0a2.24,2.24,0,0,1-2.37-2.34A2.29,2.29,0,0,1,35,55.8C37,55.77,39,55.8,40.92,55.8Z"/><path class="cls-1" d="M139.7,104.26a14.45,14.45,0,1,1-14.49-14.5A14.51,14.51,0,0,1,139.7,104.26Zm-4.65-.08a9.86,9.86,0,0,0-9.8-9.76,9.81,9.81,0,1,0,.12,19.61A9.79,9.79,0,0,0,135.05,104.18Z"/></g></svg>