<?xml version="1.0" encoding="utf-8"?>
<!-- Generator: Adobe Illustrator 25.4.1, SVG Export Plug-In . SVG Version: 6.00 Build 0)  -->
<svg version="1.1" id="Capa_1" xmlns="http://www.w3.org/2000/svg" xmlns:xlink="http://www.w3.org/1999/xlink" x="0px" y="0px"
	 viewBox="0 0 60 60" style="enable-background:new 0 0 60 60;" xml:space="preserve">
<style type="text/css">
	.st0{fill:#1D57C5;}
	.st1{fill:#0CA3B3;}
	.st2{fill:#FFFFFF;}
</style>
<g>
	<path class="st0" d="M1.11,54.06c0.69,0.69,1.65,1.09,2.63,1.09h0.47h1.98h50.07c0.98,0,1.94-0.4,2.63-1.09
		c0.69-0.69,1.09-1.65,1.09-2.63V20.68H0.02v30.75C0.02,52.41,0.42,53.37,1.11,54.06z M47.91,23.17h8.58v7.64h-8.58V23.17z
		 M47.91,32.92h8.58v7.63h-8.58V32.92z M36.81,23.17h8.58v7.64h-8.58V23.17z M36.81,32.92h8.58v7.63h-8.58V32.92z M36.81,42.67h8.58
		v7.63h-8.58V42.67z M25.71,23.17h8.58v7.64h-8.58V23.17z M25.71,32.92h8.58v7.63h-8.58V32.92z M25.71,42.67h8.58v7.63h-8.58V42.67z
		 M14.61,23.17h8.58v7.64h-8.58V23.17z M14.61,32.92h8.58v7.63h-8.58V32.92z M14.61,42.67h8.58v7.63h-8.58V42.67z M3.51,32.92h8.58
		v7.63H3.51V32.92z M3.51,42.67h8.58v7.63H3.51V42.67z"/>
	<rect x="0.02" y="17.13" class="st0" width="59.96" height="2.2"/>
	<path class="st0" d="M6.19,6.55H4.21H3.74c-0.98,0-1.94,0.4-2.63,1.09c-0.69,0.69-1.09,1.65-1.09,2.63v4.32h59.96v-4.32
		c0-0.98-0.4-1.94-1.09-2.63c-0.69-0.69-1.65-1.09-2.63-1.09h-6.31v4.87c0,0.91-0.74,1.64-1.65,1.64h-3.47
		c-0.91,0-1.64-0.74-1.64-1.64V6.55H16.81v4.87c0,0.91-0.74,1.64-1.64,1.64h-3.47c-0.91,0-1.64-0.74-1.64-1.64V6.55H6.19z"/>
	<rect x="0.02" y="14.59" class="st1" width="59.96" height="2.55"/>
	<polygon class="st1" points="11.69,11.42 15.16,11.42 15.16,6.55 15.16,2.27 11.69,2.27 11.69,6.55 	"/>
	<polygon class="st1" points="44.84,11.42 48.31,11.42 48.31,6.55 48.31,2.27 44.84,2.27 44.84,6.55 	"/>
	<rect x="14.61" y="23.17" class="st2" width="8.58" height="7.64"/>
	<rect x="25.71" y="23.17" class="st2" width="8.58" height="7.64"/>
	<rect x="36.81" y="23.17" class="st2" width="8.58" height="7.64"/>
	<rect x="47.91" y="23.17" class="st2" width="8.58" height="7.64"/>
	<rect x="3.51" y="32.92" class="st2" width="8.58" height="7.63"/>
	<rect x="14.61" y="32.92" class="st2" width="8.58" height="7.63"/>
	<rect x="25.71" y="32.92" class="st2" width="8.58" height="7.63"/>
	<rect x="36.81" y="32.92" class="st2" width="8.58" height="7.63"/>
	<rect x="47.91" y="32.92" class="st2" width="8.58" height="7.63"/>
	<rect x="3.51" y="42.67" class="st2" width="8.58" height="7.63"/>
	<rect x="14.61" y="42.67" class="st2" width="8.58" height="7.63"/>
	<rect x="25.71" y="42.67" class="st2" width="8.58" height="7.63"/>
	<rect x="36.81" y="42.67" class="st2" width="8.58" height="7.63"/>
</g>
</svg>
