<?xml version="1.0" encoding="utf-8"?>
<!-- Generator: Adobe Illustrator 25.4.1, SVG Export Plug-In . SVG Version: 6.00 Build 0)  -->
<svg version="1.1" id="Capa_1" xmlns="http://www.w3.org/2000/svg" xmlns:xlink="http://www.w3.org/1999/xlink" x="0px" y="0px"
	 viewBox="0 0 60 60" style="enable-background:new 0 0 60 60;" xml:space="preserve">
<style type="text/css">
	.st0{fill:#1D57C5;}
	.st1{fill:#FFFFFF;}
	.st2{fill:#0CA3B3;}
	.st3{fill:#FEC906;}
	.st4{fill:#FFE15C;}
</style>
<g>
	<g>
		<rect y="10.92" class="st0" width="60" height="39.78"/>
		<path class="st1" d="M2.46,44.28V17.34c2.18,0,3.95-1.77,3.95-3.95h47.16c0,2.18,1.77,3.95,3.95,3.95v26.94
			c-2.18,0-3.95,1.77-3.95,3.95H6.42C6.42,46.05,4.65,44.28,2.46,44.28z"/>
		<rect x="14.12" y="17.86" class="st2" width="31.77" height="1.02"/>
		<rect x="8.03" y="23.36" class="st2" width="43.95" height="1.02"/>
		<rect x="8.03" y="27.33" class="st2" width="43.95" height="1.02"/>
		<rect x="8.03" y="30.99" class="st2" width="43.95" height="1.02"/>
		<rect x="9.84" y="38.97" class="st2" width="11.46" height="1.02"/>
	</g>
	<g>
		<g>
			<path class="st2" d="M47.63,44.8c-0.62,2.11-2.31,3.16-3.84,2.41l2.21,6.96l1.25-3.34l2.6,0.93L47.63,44.8z"/>
			<path class="st2" d="M41.75,47.16c-0.79-0.43-1.38-1.26-1.7-2.27l-1.91,7.01l2.56-1.12l1.37,3.24l1.87-6.85
				C43.25,47.53,42.48,47.56,41.75,47.16z"/>
			<path class="st2" d="M44.24,48.66c1.5-0.04,2.96-0.54,4.16-1.41l-0.78-2.45c-0.62,2.11-2.31,3.16-3.84,2.41L44.24,48.66z"/>
			<path class="st2" d="M41.75,47.16c-0.79-0.43-1.38-1.26-1.7-2.27l-0.71,2.61c0.41,0.26,0.86,0.49,1.33,0.67
				c0.94,0.36,1.91,0.51,2.86,0.48l0.4-1.49C43.25,47.53,42.48,47.56,41.75,47.16z"/>
		</g>
		
			<ellipse transform="matrix(0.2563 -0.9666 0.9666 0.2563 -7.4579 72.9527)" class="st3" cx="43.68" cy="41.32" rx="6.42" ry="6.42"/>
		<path class="st4" d="M49.02,42.77c-0.12,0.06-0.22,0.13-0.29,0.21c0.06-0.22,0.12-0.46,0.15-0.71c0.27,0.03,0.46-0.03,0.69-0.22
			c0.19-0.16,0.28-0.3,0.34-0.55c-0.29-0.03-0.48,0.03-0.71,0.22c-0.14,0.12-0.23,0.22-0.29,0.37c0.03-0.24,0.04-0.49,0.05-0.75
			c0-0.02,0-0.05,0-0.07c0.28-0.03,0.46-0.13,0.64-0.37c0.16-0.2,0.22-0.36,0.23-0.62c-0.29,0.04-0.47,0.14-0.65,0.37
			c-0.12,0.15-0.19,0.28-0.22,0.45c-0.01-0.29-0.04-0.57-0.09-0.84c0.25-0.09,0.41-0.23,0.54-0.49c0.11-0.23,0.14-0.4,0.1-0.66
			c-0.27,0.1-0.43,0.24-0.57,0.51c-0.08,0.15-0.11,0.27-0.12,0.41c-0.06-0.26-0.14-0.5-0.23-0.73c0.22-0.14,0.34-0.31,0.41-0.59
			c0.07-0.25,0.06-0.42-0.03-0.66c-0.25,0.16-0.37,0.33-0.46,0.62c-0.04,0.14-0.06,0.25-0.05,0.37c-0.1-0.22-0.23-0.42-0.36-0.61
			c0.18-0.19,0.26-0.38,0.28-0.66c0.02-0.26-0.02-0.43-0.15-0.64c-0.21,0.21-0.3,0.4-0.33,0.71c-0.01,0.14,0,0.25,0.02,0.37
			c-0.14-0.18-0.3-0.35-0.48-0.51c0.15-0.23,0.19-0.43,0.15-0.72c-0.03-0.26-0.1-0.41-0.28-0.6c-0.17,0.25-0.22,0.46-0.18,0.77
			c0.02,0.15,0.05,0.27,0.11,0.38c-0.18-0.15-0.38-0.28-0.58-0.4c0.11-0.26,0.11-0.48,0.02-0.76c-0.08-0.24-0.18-0.38-0.38-0.52
			c-0.11,0.28-0.12,0.5-0.03,0.79c0.05,0.16,0.11,0.28,0.21,0.38c-0.22-0.11-0.44-0.21-0.68-0.29c0.06-0.28,0.02-0.5-0.13-0.75
			c-0.13-0.22-0.25-0.33-0.48-0.42c-0.06,0.3-0.02,0.52,0.13,0.78c0.09,0.15,0.17,0.25,0.29,0.33c-0.08-0.02-0.15-0.04-0.23-0.06
			l-0.19,0.04c0.12,0.03,0.24,0.06,0.36,0.1c-0.19,0.04-0.34,0.13-0.49,0.3c-0.17,0.19-0.24,0.34-0.27,0.6
			c0.29-0.01,0.47-0.1,0.68-0.32c0.15-0.16,0.23-0.3,0.27-0.51c0.21,0.08,0.42,0.17,0.62,0.28c-0.17,0.01-0.31,0.06-0.48,0.18
			c-0.2,0.14-0.3,0.28-0.38,0.53c0.28,0.05,0.48,0.01,0.72-0.16c0.17-0.12,0.27-0.24,0.35-0.42c0.19,0.12,0.37,0.24,0.54,0.38
			c-0.16-0.02-0.3,0-0.48,0.08c-0.22,0.1-0.35,0.21-0.47,0.43c0.27,0.11,0.47,0.11,0.74,0c0.19-0.08,0.31-0.17,0.42-0.33
			c0.16,0.15,0.32,0.32,0.46,0.49c-0.15-0.06-0.3-0.07-0.49-0.03c-0.24,0.04-0.38,0.13-0.55,0.32c0.24,0.17,0.44,0.22,0.72,0.17
			c0.2-0.04,0.34-0.1,0.48-0.23c0.13,0.19,0.25,0.38,0.36,0.59c-0.13-0.09-0.28-0.14-0.47-0.14c-0.24-0.01-0.4,0.04-0.6,0.19
			c0.2,0.22,0.39,0.31,0.68,0.32c0.21,0.01,0.35-0.02,0.51-0.12c0.09,0.21,0.17,0.43,0.23,0.65c-0.11-0.12-0.25-0.19-0.43-0.24
			c-0.23-0.06-0.4-0.05-0.62,0.05c0.16,0.26,0.32,0.39,0.6,0.47c0.2,0.06,0.34,0.06,0.52,0c0.05,0.22,0.08,0.44,0.09,0.67
			c-0.09-0.13-0.2-0.23-0.36-0.32c-0.22-0.11-0.38-0.14-0.62-0.09c0.1,0.29,0.24,0.45,0.49,0.59c0.18,0.1,0.32,0.13,0.5,0.12
			c0,0.04,0,0.07,0,0.11c0,0.2-0.01,0.38-0.03,0.56c-0.06-0.15-0.15-0.27-0.3-0.39c-0.19-0.16-0.34-0.22-0.58-0.22
			c0.04,0.31,0.14,0.49,0.37,0.69c0.16,0.14,0.29,0.2,0.47,0.23c-0.04,0.26-0.09,0.5-0.16,0.73c-0.02-0.2-0.09-0.36-0.22-0.53
			c-0.15-0.2-0.29-0.29-0.53-0.35c-0.02,0.31,0.05,0.52,0.23,0.75c0.14,0.18,0.26,0.27,0.45,0.34c-0.09,0.27-0.21,0.51-0.34,0.74
			c0.04-0.22,0-0.41-0.11-0.64c-0.11-0.23-0.23-0.35-0.45-0.46c-0.08,0.3-0.06,0.51,0.08,0.79c0.1,0.21,0.21,0.33,0.39,0.44
			c-0.14,0.22-0.3,0.42-0.48,0.6c0.07-0.19,0.07-0.38,0-0.61c-0.07-0.25-0.16-0.39-0.35-0.55c-0.13,0.27-0.15,0.49-0.08,0.79
			c0.06,0.22,0.13,0.36,0.28,0.5c-0.16,0.15-0.33,0.28-0.52,0.4c0.06-0.15,0.09-0.3,0.07-0.5c-0.02-0.26-0.08-0.42-0.24-0.62
			c-0.18,0.24-0.25,0.45-0.23,0.75c0.01,0.21,0.05,0.35,0.14,0.51c-0.21,0.12-0.43,0.22-0.66,0.3c0.1-0.13,0.15-0.28,0.18-0.48
			c0.03-0.26,0.01-0.43-0.11-0.65c-0.23,0.19-0.33,0.38-0.37,0.69c-0.03,0.21-0.02,0.36,0.05,0.54c-0.29,0.09-0.59,0.16-0.9,0.21
			c0.23-0.12,0.36-0.28,0.46-0.55c0.09-0.24,0.1-0.42,0.03-0.66c-0.26,0.13-0.4,0.29-0.51,0.58c-0.09,0.24-0.1,0.4-0.05,0.65
			c-0.01,0-0.03,0-0.04,0.01c0,0,0,0-0.01,0c0,0,0,0,0,0c-0.17,0.02-0.34,0.04-0.51,0.05c-0.19,0.01-0.36,0.07-0.52,0.14
			c-0.16-0.08-0.33-0.13-0.52-0.14c-0.17-0.01-0.35-0.03-0.51-0.05c0,0,0,0,0,0c0,0,0,0-0.01,0c-0.01,0-0.03,0-0.04-0.01
			c0.05-0.24,0.04-0.41-0.05-0.65c-0.11-0.29-0.24-0.45-0.51-0.58c-0.07,0.25-0.06,0.42,0.03,0.66c0.1,0.27,0.23,0.43,0.46,0.55
			c-0.31-0.05-0.61-0.12-0.9-0.21c0.06-0.17,0.08-0.33,0.05-0.54c-0.04-0.31-0.15-0.49-0.37-0.69c-0.12,0.23-0.15,0.4-0.11,0.65
			c0.03,0.2,0.08,0.35,0.18,0.48c-0.23-0.09-0.45-0.19-0.66-0.3c0.09-0.15,0.13-0.3,0.14-0.51c0.02-0.31-0.05-0.52-0.23-0.75
			c-0.16,0.2-0.22,0.36-0.24,0.62c-0.01,0.19,0.01,0.35,0.07,0.5c-0.18-0.12-0.35-0.25-0.52-0.4c0.15-0.14,0.22-0.28,0.28-0.5
			c0.08-0.3,0.05-0.51-0.08-0.79c-0.19,0.16-0.28,0.3-0.35,0.55c-0.06,0.23-0.06,0.41,0.01,0.61c-0.18-0.18-0.34-0.38-0.48-0.6
			c0.19-0.11,0.29-0.23,0.39-0.44c0.13-0.28,0.15-0.49,0.08-0.79c-0.22,0.11-0.34,0.23-0.45,0.46c-0.11,0.22-0.14,0.41-0.11,0.64
			c-0.13-0.23-0.25-0.47-0.34-0.74c0.19-0.07,0.32-0.16,0.45-0.34c0.18-0.24,0.25-0.45,0.23-0.75c-0.24,0.06-0.37,0.15-0.53,0.35
			c-0.14,0.18-0.21,0.34-0.22,0.53c-0.07-0.23-0.12-0.47-0.16-0.73c0.18-0.03,0.31-0.09,0.47-0.23c0.23-0.19,0.33-0.38,0.37-0.69
			c-0.24,0.01-0.39,0.06-0.58,0.22c-0.14,0.12-0.24,0.24-0.3,0.39c-0.02-0.18-0.03-0.37-0.03-0.56c0-0.04,0-0.07,0-0.11
			c0.18,0.01,0.32-0.02,0.5-0.12c0.26-0.14,0.39-0.3,0.49-0.59c-0.24-0.05-0.4-0.03-0.62,0.09c-0.16,0.09-0.28,0.18-0.36,0.32
			c0.02-0.23,0.05-0.45,0.09-0.67c0.18,0.06,0.32,0.05,0.52,0c0.28-0.08,0.44-0.21,0.6-0.47c-0.22-0.1-0.38-0.11-0.62-0.05
			c-0.18,0.05-0.32,0.12-0.43,0.24c0.06-0.23,0.14-0.44,0.23-0.65c0.16,0.1,0.31,0.13,0.51,0.12c0.29-0.01,0.47-0.1,0.68-0.32
			c-0.2-0.15-0.35-0.2-0.6-0.19c-0.19,0.01-0.34,0.05-0.47,0.14c0.11-0.21,0.22-0.4,0.36-0.59c0.14,0.13,0.27,0.19,0.48,0.23
			c0.28,0.05,0.48,0,0.72-0.17c-0.17-0.19-0.31-0.27-0.55-0.32c-0.19-0.03-0.34-0.03-0.49,0.03c0.14-0.17,0.29-0.34,0.46-0.49
			c0.11,0.16,0.23,0.25,0.42,0.33c0.27,0.11,0.47,0.11,0.74,0c-0.13-0.22-0.25-0.33-0.47-0.43c-0.17-0.07-0.32-0.1-0.48-0.08
			c0.17-0.14,0.35-0.27,0.54-0.38c0.08,0.18,0.18,0.3,0.35,0.42c0.24,0.17,0.44,0.21,0.72,0.16c-0.08-0.25-0.18-0.38-0.38-0.53
			c-0.16-0.12-0.31-0.18-0.48-0.18c0.2-0.11,0.4-0.2,0.62-0.28c0.04,0.21,0.12,0.35,0.27,0.51c0.2,0.22,0.39,0.31,0.68,0.32
			c-0.03-0.26-0.1-0.41-0.27-0.6c-0.15-0.17-0.3-0.26-0.49-0.3c0.12-0.04,0.24-0.07,0.36-0.1l-0.19-0.04
			c-0.08,0.02-0.16,0.04-0.23,0.06c0.12-0.08,0.2-0.18,0.29-0.33c0.15-0.26,0.18-0.48,0.13-0.78c-0.23,0.09-0.35,0.2-0.48,0.42
			c-0.15,0.25-0.18,0.47-0.13,0.75c-0.24,0.08-0.46,0.18-0.68,0.29c0.09-0.1,0.16-0.22,0.21-0.38c0.1-0.29,0.09-0.51-0.03-0.79
			c-0.2,0.14-0.3,0.28-0.38,0.52c-0.09,0.28-0.09,0.49,0.02,0.76c-0.21,0.12-0.4,0.25-0.58,0.4c0.06-0.11,0.09-0.23,0.11-0.38
			c0.04-0.31-0.01-0.52-0.18-0.77c-0.17,0.18-0.24,0.34-0.28,0.6c-0.04,0.29,0.01,0.49,0.15,0.72c-0.17,0.16-0.33,0.32-0.48,0.51
			c0.03-0.11,0.03-0.22,0.02-0.37c-0.02-0.31-0.11-0.5-0.33-0.71c-0.13,0.22-0.17,0.39-0.15,0.64c0.02,0.29,0.1,0.48,0.28,0.66
			c-0.14,0.19-0.26,0.4-0.36,0.61c0.01-0.12-0.01-0.23-0.05-0.37c-0.08-0.3-0.21-0.47-0.46-0.62c-0.09,0.24-0.09,0.42-0.03,0.66
			c0.08,0.28,0.19,0.45,0.41,0.59c-0.1,0.23-0.17,0.48-0.23,0.73c-0.01-0.14-0.05-0.26-0.12-0.41c-0.14-0.27-0.29-0.41-0.57-0.51
			c-0.04,0.26-0.01,0.43,0.1,0.66c0.13,0.26,0.28,0.4,0.54,0.49c-0.05,0.27-0.08,0.55-0.09,0.84c-0.03-0.17-0.1-0.3-0.22-0.45
			c-0.19-0.23-0.37-0.34-0.65-0.37c0.01,0.26,0.07,0.42,0.23,0.62c0.18,0.23,0.36,0.34,0.64,0.37c0,0.02,0,0.05,0,0.07
			c0,0.26,0.02,0.51,0.05,0.75c-0.06-0.15-0.15-0.25-0.29-0.37c-0.23-0.19-0.42-0.25-0.71-0.22c0.06,0.25,0.15,0.39,0.34,0.55
			c0.22,0.18,0.42,0.25,0.69,0.22c0.04,0.25,0.09,0.48,0.15,0.71c-0.08-0.09-0.17-0.15-0.29-0.21c-0.26-0.13-0.46-0.15-0.74-0.05
			c0.11,0.23,0.23,0.35,0.44,0.46c0.24,0.12,0.43,0.15,0.67,0.07c0.08,0.21,0.16,0.41,0.26,0.6c-0.08-0.04-0.16-0.08-0.27-0.1
			c-0.28-0.07-0.48-0.04-0.73,0.11c0.15,0.2,0.29,0.29,0.52,0.36c0.25,0.07,0.44,0.05,0.65-0.07c0.12,0.18,0.25,0.35,0.39,0.51
			c-0.08-0.02-0.16-0.03-0.27-0.04c-0.29-0.01-0.48,0.07-0.7,0.27c0.19,0.16,0.34,0.22,0.58,0.23c0.26,0.01,0.44-0.05,0.62-0.21
			c0.16,0.16,0.34,0.3,0.53,0.42c-0.1-0.01-0.2-0.01-0.32,0.02c-0.28,0.06-0.46,0.17-0.63,0.42c0.22,0.12,0.38,0.14,0.61,0.1
			c0.26-0.05,0.43-0.16,0.59-0.37c0.19,0.11,0.4,0.21,0.61,0.3c-0.08,0.01-0.15,0.04-0.24,0.08c-0.27,0.12-0.41,0.27-0.53,0.55
			c0.23,0.07,0.4,0.06,0.62-0.04c0.24-0.1,0.38-0.24,0.49-0.46c0.17,0.06,0.35,0.11,0.53,0.15c-0.02,0.02-0.05,0.03-0.07,0.05
			c-0.23,0.18-0.34,0.36-0.4,0.67c0.24,0.01,0.4-0.04,0.59-0.19c0.17-0.13,0.28-0.26,0.34-0.44c0.19,0.03,0.38,0.05,0.57,0.06
			c0.09,0.01,0.18,0.02,0.26,0.05c-0.37,0.25-0.7,0.59-1.05,0.81l0.28,0.13c0.39-0.25,0.67-0.61,1.04-0.82
			c0.37,0.21,0.65,0.58,1.04,0.83l0.28-0.13c-0.35-0.23-0.68-0.57-1.06-0.82c0.08-0.02,0.17-0.04,0.26-0.05
			c0.19-0.01,0.38-0.04,0.57-0.06c0.06,0.18,0.17,0.31,0.34,0.44c0.2,0.15,0.35,0.2,0.59,0.19c-0.06-0.3-0.17-0.49-0.4-0.67
			c-0.02-0.02-0.05-0.04-0.07-0.05c0.18-0.04,0.36-0.09,0.53-0.15c0.11,0.22,0.25,0.36,0.49,0.46c0.22,0.1,0.39,0.11,0.62,0.04
			c-0.12-0.28-0.27-0.43-0.53-0.55c-0.09-0.04-0.16-0.06-0.24-0.08c0.21-0.09,0.41-0.19,0.61-0.3c0.15,0.22,0.32,0.32,0.59,0.37
			c0.24,0.05,0.4,0.02,0.61-0.1c-0.17-0.25-0.34-0.36-0.63-0.42c-0.12-0.02-0.22-0.03-0.32-0.02c0.19-0.13,0.36-0.27,0.53-0.42
			c0.18,0.16,0.37,0.22,0.62,0.21c0.24-0.01,0.39-0.07,0.58-0.23c-0.22-0.2-0.41-0.28-0.7-0.27c-0.1,0-0.19,0.01-0.27,0.04
			c0.14-0.16,0.27-0.33,0.39-0.51c0.21,0.11,0.4,0.13,0.65,0.07c0.24-0.06,0.37-0.15,0.52-0.36c-0.25-0.15-0.45-0.18-0.73-0.11
			c-0.1,0.03-0.19,0.06-0.27,0.1c0.1-0.19,0.19-0.39,0.26-0.6c0.24,0.07,0.43,0.05,0.67-0.07c0.22-0.11,0.33-0.23,0.44-0.46
			C49.48,42.63,49.28,42.64,49.02,42.77z"/>
		<polygon class="st1" points="45.22,35.6 45.28,36.54 46.19,36.31 45.32,36.66 45.82,37.46 45.22,36.74 44.61,37.46 45.11,36.66 
			44.24,36.31 45.15,36.54 		"/>
	</g>
</g>
</svg>
