<?xml version="1.0" encoding="utf-8"?>
<!-- Generator: Adobe Illustrator 25.4.1, SVG Export Plug-In . SVG Version: 6.00 Build 0)  -->
<svg version="1.1" id="Capa_1" xmlns="http://www.w3.org/2000/svg" xmlns:xlink="http://www.w3.org/1999/xlink" x="0px" y="0px"
	 viewBox="0 0 60 60" style="enable-background:new 0 0 60 60;" xml:space="preserve">
<style type="text/css">
	.st0{fill:#1D57C5;}
	.st1{fill:#FFFFFF;}
	.st2{fill:#E3E5E5;}
	.st3{fill:#194EA3;}
</style>
<g>
	<g>
		<polygon class="st0" points="38.8,57.73 21.2,57.73 24.85,43.14 35.15,43.14 		"/>
		<path class="st0" d="M56.8,45.25H3.2c-1.83,0-3.32-1.49-3.32-3.33V3.33C-0.12,1.49,1.37,0,3.2,0h53.6c1.83,0,3.32,1.49,3.32,3.33
			v38.59C60.12,43.76,58.63,45.25,56.8,45.25z"/>
		<rect x="5.3" y="4.35" class="st1" width="49.39" height="34.31"/>
		<path class="st0" d="M41.77,59.96L18.23,60c-1.47,0-2.66-1.19-2.66-2.66l0-0.05c0-1.47,1.19-2.67,2.66-2.67l23.54-0.04
			c1.47,0,2.66,1.19,2.66,2.67l0,0.05C44.43,58.77,43.24,59.96,41.77,59.96z"/>
	</g>
	<g>
		<polygon class="st1" points="29.53,27.64 16.6,22.94 16.6,7.02 29.53,15.05 		"/>
		<polygon class="st1" points="30.41,27.77 43.5,23.01 43.5,6.89 30.41,14.98 		"/>
		<polygon class="st2" points="29.47,30.17 15.21,24.98 15.21,7.41 29.47,15.58 		"/>
		<polygon class="st2" points="30.45,30.31 44.89,25.06 44.89,7.27 30.45,15.5 		"/>
		<polygon class="st1" points="29.42,32.96 13.8,27.29 13.8,8.05 29.42,15.32 		"/>
		<polygon class="st0" points="30,36.22 12.69,30.12 12.69,9.45 30,15.55 		"/>
		<polygon class="st1" points="30.49,33.12 46.29,27.37 46.29,7.9 30.49,15.23 		"/>
		<polygon class="st0" points="30,36.22 47.31,30.12 47.31,9.45 30,15.55 		"/>
		<polygon class="st1" points="34.99,21.75 44.4,18.74 44.4,15.39 34.99,18.39 		"/>
		<path class="st3" d="M31.8,35.3c0,0.99-0.77,1.15-1.72,1.15l0,0c-0.95,0-1.72-0.16-1.72-1.15V15.9c0-0.99,0.77-1.15,1.72-1.15l0,0
			c0.95,0,1.72,0.16,1.72,1.15V35.3z"/>
	</g>
</g>
</svg>
