<?xml version="1.0" encoding="utf-8"?>
<!-- Generator: Adobe Illustrator 25.4.1, SVG Export Plug-In . SVG Version: 6.00 Build 0)  -->
<svg version="1.1" id="Capa_1" xmlns="http://www.w3.org/2000/svg" xmlns:xlink="http://www.w3.org/1999/xlink" x="0px" y="0px"
	 viewBox="0 0 60 60" style="enable-background:new 0 0 60 60;" xml:space="preserve">
<style type="text/css">
	.st0{fill:#0CA3B3;}
	.st1{fill:#FFFFFF;}
</style>
<g>
	<polygon class="st0" points="60,30 56.04,35.18 57.72,41.48 52.08,44.75 51.21,51.21 44.75,52.08 41.48,57.72 35.18,56.04 30,60 
		24.82,56.04 18.52,57.72 15.25,52.08 8.79,51.21 7.92,44.75 2.28,41.48 3.96,35.18 0,30 3.96,24.82 2.28,18.52 7.92,15.25 
		8.79,8.79 15.25,7.92 18.52,2.28 24.82,3.96 30,0 35.18,3.96 41.48,2.28 44.75,7.92 51.21,8.79 52.08,15.25 57.72,18.52 
		56.04,24.82 	"/>
	<path class="st1" d="M17.84,28.68c-0.99-1.11-1.48-2.63-1.48-4.55v-0.02c0-1.91,0.49-3.42,1.48-4.54c0.99-1.11,2.34-1.67,4.05-1.67
		c1.71,0,3.06,0.56,4.03,1.67c0.98,1.11,1.47,2.63,1.47,4.54v0.02c0,1.92-0.49,3.44-1.47,4.55c-0.98,1.11-2.32,1.67-4.03,1.67
		C20.18,30.35,18.83,29.8,17.84,28.68z M23.41,26.72c0.35-0.6,0.53-1.46,0.53-2.58v-0.02c0-1.13-0.18-1.99-0.53-2.58
		c-0.35-0.59-0.86-0.89-1.51-0.89c-0.67,0-1.18,0.3-1.54,0.89C20,22.14,19.82,23,19.82,24.13v0.02c0,1.12,0.18,1.98,0.53,2.58
		c0.36,0.6,0.87,0.9,1.54,0.9C22.55,27.62,23.06,27.32,23.41,26.72z M20.67,41.88l15.01-23.75h3.65l-15,23.75H20.67z M34.1,40.41
		c-0.98-1.12-1.47-2.63-1.47-4.54v-0.02c0-1.92,0.49-3.43,1.47-4.54c0.98-1.11,2.33-1.66,4.04-1.66c1.71,0,3.06,0.55,4.03,1.66
		c0.98,1.11,1.47,2.62,1.47,4.54v0.02c0,1.91-0.49,3.42-1.47,4.54c-0.98,1.12-2.32,1.68-4.03,1.68
		C36.43,42.09,35.08,41.53,34.1,40.41z M39.65,38.46c0.35-0.6,0.53-1.46,0.53-2.59v-0.02c0-1.12-0.18-1.98-0.53-2.57
		c-0.35-0.59-0.86-0.89-1.51-0.89c-0.67,0-1.18,0.3-1.54,0.89c-0.36,0.59-0.53,1.45-0.53,2.57v0.02c0,1.13,0.18,1.99,0.53,2.59
		c0.36,0.6,0.87,0.9,1.54,0.9C38.8,39.36,39.3,39.06,39.65,38.46z"/>
</g>
</svg>
