<?xml version="1.0" encoding="utf-8"?>
<!-- Generator: Adobe Illustrator 25.4.1, SVG Export Plug-In . SVG Version: 6.00 Build 0)  -->
<svg version="1.1" id="Capa_1" xmlns="http://www.w3.org/2000/svg" xmlns:xlink="http://www.w3.org/1999/xlink" x="0px" y="0px"
	 viewBox="0 0 940.2 1000" style="enable-background:new 0 0 940.2 1000;" xml:space="preserve">
<style type="text/css">
	.st0{fill:#FFFFFF;}
	.st1{fill:#E3C0AB;}
	.st2{fill:#BE947C;}
	.st3{fill:#010101;}
	.st4{fill:#24B8CE;}
	.st5{fill:#020202;}
	.st6{fill:#1D1411;}
	.st7{fill:#E5C2AD;}
	.st8{fill:#22B7CE;stroke:#101010;stroke-width:2.05;stroke-miterlimit:10;}
	.st9{fill:#F3F2F3;}
	.st10{fill:#D8A175;}
	.st11{fill:#1D1E1C;}
	.st12{fill:#111111;}
	.st13{fill:#592A23;}
	.st14{fill:#22B7CE;}
	.st15{fill:#1D1D1B;}
</style>
<g>
	<g id="Capa_1_00000131356955081364281720000016135262167193757589_">
		<ellipse class="st0" cx="642.3" cy="269.4" rx="45.6" ry="47.5"/>
		<ellipse class="st0" cx="734.4" cy="260" rx="58.1" ry="65.2"/>
		<path class="st1" d="M219.9,125.8c0,0-131,78.9-132.2,175.6c-0.5,42.6,10.6,83.2,26.7,112.5c20.4,37.2,46.7,57.9,46.7,57.9
			l46.9,26.6c0,0,86.9-20,148.2-89.4c0,0,41.4,85.7,71.3-3.3S219.9,125.8,219.9,125.8z"/>
		<path class="st2" d="M170.2,415.7c0,0,11.1,24.9,24.9,26.6c13.8,1.7,27.7-13.6,27.7-13.6l-1.1-6.2L170.2,415.7z"/>
		<ellipse class="st0" cx="270" cy="278.7" rx="46.7" ry="31.9"/>
		<ellipse class="st0" cx="142" cy="273.7" rx="36.5" ry="26.3"/>
		<path class="st3" d="M251.7,216.9c4.7-2,9.8-3.1,14.9-3.1c7,0.1,13.8,1.8,20.1,4.8c14.1,6.8,21.3,22.7,21.4,22.9v0.1
			c1,2,1.8,4.1,2.3,6.3c-0.4-0.3-0.9-0.6-1.6-1.1c-5.7-4.5-12-8.2-18.8-11c-12.6-5.4-26.2-7.9-39.9-7.3c-1.1-3-2.2-6-3.3-9.2
			C248.4,218.4,250,217.6,251.7,216.9z"/>
		<path class="st4" d="M90.6,267.2h0.2v0.2L90.6,267.2z"/>
		<path class="st5" d="M169.4,313.2c0.6-0.3,1.2-0.6,1.7-0.9c1.4-0.7,2.9-1.3,4.4-1.8c3.7-1.3,6-2,10.9-14.5
			c6.6-16.7,6.1-28.6,6.1-28.8c-0.1-1.5,1-2.8,2.4-2.9c1.5-0.1,2.8,1,2.9,2.4c0,0.1,0,0.1,0,0.2c0,0.5,0.6,13.2-6.5,31.1
			c-5.6,14.1-9,15.9-14.2,17.6c-1.2,0.4-2.5,0.9-3.6,1.5l-1.8,0.9c-7.8,3.9-22.2,11.2-19.7,27.8c0,0.1,0,0.2,0,0.3l0,0l0,0
			c0.2,1.6,0.5,3.3,1,4.8c4,11.6,16.5,19.3,27.4,23.3c-14-3.3-29.8-11.4-33.5-26.7c-0.1-0.2-0.1-0.4-0.2-0.6v-0.2c0,0,0-0.1,0-0.1
			c0,0,0-0.1,0-0.1C143.8,326.2,161.7,317.1,169.4,313.2z"/>
		<path class="st5" d="M181.7,432.6c0.4,0.2,1.5,1,1.9,1.3c12.7,8.2,25,3.6,37.4-2.9c-4,5.3-9.5,9.1-15.8,11
			c-8.8,2.8-18.5,0-24.3-7.2c-1.4-1.7-2.6-3.5-3.5-5.5c0.4,0.3,0.9,0.6,1.3,1C179.6,431.1,180.7,431.8,181.7,432.6z"/>
		<path class="st6" d="M238.2,228.7c-0.3-0.6,0.2-2.3,0.8-3.2c1-1.1,2.1-2.1,3.3-3c1.9-1.5,4-2.7,4.6-3.1c0.5,1.5,4.6,6.9,3.9,9.1
			c-2.3,0.1-3,0.2-5.6,0.4c-1.5,0.1-2.9,0.3-4.4,0.5C239,229.3,238.3,228.9,238.2,228.7z"/>
		<path class="st5" d="M90.6,267.2l0.2,0.1v-0.2L90.6,267.2z"/>
		<path class="st3" d="M368.9,508.4l3.9-2.7c-16.3-24.6-0.9-66.7-0.8-67.2l-4.4-1.7C367,438.7,351.3,481.8,368.9,508.4z"/>
		<path class="st3" d="M220.7,517.2c0.7-1.7,1.3-3.5,1.7-5.2c0.8-5.1,0.8-10.3,0.1-15.5c-4.9,1.1-10,1.7-15,1.8
			c-3.6,0.1-7.2-0.5-10.5-1.8c-13.3-5.7-46.6-22.7-70.6-56.2c-10.1-13.3-18.6-29.4-25.3-47.9c-6-16.6-10.3-33.8-12.8-51.2
			c-4.4-29.1-3.6-53.9-0.3-66.9c-1.8,2.8-3.4,5.8-5,8.8c-7.9,15.8-13.9,32.6-18.9,49.5c4.7-20.3,10.3-40.6,19.7-59.2
			c1.3-2.4,2.6-4.8,4.1-7.2c0.2-13.4,2.1-26.7,5.7-39.6c3.5-13.1,8.6-25.7,15.2-37.6c7-12.4,15.8-23.8,26.1-33.6
			c6.1-17.4,17.4-33.7,31.8-40.4c15.7-7.4,33.4-6.7,45.5-4.8c7.7,1.1,15.3,3.1,22.6,5.9l-1,2.8c2-0.9,4.4-1.8,6.9-2.7
			c16.9-6.2,34.7-9.7,52.7-10.5c23.8-1,47.5,4.1,68.7,15c26.3,13.4,49.3,35.9,68.5,66.7c12,19.4,20.8,40.6,26.2,62.7
			c4.9,21,5.8,41,2.5,59.2c-4.1,22.5-14.8,43.2-30.7,59.6c1.1,3.9,1.8,8,2.1,12c4.2-4.5,12.2-10.1,25.7-11.1h0.1
			c6.9-0.3,15.1,1.9,23,6.1c8.6,4.7,16.1,11.1,22,18.9c14,18.3,17.9,41.6,11,65.7c-8.2,28.7-25.9,48-39.2,59.2
			c-6.8,5.7-14.2,10.8-22,15c-0.4-0.5-0.8-0.9-1.1-1.4c8.1-5.2,15.8-11.1,22.8-17.7c12.3-11.3,27.6-28.9,35.5-56.4
			c6.5-22.5,2.8-44.4-10.2-61.5c-7.4-9.6-17.5-17.1-27.4-20.8c-0.8-0.3-1.5-0.5-2.3-0.8c-3.8-1.3-7.8-1.9-11.9-1.8
			c-17.9,1.5-24.5,11.5-25.7,13.8c0,3-0.2,5.9-0.6,8.8c-1.7,14.6-7.3,28.8-15.3,39c-8.6,11-18.8,15.7-28.2,13.1
			c-0.4-0.1-0.9-0.3-1.3-0.4l0,0c-6.1-2.3-11.8-5.8-16.6-10.2c0,0.1,0,0.1-0.1,0.2c-0.1-0.1-0.3-0.2-0.4-0.3
			c-1.5-1.2-2.9-2.6-4.1-4.1c-2.7-3.1-5.1-6.4-7.2-9.9c-2-3.4-3.6-7-4.9-10.7c-7.1,9.7-15.3,18.6-24.3,26.6c-2,1.9-4.3,3.7-6.5,5.5
			h0.1c0,0.3,4.4,32.5,6.8,44.5c0.2,0.8,0.4,1.6,0.5,2.5c0.1,1.7,0.1,3.4-0.1,5.1l0,0c-1.4,7.2-7.2,14-12.1,19.8
			c-1.9,2.1-3.6,4.2-5.2,6.5c-5,7.7-35.7,42.9-61,62.8c-24.9,19.5-58.7,35.8-59,35.9l-3.6,1.7l0.3-4c0.1-1.9,3-46.6,11.5-64.6
			c3.5-7.2,7.3-13.7,11-20c1-1.7,2-3.4,3-5.1c0.7-1.6,1.5-3.1,2.6-4.5c0.1-0.1,0.1-0.2,0.2-0.3c1.5-2.6,2.8-5.3,4-8.1
			C220.5,517.8,220.6,517.5,220.7,517.2z M427.3,364c27.4-29.7,35.9-67.5,25.4-112.5c-5.2-21.7-13.9-42.4-25.6-61.4h-0.1
			c-34-54.6-78.7-81.4-133-79.5c-17.4,0.7-34.7,4.1-51.1,10.1c-7.2,2.5-14.2,5.6-20.9,9.2l-2.3-4.1c3.9-2.1,7.8-4,11.9-5.7
			c-7.5-2.7-38.1-12.1-62.7-0.5c-12.2,5.7-21.3,15.8-27,30c14.7-12.1,31.4-21.5,49.3-27.7l1.5,4.5c-18.3,6.3-35.3,16-50,28.6
			c-26.8,23.4-38.9,52.6-44.4,73c-3,11.2-4.9,22.7-5.4,34.3c5.3-10.7,15.4-24.2,27.3-37.9c0.1-0.1,0.1-0.2,0.2-0.3
			c9.8-11.3,20.7-22.7,31-32.8c22.7-22.2,54.4-49.3,72.4-56.4c1.1-0.4,2.3-0.8,3.4-1.1l2.7-0.7l0.2,2.8c1.9,26.8,7,53.2,15.1,78.7
			c1.4-0.8,2.9-1.5,4.4-2.1c8.4-3.6,21.9-6.1,38.9,1.8c15.5,7.5,23.1,24.1,23.6,25.2c0.7,1.5,1.4,3.1,1.9,4.7c1,2.9,1.9,6.5-0.2,8.2
			c-0.6,0.5-1.4,0.8-2.2,0.8c-2.2,0-4.6-1.8-5.7-2.7l-0.1-0.1c-0.2-0.2-21.4-18.1-53.9-17.4c11.6,29.9,28.3,57.5,49.4,81.6
			c26.8,30.3,52.7,45.2,59.4,48.8c4.3-6.2,19.9-26.6,37.4-26.6l0,0c9,0,16.9,5.3,23.6,15.8C424,356.2,425.9,360,427.3,364z
			 M412,433.4c15.1-19.3,21.4-53.7,6-78c-5.8-9.1-12.4-13.7-19.7-13.7l0,0c-17.7,0-30.4,18.1-34.7,26.2l-2.7-4.3l0,0
			c-1.2-0.6,27.9-15.6-3.8-51.4c-1.7-1.9-22.6,21.7-24.3,19.7c7.3,2-16.7-10.1-24.6-10.9c5.7-0.3-19.1-11.3-18.2-12.5
			c-9-11.2-17.1-23.2-24.3-35.7c-4.2-7.4-8.2-15.1-11.8-23c-3.4,1.1-6.6,2.6-9.7,4.3c4,2.3,14.8,9.2,20.4,19.3
			c1.3,2.3,2.3,4.8,2.9,7.5c1.6,7.2-4.2,16.1-9.2,23l-0.5,0.4l-1.3-0.5c1.1-1,2.1-2,3.1-3.1c4.4-6,5.8-12.1,4.4-18.1
			c-3.4-14.9-22.8-25.1-23-25.2c-0.1-0.1-0.3-0.2-0.4-0.3l-0.5,0.4c-1.5,1-3,2.2-4.4,3.4c4.2,2.4,23.2,14.5,20.6,29
			c-0.8,5.3-2.6,9.2-5.4,11.9c-0.4-0.2-0.9-0.4-1.4-0.5c-1.1-0.5-2.2-0.9-3.3-1.4c0.2,0,0.5-0.1,0.7-0.3c3.1-2.1,5-5.7,5.8-11.1
			c2.3-13.3-19.4-25.5-19.6-25.6l-0.3-0.2c-5,5-8.1,11.5-8.8,18.5c-0.3,3.3,4,8.3,9,12.4c-8.3-4.6-14-9.2-13.7-12.8
			c1-11.1,7.4-20.8,18.2-28.1c4.4-2.9,9.2-5.3,14.2-7.1c-1.7-3.9-3.4-8-4.9-12c-1.9,0.1-3.8,0.4-5.7,0.6H241c-3.4,0-5.7-1-6.8-3.1
			c-1.9-3.4,0.7-7.8,1-8.3l0.1-0.2l0.1-0.1c1.8-1.9,3.7-3.6,5.9-5.1c-8.1-25.3-13.2-51.5-15.4-78c-14.3,5.5-42.1,27.2-71.1,55.5
			c-9.6,9.4-18.4,18.7-26.3,27.5c1-0.2,2.3-0.3,3.5-0.5c-1.1,1.8-2.3,3.6-3.6,5.3c-2.3,0.4-4,0.7-4.9,0.9c-2,2.3-3.8,4.5-5.6,6.7
			c-0.8,0.9-3,4-3.5,4.4c-10.3,13-17.3,24.1-19.7,31.5l-0.1,0.3c-4.3,9.3-6.1,36.9-1.2,69.9c3.4,22.3,12.6,64.6,37.2,96.9l0.1,0.1
			c23.3,32.6,55.8,49.1,68.7,54.7c13.8,5.9,47.9-8.1,48.3-8.3l0.1-0.1c14.6-5.9,28.8-13,42.3-21.2c21-12.7,49.4-33.6,65.6-61.5
			l4,2.4c-1,1.8-2.1,3.5-3.3,5.3c1.7,6.1,9.1,27,31.2,35.4C395.1,447.4,404.1,443.4,412,433.4L412,433.4z M313.6,514.7
			c5.9-6.9,13.2-15.4,10.8-22.8l-0.1-0.3c-2-10.1-5.4-34.2-6.5-42.3c-8.2,6.4-16.7,12.2-25.6,17.6c-13.7,8.3-28.1,15.5-43,21.5
			c-7.1,2.9-14.3,5.3-21.7,7.2c0.9,5.8,0.8,11.7-0.1,17.4v0.2c-2,8.1-7.1,16.5-12.3,25.5c-3.6,6.1-7.4,12.6-10.8,19.7
			c-6.7,14-9.9,47.1-10.8,58.7c9.3-4.7,34.8-18.1,54.6-33.6c24.5-19.2,55.2-54.3,59.9-61.7C309.8,519.3,311.6,517,313.6,514.7
			L313.6,514.7z M308.8,246.8c0.5,0.4,1,0.8,1.6,1.1c-0.6-2.2-1.4-4.3-2.4-6.3v-0.1c-0.1-0.2-7.3-16.1-21.3-22.9
			c-6.2-3.1-13.1-4.7-20.1-4.8c-5.1,0-10.2,1.1-14.9,3.1c-1.7,0.7-3.3,1.5-4.8,2.4c1,3.1,2.1,6.1,3.3,9.2c13.7-0.5,27.3,2,39.9,7.4
			C296.8,238.7,303.1,242.3,308.8,246.8L308.8,246.8z M245.2,228.8c-0.8-2.2-1.6-4.5-2.4-6.7c-1.4,1-2.6,2.2-3.8,3.4
			c-0.5,1-1.1,2.7-0.8,3.3c0.1,0.2,0.8,0.6,2.6,0.6C242.2,229.1,243.7,228.9,245.2,228.8z"/>
		<path class="st3" d="M498.3,398c13.1,17.1,16.7,38.9,10.2,61.5c-7.9,27.5-23.2,45.1-35.5,56.4c-7,6.6-14.7,12.5-22.8,17.7
			c-0.6-0.8-1.1-1.6-1.6-2.5c7.8-4.2,15.1-9.2,21.9-14.9c12.8-10.7,29.7-29.3,37.6-56.8c6.5-22.5,2.8-44.4-10.2-61.5
			c-7.3-9.5-17.3-16.9-27-20.6C480.8,380.8,490.9,388.3,498.3,398z"/>
		<path d="M497.9,397.8c13.1,17.1,16.7,38.9,10.2,61.5c-7.9,27.5-24.8,46.1-37.6,56.8c-6.8,5.7-14.1,10.7-21.9,14.9
			c0.4,0.9,1,1.7,1.6,2.5c-14.1,8.8-22,9.2-24.5,10.4c-2.3-3-4.8-5.8-7.4-8.4l0,0c-3.2-3.9-6.6-7.6-10.2-11
			c-3.5-3.3-7.4-6.3-11.5-8.8l0,0c-0.3-0.2-0.4-0.4-0.4-0.4l-0.3-0.1c-8.2-4.9-16.3-7.2-23.9-6.6c-3.1-3.8-5.4-8.1-6.8-12.8
			c-8-31.5,2.9-51.4,3.8-56.8c4.8,4.3,10.3,7.6,16.3,9.9c0.1,0,0.3,0.1,0.4,0.1l0,0c0.4,0.2,0.9,0.3,1.3,0.4
			c9.5,2.9,19.8-1.8,28.6-13c8-10.2,13.5-24.4,15.3-39c0.3-2.9,0.5-5.9,0.6-8.8c1.2-2.2,7.8-12.3,25.7-13.7
			c3.9-0.1,7.8,0.4,11.5,1.7c0.7,0.2,1.5,0.5,2.3,0.8C480.6,380.9,490.6,388.3,497.9,397.8z"/>
		<path class="st3" d="M470.9,715.2v1.9l-1.8,0.4c-7.7,1.7-15.2,3.1-22.3,4.3l0.2-0.9l20.2-6.5c-0.6-107.9-42.7-168.2-61.8-189.9
			c4.7,3.2,9,6.8,13,10.8l0,0C443.8,566.6,469.9,627.9,470.9,715.2z"/>
		<path class="st3" d="M335.3,720.5c-5-1.1-8.7-2.2-11-3c-1.8-0.5-2.7-0.9-2.7-0.9l-1.3-0.5l-0.2-1.4c-0.1-0.8-11.2-80.7,4.5-134.7
			c10.5-52.2,39.3-68.1,45.3-70.9c0.3,0.1,0.6,0.2,0.9,0.4l2.7,0.6c0.5,0.5,1.1,1,1.6,1.5c4,0.4,16.6,3.6,30.2,13
			c19.1,21.8,61.2,82,61.8,189.9l-20.2,6.5l-0.2,0.9C393.4,730.6,354.6,724.9,335.3,720.5z M466.2,713.4
			c-1.5-96.6-33.8-160.3-61.3-185.5c-11.3-10.4-22.5-15.5-32.6-14.7c-3.2,1.4-32.8,16.1-43.2,67.9l-0.1,0.2
			c-14.3,49.1-6,120.5-4.6,131.4C333.2,715.6,385.2,731.1,466.2,713.4z"/>
		<path class="st7" d="M321.2,793.1c0.3,0,0.5,0,0.7,0l5.4-34l8-38.7c19.3,4.4,58.1,10.1,111.4,1.4l-22,90.4l0,0
			c-6.3,17.4-21.2,50.6-52.6,83.8c-20.9,1.2-41.8-0.9-62.1-6.1c0,0-79.4-23.6-115.6-46.6v-0.1l86.9-40.4
			C293.5,796,307.3,792.6,321.2,793.1z"/>
		<path class="st8" d="M405,527.9c27.4,25.3,59.8,88.9,61.3,185.5c-81,17.8-133.1,2.2-141.7-0.7c-1.4-10.9-9.8-82.3,4.6-131.4
			l0.1-0.2c10.4-51.8,40-66.5,43.2-67.9C382.4,512.3,393.7,517.5,405,527.9z"/>
		<path class="st8" d="M444.7,1010.7l-352.5,8.5l24.6-82.5c0,0,24.4-52.3,24.4-66.4H141l3.3-3.6l50.2-23.4v0.1
			c36.2,23,115.6,46.6,115.6,46.6c20.3,5.2,41.2,7.3,62.1,6.1c31.4-33.1,46.3-66.3,52.6-83.8l-4.3,18
			C420.4,830.3,413.2,960.6,444.7,1010.7z"/>
		<path class="st3" d="M408.1,524.4c3.7,3.4,7.1,7.1,10.2,11c-4-4-8.3-7.6-13-10.8c-2.7-3.2-5.7-6.2-8.8-9.1
			C400.7,518.1,404.5,521.1,408.1,524.4z"/>
		<path class="st3" d="M405.3,524.6c-13.7-9.4-26.3-12.6-30.2-13c-0.6-0.5-1.1-1-1.6-1.5l22.4,5l0.7,0.4l0,0
			C399.6,518.4,402.6,521.4,405.3,524.6z"/>
		<path d="M396.5,515.5l-0.7-0.4l0.3,0.1C396.1,515.2,396.3,515.3,396.5,515.5z"/>
		<path class="st3" d="M395.8,515.1l-22.4-5c-0.4-0.4-0.9-1-1.5-1.6C379.6,507.9,387.6,510.1,395.8,515.1z"/>
		<path class="st3" d="M385.6,448.9c-0.1-0.1-0.3-0.1-0.4-0.1c-6-2.3-11.5-5.6-16.3-9.9c0-0.1,0-0.1,0.1-0.2
			C373.9,443.1,379.5,446.5,385.6,448.9z"/>
		<path class="st3" d="M373.5,510.1l-2.7-0.6c-0.3-0.1-0.6-0.2-0.9-0.4c0.6-0.3,0.9-0.4,1-0.5l0.3-0.1l0.3-0.1c0.1,0,0.3,0,0.4,0
			C372.5,509.1,373,509.7,373.5,510.1z"/>
		<path class="st8" d="M369.9,509.1c-6,2.8-34.8,18.8-45.3,70.9c-15.7,54-4.6,133.9-4.5,134.7l0.2,1.4l1.3,0.5c0.1,0,1,0.4,2.7,0.9
			c2.3,0.7,6,1.8,11,3l-8,38.7l1.7-10.7l-41.3-11.3c0,0-37.7-6.5-70.4,7.1c0,0-14.8,4.1-34.3,9.1c-17.8-3-29.3-6.5-36.6-9.4
			c-0.8-3-1.9-5.9-3.3-8.7c0,0-35.3-33.7-33.7-51.2c0,0-19.9-54.2,110.8-165.9c-1.2,2.8-2.5,5.5-4,8.1c0,0.1-0.1,0.2-0.2,0.3
			c-1,1.4-1.9,2.9-2.6,4.5c-1,1.7-2,3.4-3,5.1c-3.7,6.3-7.5,12.8-11,20c-8.5,17.9-11.4,62.6-11.5,64.6l-0.3,4l3.6-1.7
			c0.3-0.2,34.2-16.5,59-35.9c25.3-19.9,56-55.1,61-62.8c1.6-2.3,3.3-4.5,5.2-6.5c4.9-5.8,10.8-12.6,12.1-19.8l0,0l0.4,0.1
			C329.2,498.1,350.5,501.5,369.9,509.1z"/>
		<path class="st7" d="M67.3,770.8c16.8,0.4,33.6-0.3,50.4-1.9c44.9-4.6,67-15.2,67-15.2l-1.6-0.3c19.5-5,34.3-9.1,34.3-9.1
			c32.7-13.5,70.4-7.1,70.4-7.1l41.3,11.3l-1.7,10.7l-4.4,21.1l-1.8,12.9c-13.9-0.5-27.7,2.9-39.8,9.8l-86.9,40.4l-50.2,23.4
			l-3.3,3.6l-67.2,17.9c0,0-83.3,8.5-61.6-89.3c0,0,7.5-20,19.2-47.5c4.6-2.3,9.8-3,14.8-2c7.5,5.8,13.8,13.1,18.3,21.4
			C65.5,770.7,66.4,770.8,67.3,770.8z"/>
		<path class="st7" d="M324.4,491.9c2.4,7.4-4.9,15.9-10.8,22.8c-2,2.2-3.9,4.6-5.6,7.1c-4.7,7.3-35.4,42.5-59.9,61.7
			c-19.7,15.5-45.3,28.9-54.6,33.6c0.9-11.6,4.1-44.7,10.8-58.7c3.4-7.1,7.2-13.5,10.8-19.7c5.3-9,10.2-17.4,12.3-25.5V513
			c0.9-5.8,0.9-11.6,0.1-17.4c7.4-1.9,14.7-4.3,21.7-7.2c14.9-6,29.2-13.2,42.9-21.5c8.9-5.4,17.4-11.2,25.6-17.6
			c1.1,8.1,4.5,32.1,6.5,42.3L324.4,491.9z"/>
		<path class="st0" d="M278.4,310.8c-11.2,0.6-26-0.9-22.3-5.2l1.6-1.4C265.1,306.9,272.4,309.2,278.4,310.8z"/>
		<path class="st9" d="M256.5,303.8c-4.1,3.6-8.4,5.5-12.9,5.7c-5.3,0.2-8.1-3.2-6-3.2c4.8,0,8.5-1,11.4-3c0.7-0.5,1.4-1,2-1.7
			C252.8,302.3,254.6,303.1,256.5,303.8z"/>
		<path class="st3" d="M246.3,299.7c-2.6,0.6-8.2-2.4-13.1-6.3C237,295.5,241.5,297.7,246.3,299.7z"/>
		<path class="st8" d="M220.7,517.2c-0.1,0.3-0.3,0.6-0.4,0.9C89.6,629.8,109.5,684,109.5,684c-1.6,17.5,33.7,51.2,33.7,51.2
			c1.4,2.8,2.5,5.7,3.3,8.7c-8.6-3.4-11.3-6-11.3-6c-24.8-30-62.1-66.7-62.1-66.7l-3.4-0.1c11.8-21.9,24.4-42,36.5-55.7
			C106.1,615.3,130.8,566.8,220.7,517.2z"/>
		<path class="st10" d="M183.1,753.3l1.6,0.3c0,0-22,10.7-67,15.2C137,764.9,162.6,758.6,183.1,753.3z"/>
		<path class="st7" d="M50.7,708.4c3.1-6.5,6.3-13,9.6-19.5c3.1-6,6.1-12,9.3-17.9l3.4,0.1c0,0,37.3,36.7,62.1,66.7
			c0,0,2.7,2.6,11.3,6c7.3,2.9,18.8,6.4,36.6,9.4c-20.4,5.3-46,11.6-65.4,15.5c0,0-26.8-1.8-50.4,1.9c-0.9,0-1.8,0-2.8,0
			c-4.6-8.3-10.8-15.6-18.3-21.4c-5-1-10.2-0.2-14.8,2c3.7-8.7,7.8-18,12.2-27.6C45.9,718.8,48.3,713.6,50.7,708.4z"/>
		<path class="st10" d="M67.3,770.8c23.6-3.7,50.4-1.9,50.4-1.9C101,770.5,84.2,771.1,67.3,770.8z"/>
		<path class="st7" d="M69.6,671c-3.2,5.9-6.3,11.9-9.3,17.9l-1-0.5c0,0-6.3-3.6-40.8,0c2.4-7,5.4-13.2,8.8-16.3
			C27.3,672.1,25,669.1,69.6,671z"/>
		<path class="st7" d="M59.3,688.4l1,0.5c-3.3,6.5-6.5,13.1-9.6,19.5c-6-1.1-22.2-3.2-38.1,1.1c1.5-7.2,3.5-14.2,5.8-21.1
			C52.9,684.8,59.3,688.4,59.3,688.4z"/>
		<path class="st7" d="M50.7,708.4c-2.5,5.2-4.8,10.3-7.2,15.4c-7.9-0.7-23.9-1.1-33.4,5.4H10c0.1-2.9,0.3-5.9,0.6-9.2
			c0,0,0.7-4.3,2-10.5C28.5,705.3,44.7,707.4,50.7,708.4z"/>
		<path class="st7" d="M43.6,723.8c-4.4,9.6-8.5,18.9-12.2,27.5c-4.9,2.4-10.1,6.8-14.3,15.2c0,0-8.4-3.3-7-37.3h0.2
			C19.7,722.7,35.7,723.1,43.6,723.8z"/>
		<path d="M369.1,511.3c-19-7.5-40-10.9-40.2-10.9l0.7-4.6c0.2,0,21.7,3.5,41.1,11.2L369.1,511.3z"/>
		<path d="M395.7,517.5l-0.3-0.1l0.1-0.6l-0.5,0.5l-0.3-0.3l1-1.3l0.6-2.9l0.8,0.2l0.4,0.4l0.5,0.4l-2.2,2.5L395.7,517.5z"/>
		<polygon points="426.9,812.9 422.6,811.7 444.5,721.3 448.9,722.5 		"/>
		<path d="M89.1,1021.5l25.6-85.9c7.7-16.5,21.6-48.8,23.8-62.2L74,890.5c-1.4,0.1-34.7,3.2-54.3-19.7c-13.6-16-16.9-40.4-9.8-72.6
			l0.1-0.3c0.1-0.2,7.7-20.4,19.3-47.6l4.1,1.9c-11,25.8-18.4,45.3-19.1,47.2c-6.7,30.5-3.8,53.5,8.8,68.2
			c17.4,20.4,47.8,18.3,50.3,18.1l69.8-18.5l0.1,3c0,14.1-22.8,63.4-24.5,67.2l-23.6,79.3l345.5-8.3c-29.2-52.3-22.9-173-22.6-178.3
			l0.1-0.4l4.4-17.9l4.4,1.1l-4.3,17.7c-0.3,6-6.2,130.9,24,178.7l2.2,3.5L89.1,1021.5z"/>
		<path d="M71.6,672.2l-3.9-2.3c13.3-24.6,25.6-43.5,36.6-56c2.3-4.4,28.4-50.8,115.4-98.8l3.1-1.7l2.1,4.1c-1,0.6-2,1.1-3.1,1.7
			c-88.1,48.6-113.5,96.6-113.8,97.1l-0.3,0.5C97,629.1,84.8,647.7,71.6,672.2z"/>
		<path d="M141.2,873.5l-3.3-3.2l5-5.4l0.4-0.2l137-63.7c12-6.9,25.8-10.4,39.7-10.1l6.4-40.6l-39.3-10.8c-0.2,0-37.2-6.1-68.9,7
			l-0.3,0.1c-0.1,0-15,4.1-34.3,9.1l-1.1-4.5c18.3-4.7,32.6-8.6,34.1-9c32.9-13.6,69.9-7.4,71.5-7.2l43.5,11.9l-7.7,48.9l-2.1-0.2
			c-0.2,0-0.4,0-0.5,0c-13.5-0.4-26.8,2.8-38.6,9.5l-0.3,0.1l-136.7,63.6L141.2,873.5z"/>
		<path d="M38.4,784.2l-3.1-3.4c5.8-5.9,16.5-10,31.8-12.4l0.7,4.6C53.4,775.3,43.5,779,38.4,784.2z"/>
		<polygon points="319.9,819.2 315.4,818.6 320.7,780 333.1,720 337.5,721 325.1,780.8 		"/>
		<path class="st11" d="M426.9,813.1l-4.2-1.6c1.5-4.1,2.8-8.2,3.8-12.4l4.4,1C429.8,804.6,428.5,808.9,426.9,813.1z"/>
		<polygon points="422.5,812.3 422.5,812.3 427,812.3 		"/>
		<path class="st11" d="M361.5,898.8c-17.5,0-35-2.1-52-6.5c-0.9-0.3-80.1-24-116.2-46.8l2.4-4c35.6,22.5,114.2,46.1,115,46.3
			c28.4,7.6,55.4,6.4,60.5,6.1c30.7-32.8,45.4-65.6,51.5-82.3l4.2,1.6c-6.1,17.2-21.3,51-53.1,84.6l-0.6,0.6l-0.8,0.1
			C372.3,898.5,368.2,898.8,361.5,898.8z"/>
		<path d="M144.3,744.5c-0.7-2.7-1.7-5.4-2.9-7.9c-3.6-3.5-35.2-34.4-34.1-52.3c-1.9-6.3-13.5-61,111.7-168c0.5-0.4,1-0.8,1.5-1.2
			l2.9,3.6l-1.5,1.3C94.4,628.8,111.4,682.7,111.6,683.2l0.2,0.5v0.5c-1.3,13.4,23.4,40.1,32.9,49.3l0.3,0.3l0.2,0.3
			c1.5,2.9,2.7,6,3.5,9.2L144.3,744.5z"/>
		<path d="M76.1,773.2c-2.9,0-5.8,0-8.8-0.1l0,0c-0.9,0-1.8,0-2.8-0.1h-1.3l-0.6-1.2c-4.3-7.8-10.2-14.7-17.3-20.3
			c-4.4-0.7-8.9,0-12.9,1.9l0,0c-5.4,2.6-9.9,7.4-13.3,14.2l-0.9,1.8l-1.9-0.7c-1.7-0.6-9.8-5.6-8.5-39.6c0.1-2.9,0.3-5.9,0.6-9.3
			c0.1-0.4,0.8-4.7,2.1-10.8c1.5-7.3,3.5-14.4,5.8-21.4c2.8-8,5.8-13.7,8.9-16.8c0.8-1.6,2.5-4,44.4-2.2l4.3,0.2l0.6,0.6
			c0.4,0.4,37.6,37,62.2,66.7c0.4,0.4,3.3,2.6,10.5,5.5c9,3.6,21.2,6.7,36.1,9.2l8.8,1.5l-6.6,3.2c-0.9,0.5-22.9,10.9-67.7,15.5
			C104,772.5,90.1,773.2,76.1,773.2z M65.9,768.4h1.4c16.7,0.4,33.5-0.3,50.1-1.9c29.3-3,48.8-8.6,58.7-12.1
			c-12.3-2.3-22.5-5.1-30.5-8.4c-8.8-3.5-11.7-6.2-12-6.5l-0.2-0.2c-22.7-27.5-56.3-61-61.3-65.9l-2.6-0.1
			c-31.2-1.3-38.7-0.2-40.5,0.3l-0.3,0.3c-1.8,1.7-4.8,5.7-8.1,15.3c-2.3,6.8-4.2,13.8-5.7,20.9c-1.3,6-2,10.3-2,10.3
			c-0.2,3.1-0.4,6.1-0.5,8.9c-0.9,21.8,2.3,30.3,4.2,33.4c3.7-6.3,8.4-10.9,13.9-13.5c5-2.5,10.8-3.3,16.3-2.2l0.4,0.1l0.4,0.3
			C55,753.2,61.2,760.3,65.9,768.4L65.9,768.4z"/>
		<path class="st11" d="M11.2,730.7l-1.9-2.9c9.8-6.8,25.8-6.5,34.4-5.7c2.9,0.3,4.7,0.5,4.8,0.6l-0.5,3.5c0,0-1.8-0.3-4.6-0.5
			C35.2,724.8,20.1,724.5,11.2,730.7z"/>
		<path class="st11" d="M12.9,711.3h-0.2v-1.5l-0.9-1.8l0.5-0.1l0,0c16.2-4.3,32.5-2.2,38.8-1.1c1.7,0.3,2.6,0.5,2.6,0.5l-0.8,3.4
			c0,0-0.9-0.2-2.4-0.5c-6.1-1-21.8-3.1-37.4,1L12.9,711.3z"/>
		<path class="st11" d="M17.8,690.2l-0.3-3.5l0.9-0.1c34-3.5,41-0.2,41.7,0.2l-1.6,3.1c-0.2-0.1-7-3.2-39.8,0.2L17.8,690.2z"/>
		<path d="M788.9,118.3c21.8,46.4,15.5,82.7,15.5,82.7c-1.2,28.3-5.8,61.3-5.8,61.3c-2.7-20.6-5.8-38-8.7-51.9c0-0.1,0-0.1,0-0.2
			c-4.6-24.4-11.7-50.1-22.3-70.5l-0.1,0.1c-0.1-0.3-0.3-0.5-0.4-0.8c0.5-0.3,0.7-0.5,0.7-0.5C776.6,133.9,783.9,126.9,788.9,118.3z
			"/>
		<path d="M800.5,52.4c0,0,4.9,38.6-11.6,65.9c-0.1-0.2-0.2-0.5-0.3-0.7l-8.2,6.8l-14.8,11.8c0,0,0.6,0.9,1.6,2.8
			c-5.3,3.9-38.8,27.1-86.7,30.3c0,0-62.2,1-112-27.1c0,0-11.9,10.5-9.6,14.5c0,0,12.7,32.1,1.4,48.2c0,0.1-0.1,0.1-0.1,0.1
			c-0.4,0.5-1,1.1-1.5,1.9c0,0-0.1,0.1-0.1,0.1c-0.3,0.4-0.7,0.7-1,1c-5.7,6.4-8.4,14.8-7.6,23.3c0,0,4.7,32.9,1.4,46.8
			c0,0-3.8,10.1-7.7-2.7c0,0-7.2-22.5-13.1-34.3c0,0-1.6-1.5-7-3.6c-1.2-0.8-2.5-1.6-3.8-2.2l-6.9-2c0,0-0.6,0-2.2,0.1
			c-1.9-0.5-3.9-1-6.1-1.5c0,0-14.3-71.6-13.6-92.9c0,0,1.5-24.3,13.1-37c0,0,12.3-21.2,40.3-26.3c0,0,8.1-28.8,36.6-26.8
			c0,0-2.1-26.4,22.1-39.8c0,0,51.1-17,65.5,10.6c0,0,8.4-16.3,21.5-16.3c0,0,20.3-6.3,37.2,19.3c0,0,3-21.3,23.8-20
			C750.9,2.8,787.7-0.1,800.5,52.4z"/>
		<path class="st1" d="M798.8,290.8c5.9,76.7-36.2,125.3-36.2,125.3c-29.7,33.8-60,37.9-60,37.9c-43.1,8.6-67.9-3.1-67.9-3.1
			c-40.6-14.6-64-47.8-64-47.8c-20.2-27.2-20.3-67.7-20.3-68.1c-41.6-0.4-51.1-24.6-51.1-24.6c-17.3-33.9-13.9-48.5-13.9-48.5
			c0.5-23.6,14.7-27,14.7-27c3.4-0.7,6.9-1.2,10.4-1.6c4.4,1.1,8.7,2.5,12.9,4.1c9.5,6.5,9.7,14.9,9.7,14.9
			c5.5,11,6.6,14.1,6.6,14.1c4,17.2,8.6,16.9,8.6,16.9c6.1,2,3.8-29.3,3.8-29.3c0.2-15.2-1.3-21.3-1.3-21.3
			c-0.8-10.8,2.3-17.6,2.3-17.6c1.6-2.8,3.4-5.5,5.3-8.1c0,0,0.1-0.1,0.1-0.1c0.6-0.6,1.1-1.2,1.5-1.9c0.1,0,0.1-0.1,0.1-0.1
			c0.6-0.7,1.3-1.4,2-2c5.5-8.6,2.8-27.3,2.8-27.3c-1.2-6.6-2.9-13-5.3-19.2c-0.5-1.7,2.3-6.1,2.3-6.1l6.8-7.3l11.9,6.3
			c29.1,13.2,63.1,18.2,63.1,18.2c27.1,4,45.3,2.2,45.3,2.2c18.1-3.3,35.8-8.5,52.9-15.5c9-3.9,17.5-8.7,25.5-14.3
			c5,9.7,9.1,19.8,12.3,30.2c0,0,4.6,13.8,10.1,40.2c0,0.1,0,0.1,0,0.2C794.8,237,797.8,263.9,798.8,290.8z M781.3,217.4l-0.3-8.9
			c0,0-6.5-10.2-27.9-13.4c0,0-21.9-2.6-41.2,7.7l-0.6,15.1l18.3-3.6C729.7,214.3,748.9,211.4,781.3,217.4z M779.8,270.1
			c0,0,5.5-23.8-16.1-37.4c-6.7-2.1-13.8-2.4-20.7-1c0,0-19.8,4.3-24.4,21.2c0,0-4.6,21.9,4.2,30.1c0,0,3.6,6,18.4,11.4
			c0,0,8.2,2.6,22.5-3C763.7,291.4,776,287,779.8,270.1L779.8,270.1z M712,389.9c19.6-19.1,9.6-29.4,9.6-29.4
			c-7.4-7.4-20-3.2-20-3.2c-10.4,2.6-21.3,3-31.9,1.2c-18.4-7-27.5-6.1-27.5-6.1c-11.5,2.3-11.3,9.5-11.3,9.5
			c0.1,12.6,19.4,28.1,19.4,28.1c2.3,1.1,4.7,2,7.2,2.7c0,0,0.1,0,0.1,0c0.9,0.3,1.7,0.5,2.6,0.7h0c15.9,3.9,33.2,1.2,33.2,1.2
			C707.6,392.4,712,389.9,712,389.9L712,389.9z M663.3,216.5l3-13.3c0,0-7.9-4.2-33.5-8.1c0,0-24.3,1.5-51.2,21.4l-0.3,11.3
			c0,0,13.3-5.8,24.2-7.9C605.5,219.8,624.6,209.3,663.3,216.5z M661.6,275.7c1.2-2.7,1.7-5.6,1.7-8.6c0-3.7-0.9-7.3-2.7-10.6
			c-2.6-7.9-7.9-14.7-15-19c0,0-8.7-3.3-20.7-1c0,0-19.8,4.3-24.4,21.2c0,0-4.6,21.9,4.2,30.1c0,0,3.6,6,18.4,11.4
			c0,0,8.1,2.6,22.5-2.9C645.6,296.2,657.7,292,661.6,275.7L661.6,275.7z"/>
		<path d="M788.6,117.6c0.1,0.2,0.2,0.5,0.3,0.7c-5,8.6-12.3,15.6-21,20.1c0,0-0.2,0.2-0.7,0.5c-1-1.9-1.6-2.8-1.6-2.8l14.8-11.8
			L788.6,117.6z"/>
		<path d="M789.8,210.3c-5.5-26.4-10.1-40.2-10.1-40.2c-3.2-10.4-7.3-20.5-12.3-30.2l0.1-0.1C778.2,160.2,785.2,185.9,789.8,210.3z"
			/>
		<path d="M780.8,211.5l-0.5,8.9c-31.8-8.9-50.7-6.2-50.7-6.2c-6.2,0.7-12.3,1.9-18.3,3.6l1.1-18.2c20.1-8.5,41.6-4,41.6-4
			C775.2,200.8,780.8,211.5,780.8,211.5z"/>
		<path class="st12" d="M738.5,243.8c11.9-0.3,21.8,9.2,22.1,21.1c0.3,11.9-9.2,21.8-21.1,22.1c-11.9,0.3-21.8-9.2-22.1-21.1
			c0-0.2,0-0.4,0-0.5C717.3,253.6,726.8,244,738.5,243.8z M749.8,264.8c-0.1-2.6-2.2-4.7-4.8-4.6s-4.7,2.2-4.6,4.8
			c0.1,2.6,2.2,4.6,4.7,4.6C747.7,269.6,749.9,267.5,749.8,264.8C749.9,264.8,749.9,264.8,749.8,264.8L749.8,264.8z"/>
		<ellipse class="st0" cx="763" cy="260.4" rx="4.7" ry="4.8"/>
		<path d="M665.1,198.2l2.3,18.5c-39.3-2.6-60.9,5.2-60.9,5.2c-8.3,2.4-16.7,4.3-25.3,5.8l0.3-11.3c24.5-22.9,49.3-22.4,49.3-22.4
			C656.8,194.9,665.1,198.2,665.1,198.2z"/>
		<path class="st12" d="M640.1,257.7c1.9,6,2.3,12.3,1.1,18.4c0,0.3-0.1,0.5-0.2,0.8c-4.8,11.1-17.6,16.2-28.7,11.4
			c-11.1-4.8-16.2-17.6-11.4-28.7c4.8-11.1,17.6-16.2,28.7-11.4C634,250.2,637.7,253.5,640.1,257.7L640.1,257.7z M631.1,265.3
			c-0.1-2.6-2.2-4.7-4.9-4.7c-2.6,0.1-4.7,2.2-4.7,4.9c0.1,2.6,2.2,4.7,4.8,4.7C628.9,270.1,631.1,268,631.1,265.3L631.1,265.3z"/>
		<path class="st12" d="M661.8,274.9c1.1-6.1,0.8-12.5-1.1-18.4c1.7,3.3,2.6,6.9,2.6,10.6c0,3-0.6,5.9-1.7,8.6
			C661.7,275.4,661.7,275.2,661.8,274.9z"/>
		<path class="st0" d="M646.9,259.2c2.7-0.1,4.9,2.1,5,4.8s-2.1,4.9-4.8,5c-2.7,0.1-4.9-2.1-5-4.8c0,0,0-0.1,0-0.1
			C642.1,261.4,644.2,259.2,646.9,259.2C646.9,259.2,646.9,259.2,646.9,259.2z"/>
		<path d="M558.5,206.9c0.6-0.8,1.1-1.4,1.5-1.9C559.6,205.7,559.1,206.4,558.5,206.9z"/>
		<path d="M519.6,235.3c1.3,0.7,2.6,1.4,3.8,2.2c-4.2-1.6-8.5-3-12.9-4.1c1.6-0.1,2.2-0.1,2.2-0.1L519.6,235.3z"/>
		<path d="M560.3,208.4l-3.6-2.9c0.6-0.7,1.1-1.4,1.5-1.9l0.2-0.3c0.6-0.7,1.3-1.4,2-2c4.7-7.9,2.3-25.2,2.3-25.4
			c-1.1-6.4-2.9-12.6-5.1-18.7l-0.1-0.2c-0.7-2.3,1-5.6,2.6-8l0.2-0.3l7.9-8.5l13.4,7c28.3,12.8,62.1,17.9,62.4,18
			c26.5,3.9,44.6,2.2,44.7,2.2c17.9-3.3,35.4-8.5,52.3-15.4c8.8-3.8,17.2-8.5,25.1-14l2.6,3.8c-8.1,5.7-16.8,10.6-26,14.5
			c-17.2,7-35.1,12.3-53.3,15.6c-0.9,0.1-18.9,1.9-46-2.2c-0.3-0.1-34.7-5.3-63.7-18.4l-10.5-5.5l-5.4,5.9c-0.8,1.3-1.5,2.6-1.9,4.1
			c2.3,6.3,4.1,12.8,5.3,19.4c0.1,0.9,2.7,19.8-3.1,29l-0.2,0.3l-0.3,0.2l0,0c-0.6,0.5-1.1,1-1.5,1.6l-0.1,0.3l-0.3,0.2
			C561.2,207.2,560.8,207.8,560.3,208.4z"/>
		<path d="M671.7,459.6c-23.8,0-37.2-6.1-37.9-6.5c-40.6-14.5-64-47.1-64.9-48.6c-18-24.1-20.3-58.1-20.7-67.2
			c-39.8-1.3-50-23.9-50.9-25.9c-16.4-32.1-14.5-47.5-14.1-49.8c0.6-25,15.8-28.8,16.5-29c4.4-0.8,7.9-1.4,10.7-1.6
			c0.8-0.1,1.6-0.1,2.4-0.1l0.5,0.1l7.3,2.2c1.4,0.7,2.7,1.5,4,2.4c9,6.1,10.5,13.9,10.7,16.2c5.3,10.6,6.5,13.8,6.5,13.9l0.1,0.3
			c2.9,12.6,6,14.8,6.5,15.1h0.2c1.5-2.4,2.1-14.5,1.2-26.8c0.2-14.8-1.3-20.8-1.3-20.9l-0.1-0.4c-0.9-11.3,2.4-18.4,2.5-18.8
			c1.7-3,3.5-5.8,5.6-8.5l3.5,2.9c-1.9,2.5-3.6,5.1-5.1,7.8l0,0c0,0-2.7,6.2-2,16c0.3,1.2,1.5,7.7,1.3,21.6
			c0.6,7.9,1.5,27.1-3.1,30.8c-0.9,0.8-2.1,1-3.2,0.8c-2.2-0.2-6.8-2.6-10.4-18.4c-0.3-0.7-1.8-4.3-6.5-13.8l-0.2-0.5v-0.5
			c0-0.3-0.4-7.3-8.7-13c-1.1-0.7-2.2-1.4-3.3-2l-6.4-1.9c-0.3,0-0.8,0-1.7,0.1c-1.8,0.2-5,0.6-10.1,1.6
			c-0.4,0.1-12.4,3.4-12.9,24.7l-0.1,0.5c0,0.1-2.9,14.5,13.7,46.9l0.1,0.2c0.4,0.9,9.6,22.7,49,23.2h2.2v2.3
			c0,0.4,0.2,40.4,19.8,66.7c0.3,0.4,23.6,32.9,63,47c0.4,0.2,24.9,11.3,66.7,3c0.4-0.1,30-4.5,58.7-37.3
			c0.4-0.5,41.4-48.8,35.6-123.5c-1-26.9-4-53.6-8.9-80.1l4.4-0.9c4.9,26.7,7.9,53.7,9,80.8c5.9,76.7-36.3,126.4-36.7,126.9
			c-29.9,34.1-60.1,38.6-61.4,38.7C692.7,458.5,682.2,459.6,671.7,459.6z"/>
		<path d="M707.9,336.2c-1.2,0-2.3-0.1-3.5-0.3l-18.2-2.7c-3.9-0.8-7.6-2-11.2-3.8l1.9-4.2c3.1,1.5,6.5,2.7,9.9,3.4l18.2,2.7
			c0.6,0.1,15.3,2.2,20-10.9l0.1-0.3c0.1-0.3,3.2-6.8-4.1-14.2c-2.2-2.2-4.9-3.9-7.9-4.9c-6.6-2.4-8-4.6-8.5-6.1l-0.1-0.6l-3.2-44.6
			l4.5-0.3l3.1,44.1c0.3,0.4,1.4,1.5,5.7,3.1c3.6,1.3,6.8,3.3,9.5,6c9.2,9.4,5.6,18.2,5,19.6C725.2,333.3,714.9,336.2,707.9,336.2z"
			/>
		<path d="M659.7,395.6c-0.9-0.2-1.9-0.5-2.8-0.7l1.3-4.5c0.8,0.2,1.7,0.5,2.5,0.7L659.7,395.6z"/>
		<path class="st12" d="M628.7,302.1c-2.1,0.1-4.1-0.2-6.1-0.7c-13.8-5-18.4-10.6-19.5-12.1c-9.4-9.1-4.9-31.1-4.7-32.1
			c4.9-18.2,25.3-22.8,26.1-23c12.5-2.4,21.5,1,21.9,1.1l0.4,0.2c7.6,4.6,13.3,11.8,16,20.2c2,6.4,2.4,13.1,1.2,19.7
			c0,0.3-0.1,0.6-0.2,0.8c-4.2,17.3-16.8,21.9-17.4,22.1C640.7,300.7,634.8,302,628.7,302.1z M623.9,297c0,0,7.7,2.2,20.9-2.9
			c0.5-0.2,11-4.2,14.5-18.9V275c0.1-0.2,0.1-0.3,0.1-0.5c1.1-5.8,0.7-11.7-1-17.3c-2.4-7.3-7.3-13.6-13.8-17.6
			c-6.3-1.9-12.9-2.1-19.3-0.9c-0.1,0-18.5,4.2-22.6,19.5c-1.2,5.6-2.8,21.8,3.6,27.7l0.4,0.5C606.7,286.5,610.3,292,623.9,297
			L623.9,297z"/>
		<path class="st12" d="M746.7,297.2c-2.1,0.1-4.1-0.2-6.1-0.7c-13.8-5-18.4-10.6-19.5-12.1c-9.4-9.1-4.9-31.2-4.7-32.1
			c4.9-18.2,25.3-22.8,26.1-23c12.5-2.4,21.5,1,21.9,1.1l0.4,0.2c22.8,14.3,17.2,39.7,17.1,40c-4,17.9-17,22.7-17.6,22.9
			C758.7,295.9,752.8,297.1,746.7,297.2z M741.9,292.1c0,0,7.7,2.2,20.9-2.9c0.5-0.2,11.3-4.3,14.7-19.6c0.2-0.9,4.8-22.2-14.9-34.8
			c-6.3-1.9-12.9-2.2-19.3-0.9c-0.1,0-18.4,4.2-22.6,19.6c-1.1,5.6-2.8,21.8,3.6,27.7l0.4,0.5C724.7,281.7,728.3,287.1,741.9,292.1
			L741.9,292.1z"/>
		<path class="st3" d="M219.9,281.2c-1.6,14.3,10.3,25.6,23.2,29.4c15.7,4.6,33.9,1.9,49.5-2c2.2-0.6,1.3-4-1-3.4
			c-14.1,3.5-30.2,5.9-44.6,2.7c-12.6-2.7-25.2-12.5-23.6-26.6C223.7,279,220.1,279,219.9,281.2L219.9,281.2z"/>
		<path class="st3" d="M258.4,302.7c0,0-1.9,7.1-11.9,7.3"/>
		<path class="st2" d="M163.2,409.9c0,0,26.9-25.8,58.4,12.6c0,0-21,14.1-58.6-10.7"/>
		<path class="st5" d="M163.2,409.9c-3.3-2-6.6-4.1-9.8-6.2c7.6,8.5,16.8,15.4,27.1,20.4c10.5,5,22.5,7.2,34,4.5
			c13.7-3.2,25.4-12.4,31.8-24.9c-6,7.1-13.5,12.7-21.9,16.6c-2-3.9-7.8-11.4-24.4-19.5l-0.1-0.1c-14.2-5.7-23.4-2.8-28.7,0.6
			C167.8,403.4,165.1,406.4,163.2,409.9z M167.2,412.2c1-2,8.8-16.1,30.7-7.2c14.7,7.2,20,13.7,21.9,16.9c-4.1,1.4-8.3,2.1-12.6,2.3
			C192.9,424.7,179.7,419.3,167.2,412.2L167.2,412.2z"/>
		<path d="M104.8,272.1c7.5-14.8,23.3-25.4,40-23.6c16.2,1.9,29.5,15.2,34.4,30.6c1.2,3.7,7,2.1,5.8-1.6
			c-4.5-14.1-14.6-26.2-28.1-32c-13.3-5.7-28.5-3.7-40.4,4.4c-7.1,4.8-12.9,11.4-16.8,19.1C97.8,272.4,103,275.5,104.8,272.1
			L104.8,272.1z"/>
		<path d="M99,273.3c6.5,16.9,25.8,25.1,42.3,27.3c17.4,2.3,35.5-4.9,43.1-21.8c0.8-1.8-1.8-3.3-2.6-1.5
			c-7.2,16.1-24.3,22.7-40.8,20.3c-14.9-2.2-33.2-9.6-39.2-25C101.2,270.7,98.3,271.5,99,273.3L99,273.3z"/>
		<path class="st13" d="M169,258.6c0,0-24.9,9.2-13.2,39.8l-7.4,0.9c-7.7-17-5.3-36.9,6.3-51.6L169,258.6z"/>
		<path d="M145.4,300.2c-4.4-7.8-4.6-17.4-3.4-26.3c1.3-9.9,4.7-19.4,10-27.9c0.5-0.8,1.5-1,2.2-0.5c0.8,0.5,1,1.5,0.5,2.2
			c-4.9,7.6-8.1,16.2-9.5,25.1c-1.3,8.5-1.4,18,2.8,25.5C149.2,300.3,146.5,302.1,145.4,300.2L145.4,300.2z"/>
		<path class="st3" d="M153,274.2c-2.3,10.8-4.9,22,3.1,24.2c7.9,2.2,23.4-5.4,25.7-16.2c2.3-10.8-2.2-21.4-10.2-23.6
			S155.4,263.4,153,274.2z"/>
		<path class="st0" d="M165.1,282.6c6.1,3.1,12.9-9.9,12.9-9.9s-7.9-10.2-8.3-9.9C162.4,268.4,159,279.6,165.1,282.6z"/>
		<path class="st1" d="M823.8,697.8l48.5,3.4c0,0,11.1-18,26.4-24.9c0,0,11.5-3.9,20.7,10.8c5.4,20.3,9.4,41,12,61.9
			c0,0,3.4,34.8-19.2,60.1c0,0-5.5,13.5-48.6,10.4c0,0-9.7-2.5-25.6-7.7c-30.7-10-60.7-22.1-89.8-36.3l-104.8-54.8
			c-16.2-6.1-24.7-4.4-24.7-4.4l12.8,49.6l-18.6-60.1l0.9-0.2c0,0,0.4-6.5-1.8-17.6c61.1-37.3,99.7-18.6,99.7-18.6l90.3,25.5
			l12.1,1.7l3.8,0.9L823.8,697.8z"/>
		<path class="st1" d="M930,660.7c1,16-1.5,23.4-1.5,23.4c-1.7,14.5-7.7,5.5-7.7,5.5c-0.5-0.9-1-1.8-1.5-2.5
			c-1.8-6.6-2.9-10.4-2.9-10.4l-15.6-21.8c8.6-0.2,20.4,0.6,28,5.9L930,660.7z"/>
		<path class="st1" d="M930,660.7l-1.1,0.1c-7.6-5.3-19.4-6.1-28-5.9l-11.3-15.8c7.4-1.1,22.3-2.4,36.9,1.5l0.7-0.1
			C928.6,647.1,929.5,653.9,930,660.7z"/>
		<path class="st1" d="M927.3,640.4l-0.7,0.1c-14.6-3.9-29.5-2.6-36.9-1.5l-13.2-18.5l2.2-1.7c0,0,6.6-3.7,42.7,0.1l1.2-0.3
			c0.7,3.2,0.9,5.3,0.9,5.3C925,630,926.3,635.5,927.3,640.4z"/>
		<path class="st1" d="M922.5,618.7l-1.2,0.3c-36.1-3.8-42.7-0.1-42.7-0.1l-2.2,1.7l-11.3-15.8c12.9-11.2,19.2-7.9,19.2-7.9
			l30.1,0.9C919,604.7,921.4,613.3,922.5,618.7z"/>
		<path class="st1" d="M900.9,654.9l15.6,21.8c0,0,1.2,3.8,2.9,10.4c-9.2-14.7-20.7-10.8-20.7-10.8c-15.4,7-26.4,24.9-26.4,24.9
			l-48.5-3.4l-9.8-1.3l-43.6-10.7c29.8-11.6,36.1-14.2,36.1-14.2c3.4-2.1,6.5-4.5,9.4-7.2c15.2-13.8,28.9-36,28.9-36
			c8-11.5,14.8-18.9,20.3-23.7l11.3,15.8l13.2,18.5L900.9,654.9z"/>
		<path class="st8" d="M855.2,591l9.8,13.7c-5.5,4.8-12.3,12.2-20.3,23.7c0,0-13.7,22.2-28.9,36l-0.3-0.4c0,0-5.6-146.1-98.8-187.4
			v-0.1c0,0,13.7-2,46,7.8l23,15c36.7,23.1,53.3,49.3,69,90.3C854.9,590.1,855.1,590.6,855.2,591z"/>
		<path class="st8" d="M838,811.7c4.4,19,23.6,107.2,19.5,193.5c0,0-182.9,32.5-364.7,0c0,0,31.8-145,10.2-251.8l2.6-1.8
			c4,7.9,6.5,12.5,6.5,12.5c23.3,61.8,52.3,75.7,52.3,75.7c79,4.1,183.8-64.4,183.8-64.4C777.3,789.6,807.3,801.7,838,811.7z"/>
		<path class="st14" d="M815.5,664.1l0.3,0.4c-2.9,2.7-6,5.1-9.4,7.2c0,0-6.3,2.6-36.1,14.2l43.6,10.7l-12.1-1.7l-90.3-25.5
			c0,0-38.6-18.6-99.6,18.6c-1.5-7.5-3.6-14.8-6.3-21.9c0,0-22.1-100.6-75.1-167.3c7.4-3.5,24-10.6,60.2-23.3l-0.2,3.8l116.7,88.2
			c28.1-64.4,8.9-81.5,8.9-81.5l-1.1-9.9l0.4-0.1c0.4,0.2,0.8,0.3,1.1,0.5C809.9,517.9,815.5,664.1,815.5,664.1z"/>
		<path class="st1" d="M643.4,720.7l104.8,54.8c0,0-104.8,68.5-183.8,64.4c0,0-29-13.9-52.3-75.7c0,0-2.5-4.7-6.5-12.5
			c-3.5-7-8.3-16.6-13.3-27.7c31.9-2.3,75.1-7.3,120.5-18.1l18.6,60.1l-12.8-49.7C618.7,716.3,627.2,714.6,643.4,720.7z"/>
		<path class="st1" d="M590.7,475.5l2.3-49.6c0,0,2.2,2.4,18.8,14.4c0,0,19.4,12.3,47.7,17c0,0,10.8,5.7,53.1-5.1l2.6,23.9l1.1,9.9
			c0,0,19.2,17.1-8.9,81.5l-116.7-88.2L590.7,475.5z"/>
		<path class="st8" d="M453.8,603.8c0,0,3.1-9.5,8.7-22.9c-3.7,10.7-6.8,21.6-9.3,32.7C453.1,610.4,453.3,607.1,453.8,603.8z"/>
		<path class="st8" d="M529.9,498.3c-2.2,1.1-24.7,12.5-43.2,36.6c10.1-15.2,22.2-28.7,35.7-35.3c1.9-1.2,3.9-2.2,6-3.1
			C528.9,497.1,529.4,497.7,529.9,498.3z"/>
		<path class="st8" d="M616,703c0,0.2,0,0.3,0,0.3l-0.9,0.2c-0.2,0-0.3,0.1-0.5,0.1l-0.9,0.2l-2.2,0.5c-22.5,5-44.6,8.7-65,11.5
			c20-2.8,42.1-6.7,64.8-12.1c-0.1-5.1-0.7-10.2-1.8-15.3c-1.4-7.3-3.5-14.5-6.1-21.5l-0.1-0.3c-0.2-1-22.3-99.4-73.5-164.9
			c-1.3,0.6-2.5,1.2-3.6,2l-0.4,0.2c-2.3,1.2-4.6,2.6-6.7,4.2c-33.4,24.3-55.9,94.5-57.3,98.6c-0.2,1.8-0.4,3.6-0.4,5.4l2,2.3
			l-1.9,3.7l-3.4,6.4c-0.2,0.2-0.5,0.4-0.7,0.6c-1,0.6-3,0.8-3-5.7c-1.7,7.8-3.3,16.5-4.8,26.1c-0.6,6.5-0.9,13.9-0.9,22.3
			c0,42.4-1.7,53.4-1.7,53.4l41.4-0.3h5.1l0.3,0.5l-2.5,0.2c0,0,0,0.1,0.1,0.1c0.4,0.8,0.7,1.5,1,2.3l-2.5,0.2
			c-30.5,2.1-50,1.7-50,1.7c1.9-49.6,7.5-86.1,13.4-112.1l0,0c0.2-0.9,0.4-1.7,0.6-2.5c0.6-2.5,1.2-4.9,1.8-7.2
			c0.1-0.5,0.3-1,0.4-1.4l0.4-1.4c0.2-0.9,0.5-1.8,0.7-2.7l0,0c0,0,0,0,0-0.1c0.3-1,0.6-2,0.9-3c0.2-0.6,0.3-1.1,0.5-1.7
			c0-0.1,0.1-0.2,0.1-0.3c0.5-1.6,0.9-3.1,1.4-4.6c0.5-1.5,1-3.1,1.5-4.5c0,0,0-0.1,0-0.1l0,0c0.2-0.5,0.3-1,0.5-1.5l0.5-1.6l0,0
			c5.6-13.3,13.9-30.5,24.1-46c0,0,0-0.1,0.1-0.1c0.4-0.6,0.8-1.1,1.3-1.6c0.4-0.5,0.7-0.9,1.1-1.3c0.9-1.1,1.8-2.2,2.7-3.2
			c0.2-0.2,0.3-0.4,0.5-0.6c0.5-0.6,1-1.2,1.6-1.7c1.1-1.2,2.3-2.4,3.4-3.6c0.3-0.3,0.6-0.6,0.9-0.9c0.3-0.3,0.6-0.6,0.9-0.9
			c0.6-0.6,1.2-1.1,1.8-1.7l1.3-1.3c0.4-0.4,0.9-0.8,1.3-1.2c0.7-0.6,1.3-1.2,2-1.8l1.9-1.6l1.3-1l1.3-1l1.3-1l1.2-1l1.6-1.2
			c0.5-0.3,0.9-0.7,1.4-1l1.3-1l0.2-0.2l1-0.7l0.9-0.6c0.1,0,0.2-0.1,0.2-0.2l1-0.7c2.5-1.6,4.6-2.9,6.2-3.8l0.8-0.5
			c0,0,0.1-0.1,0.2-0.1c0.3-0.2,0.6-0.3,0.9-0.5c0.3-0.1,0.4-0.2,0.6-0.3c0.5-0.3,0.9-0.5,1.1-0.6c0.2,0.2,0.3,0.4,0.5,0.6l1.5,1.9
			c2,2.5,4,5.1,5.9,7.7l0.4,0.6l0.1,0.1l0.1,0.2c40.6,55.2,61.6,126.1,67.4,147.8c0.1,0.2,0.1,0.4,0.2,0.6c0.1,0.4,0.2,0.7,0.3,1
			c0,0.1,0,0.1,0,0.2c0,0.2,0.1,0.4,0.2,0.6c0.2,0.7,0.3,1.3,0.5,1.8c0.4,1.6,0.6,2.4,0.6,2.4c2.6,6.6,4.7,13.3,6.3,20.3
			c0.1,0.6,0.2,1.1,0.4,1.6c0.1,0.3,0.1,0.6,0.2,0.9c0.2,0.9,0.3,1.7,0.5,2.5C615.5,693.7,616,698.4,616,703z"/>
		<path class="st8" d="M471.8,559.7c3.9-8.8,8.9-17.1,14.8-24.7c-10.2,15.5-18.4,32.6-24.1,46C467.8,566,471.8,559.7,471.8,559.7z"
			/>
		<path class="st8" d="M530.5,498.7l-0.2,0.1c-0.1-0.2-0.3-0.4-0.5-0.6l0.2-0.1C530.2,498.4,530.4,498.6,530.5,498.7z"/>
		<path d="M708.2,571.1l-120-90.7l0.2-5l2.5-54.9l3.7,3.9c0.1,0.1,2.7,2.7,18.4,14.1c14.5,8.3,30.3,13.9,46.7,16.6l0.7,0.2
			c0.1,0,11.2,5,51.5-5.3l2.5-0.6l3.9,35.6c3.4,3.9,16.8,24.4-9,83.5L708.2,571.1z M592.9,478.1l113.5,85.8
			c25.2-59.4,8.5-76,8.3-76.1l-0.6-0.6l-0.1-0.9l-3.4-31.1c-37.1,9.2-49.3,5.5-51.8,4.4c-28.3-4.8-47.4-16.8-48.2-17.3
			c-8.1-5.9-12.8-9.5-15.5-11.7L592.9,478.1z"/>
		<path d="M455.1,609c-0.1,1.9-0.1,3.8,0,5.9l-3.5,6.3c-0.2,0.2-0.5,0.4-0.7,0.5c-0.7-5.3-0.8-10.7-0.4-16c0-0.3,0-0.7,0.1-1
			c0.1-0.6,0.1-1.3,0.2-1.9l0.1-0.4c0.1-0.4,0.6-1.9,1.4-4.1l0,0c3.6-10.2,13.9-37.1,29.1-60.9v-0.1c0.5-0.8,1.1-1.7,1.6-2.5v-0.1
			c3.9-5.9,8.2-11.5,12.8-16.8V518c7.2-8.2,15.2-15,23.8-19.2c1.7-1,3.5-2,5.4-2.7c0.2-0.1,0.5-0.2,0.8-0.3l1.7-0.8
			c8.5-3.7,25.6-10.4,59.6-21.6c0.5-0.2,1-0.3,1.5-0.5l0.8-0.3l0.1,0.2l1.3,4.3l-0.2,0.1c-0.2,0.1-0.3,0.1-0.5,0.2l-0.8,0.3
			c-0.8,0.3-1.6,0.5-2.4,0.8c-31.2,10.4-47.6,16.7-56.3,20.4l-2.3,1l-0.1,0.1c-0.1,0.1-0.3,0.1-0.4,0.2l-1.7,0.8
			c-1.3,0.6-2.6,1.2-3.8,2l-0.4,0.2c-2.4,1.2-4.8,2.6-7,4.1c-34.7,23.8-58.1,92.7-59.5,96.7C455.2,605.5,455.1,607.3,455.1,609z"/>
		<path d="M752.9,775.2l-2.2,1.4l-1.2,0.8l-1,0.7c-11,7-103.6,64.2-177.1,64.3c-2.3,0-4.6-0.1-6.9-0.2h-0.5l-0.4-0.2
			c-1.2-0.6-29.7-14.9-53-75.8l0,0c-0.1-0.3-0.2-0.6-0.4-1c-0.5-0.8-2.8-5.3-6.3-12.2l-0.1-0.2c-0.4-0.8-0.8-1.6-1.2-2.4
			c-4.1-8.3-7.9-16.1-11.5-23.9l-0.7-1.5c-0.1-0.3-0.3-0.6-0.4-0.8c-0.3-0.8-0.7-1.5-1-2.3c-0.2-0.3-0.3-0.7-0.5-1h5.1l0.3,0.5
			c0,0,0,0.1,0.1,0.1c0.2,0.5,0.5,1,0.7,1.5c0.1,0.3,0.3,0.6,0.4,0.8c0.4,0.8,0.7,1.5,1,2.3c3.7,7.9,7.6,16,11.8,24.5
			c3.9,7.7,6.5,12.4,6.5,12.5l0.1,0.3c21.2,56.2,47.3,72.3,50.7,74.2c69.2,3.2,159.6-50.2,178.4-61.8l-101-52.8
			c-10.2-3.9-17.3-4.5-20.8-4.4l12.1,46.8l-4.5,1.3l-16.6-58.3l-0.7-2.4l-0.5-1.7l-0.2-0.6l1-7.3l1.2,3.9l0,0l1,3.3l1.2,3.9l2,6.5
			l0.4-0.1c0.4-0.1,9.3-1.8,26,4.5l0.3,0.1l104.7,54.8L752.9,775.2z"/>
		<path d="M898.7,710.6l-97.4-13.4l-90.7-25.7c-0.4-0.2-38.4-17.5-97.5,18.5c-0.4,0.2-0.8,0.4-1.2,0.7v-2.8c1.8-1.2-3-1-1.2-2
			c59.9-36.5,98.2-20.4,101.6-18.8l90,25.4l97,13.3L898.7,710.6z"/>
		<path d="M784.6,501.4c37.3,23.5,53.2,50.5,68,89.2l0.5,1.3l12.3,17.2c0.6-0.9,1.3-1.7,2-2.4c0.4-0.4,0.8-0.7,1.2-1.1l-11.3-15.7
			l-0.4-1c-15.2-39.6-31.6-67.2-69.9-91.5l-23-15l-0.6-0.3c-32.5-9.9-46.5-8-47-7.9l0.7,4.7c0.1,0,13.7-1.8,44.8,7.7L784.6,501.4z"
			/>
		<path d="M921.6,686.4l-0.5-1.9c-1.3-0.9-2.5-1.8-3.6-2.9c-1.5-1.5-2.7-3.3-3.8-5.1c-0.1-0.2-0.2-0.4-0.3-0.6l-0.4,0.1l1.3,1.8
			c0.3,1.1,1.4,4.6,2.8,9.9c5.4,20.2,9.4,40.7,11.9,61.5c0,0.3,3.1,34-18.6,58.2l-0.4,0.6c-0.1,0.1-6.1,11.9-46.1,9.1
			c-1.5-0.4-10.9-2.9-25.3-7.6c-30.6-10-60.5-22-89.5-36.1l-2,4.3c29.2,14.2,59.3,26.3,90.1,36.4c15.8,5.1,25.6,7.7,25.8,7.7
			l0.4,0.1c4.4,0.3,8.5,0.5,12.2,0.5c30.2,0,37.2-9.4,38.5-11.9c22.8-25.7,19.7-60.2,19.5-61.7C931.1,727.6,927.1,706.9,921.6,686.4
			z"/>
		<path d="M873.5,703.7l-56.3-3.9l-54.8-13.4l7.1-2.8c27-10.5,34.7-13.6,35.9-14.1c3.2-2,6.1-4.3,8.9-6.8
			c14.8-13.5,28.4-35.3,28.5-35.5c7.4-10.6,14.3-18.7,20.8-24.3c12-10.4,19.1-9.2,21.1-8.5l30.9,0.9l0.7,1
			c5.1,7.7,7.5,17.1,8.5,21.9c0.6,2.7,0.9,4.7,0.9,5.3c1.5,5.5,2.8,11,3.9,16.4c1.4,6.8,2.3,13.7,2.8,20.6c1,14.8-1,22.5-1.5,24.1
			c-0.5,3.9-1.5,9.1-5.1,10c-3.5,0.9-6.1-2.9-6.7-3.7c-0.6-1-1-1.9-1.5-2.6c-7.7-12.3-16.8-10.1-17.9-9.8
			c-14.5,6.7-25.2,23.8-25.3,24L873.5,703.7z M818.2,695.1l53,3.7c2.8-4.2,13-18.4,26.6-24.6c0.7-0.3,13.5-4.4,23.6,11.7
			c0.5,0.8,1,1.7,1.5,2.7c0.4,0.6,1,1.2,1.7,1.5c0-0.1,1-1,1.6-6.1l0.1-0.5c0-0.1,2.3-7.3,1.3-22.4c-0.5-6.7-1.4-13.4-2.7-19.9
			c-1-5.3-2.3-10.8-3.8-16.2l-0.1-0.4c0,0-0.2-2-0.9-5.1c-0.9-4.3-3-12.4-7.2-19.3l-29.4-0.9l-0.5-0.2l0,0c0,0-5.4-2-16.6,7.6
			c-6.1,5.3-12.8,13.1-19.9,23.3c-0.5,0.8-14,22.5-29.3,36.4c-3,2.8-6.3,5.3-9.8,7.5l-0.3,0.2c-0.1,0-5.5,2.3-29,11.5L818.2,695.1z"
			/>
		<path d="M667.7,1021.9c-54.2,0-114.9-3.6-175.2-14.3l-2.4-0.4l0.5-2.5c0.3-1.4,31.8-155.5,10.6-260.5l6.5,6.4
			c19.9,98.4-8,233.1-12.1,252.7c168.8,29.7,340.1,3.1,359.6-0.1c3.7-86-15.6-174-19.6-190.9c-0.6-2.4-0.9-3.7-0.9-3.7l4.5-1.2
			c0,0,0.3,1.3,0.9,3.8c4,17.1,23.7,106.9,19.6,194.2l-0.1,1.9l-1.8,0.3C856.7,1007.8,775.1,1021.9,667.7,1021.9z"/>
		<path d="M616,703c-0.2-4.6-0.7-9.3-1.5-13.8c-0.1-0.6-0.2-1.1-0.3-1.7l0,0c0-0.3-0.1-0.5-0.2-0.8c-0.2-0.8-0.3-1.6-0.5-2.4l0,0
			c-1.4-6.4-3.3-12.7-5.6-18.9c-0.1-0.5-0.4-1.8-0.9-3.9c-0.1-0.6-0.3-1.1-0.5-1.8c0-0.2-0.1-0.4-0.2-0.6c0-0.1,0-0.1,0-0.2
			c-0.1-0.3-0.2-0.7-0.3-1c-0.1-0.2-0.1-0.4-0.2-0.6c-6.6-25.3-29-102.5-71.6-157.5c-0.5-0.6-1-1.3-1.5-1.9l-0.3-0.4l-1.1-1.5
			l-0.4-0.6l-1.7,0.8c-0.3,0.1-1.3,0.6-3,1.6h-0.1c-7.6,4.3-14.8,9.3-21.4,15l0,0l0,0c-14.8,12.5-26.7,28.2-34.7,45.9
			c-2.1,3.4-27.7,47-32.3,167.2l-0.1,2.4l2.4,0.1c0.1,0,1.6,0,4.6,0c7.6,0,24.3-0.2,46.5-1.8l1.6-0.1l0.9-0.1l2.5-0.2
			c29-2.2,71.7-7.1,116.8-17.8l0.7-0.2h0.2l2.3-0.6h0.1l0.1-1.8C616,705.6,616.1,704.7,616,703z M493.8,721.4l-1.6,0.1l-0.9,0.1
			l-2.5,0.2c-23.6,1.6-40.6,1.7-46.6,1.6c1-26.2,3.4-52.2,7.4-78.1c1.5-9.6,3.1-18.3,4.8-26.1c0.7-3.3,1.4-6.4,2.2-9.4
			c0.2-0.7,0.4-1.5,0.6-2.2c0.6-2.3,1.1-4.4,1.7-6.5l0,0c7.6-28.1,14.8-39.9,15-40.1l0.2-0.3c1.9-4.3,4.1-8.5,6.5-12.6l0.1-0.2
			c2.4-4,5-7.8,7.8-11.5l0,0c8.1-10.5,17.8-19.7,28.6-27.4c0.9-0.6,1.7-1.2,2.5-1.8c3.2-2.2,6.5-4.2,9.9-6.1
			c0.1,0.2,0.3,0.3,0.4,0.5c51.2,65.5,73.3,163.9,73.5,164.9l0.1,0.3c2.6,7,4.7,14.2,6.1,21.5c1,5,1.6,10.1,1.8,15.3
			c-22.7,5.4-44.8,9.2-64.8,12.1l-3.6,0.5C524.2,718.8,507.4,720.4,493.8,721.4L493.8,721.4z"/>
		<path class="st14" d="M611.4,703.7c-22.7,5.4-44.8,9.2-64.8,12.1l-3.6,0.5c-18,2.3-34.6,3.9-49.2,5l-0.3-0.5h-5.1l-46.1,2.6
			c0,0-2-10.7,6.5-55.8c1.5-8.2,0.3-15.8,0.9-22.3c1.5-9.6,3.1-18.3,4.8-26.1c0,6.5,1.9,6.3,3,5.7c0.3-0.2,0.5-0.3,0.7-0.6l3.4-6.4
			l1.9-3.7l-2-2.2c0.1-1.8,0.2-3.6,0.4-5.4c1.3-4.1,23.9-74.3,57.2-98.5c2.1-1.6,4.4-2.9,6.7-4.2l0.4-0.2c1.2-0.7,2.4-1.4,3.6-2
			c51.2,65.5,73.3,163.9,73.5,164.9l0.1,0.3c2.6,7,4.7,14.2,6.1,21.5C610.6,693.5,611.2,698.6,611.4,703.7z"/>
		<path d="M813.2,664.2c0-1.4-6.7-145.1-97.4-185.3c-0.4-0.2-0.6-0.3-0.9-0.4l-0.3-0.1l1.8-4.4l0.2,0.1c0.3,0.2,0.7,0.3,1,0.5
			c93.3,41.4,100,188,100.1,189.5L813.2,664.2z"/>
		<path class="st11" d="M927.9,662.3c-7.3-5.1-18.7-5.8-27-5.6c-3.6,0.1-7.2,0.4-10.7,0.9l-0.5-3.6c3.7-0.5,7.4-0.9,11.2-0.9
			c8.8-0.2,21,0.6,29,6.2L927.9,662.3z"/>
		<path class="st11" d="M926.1,642.3c-14.2-3.8-28.8-2.6-36.3-1.5c-2.9,0.4-4.7,0.8-4.7,0.8l-0.7-3.5c0.1,0,1.9-0.4,4.9-0.9
			c7.7-1.1,22.8-2.4,37.6,1.6L926.1,642.3z"/>
		<path class="st11" d="M921.1,620.8c-34.3-3.6-41.5-0.4-41.8-0.3l-1.6-3.2c0.7-0.4,8.1-3.9,43.7-0.1L921.1,620.8z"/>
		<rect x="616.6" y="345.5" class="st1" width="121.9" height="60.2"/>
		<path class="st15" d="M680.8,392.4c-29.7,0-46.1-21.6-46.3-22l5.4-4.2l-2.7,2.1l2.7-2.1c1.3,1.7,31.4,41.1,86.6,2.3l3.8,5.8
			C711.1,387.7,694.5,392.4,680.8,392.4z"/>
		<path class="st15" d="M632.7,372.1c-4.9,0-9-1.7-11.5-5.1l5.4-4.2c2.8,3.9,12.4,3.2,21.8-3.9l4,5.6
			C645.9,369.5,638.7,372.1,632.7,372.1z"/>
		<path class="st0" d="M288.3,280.1c0.1,16.4-13.2,29.8-29.6,29.8c-0.1,0-0.2,0-0.3,0c-9.1,0-21-3.7-26.8-8.9
			c-5.6-5-9.4-11.7-7.5-20.9c3.1-15,15.9-30.6,33.6-30.6S288.3,264.7,288.3,280.1z"/>
		<path class="st13" d="M276.4,260.2c0,0-24.4,16.2-6.4,50.3h-12.7c0,0-12.1-18-7.3-39c1.7-7.6,3.6-16.2,8.8-24.7L276.4,260.2z"/>
		<path d="M253.6,310c-6-8.3-7.4-19.1-7.2-29.3c0.2-11.4,2.9-22.6,7.9-32.8c0.4-0.9,1.5-1.4,2.4-1s1.4,1.5,1,2.4
			c0,0.1-0.1,0.1-0.1,0.2c-4.6,9.3-7.1,19.3-7.6,29.6c-0.5,9.7,0.7,20.5,6.4,28.4C258,309.6,255.1,312,253.6,310L253.6,310z"/>
		<path class="st3" d="M260.1,280.2c-1.4,13.6-2.9,27.7,8.7,29.5c11.7,1.8,37.8-5.3,39.1-18.9c1.4-13.6-12.5-30.2-24.2-31.9
			C272,257,261.5,266.6,260.1,280.2z"/>
		<path class="st0" d="M273.8,290.1c7.3,2.6,13.5-12.9,13.5-12.9s-10.2-10.5-10.6-10.1C268.9,274.4,266.4,287.5,273.8,290.1z"/>
		<path class="st3" d="M421.8,352.8c-6.7-10.5-14.6-15.8-23.6-15.8l0,0c-17.5,0-27.9,20-32.3,26.2c-6.8-3.6-37.8-18.1-64.6-48.4
			c-21.1-24.1-37.8-51.7-49.4-81.6c32.5-0.7,53.7,17.2,53.9,17.4l0.1,0.1c1.2,0.9,3.6,2.7,5.8,2.7c0.8,0,1.6-0.3,2.2-0.8
			c2.1-1.8,1.2-5.4,0.2-8.3c-0.6-1.6-1.2-3.2-1.9-4.7c-0.5-1.1-8.1-17.7-23.6-25.2c-17-8-30.5-5.4-38.9-1.8
			c-1.5,0.6-2.9,1.4-4.3,2.2c-8.1-25.6-13.2-52-15.1-78.7l-0.2-2.8l-2.7,0.7c-17.2,4.5-51.6,33.8-75.8,57.5
			c-10.2,10.1-21.2,21.5-31,32.8c-0.1,0.1-0.2,0.2-0.2,0.3c-11.9,13.6-22,27.1-27.3,37.8c0.6-11.6,2.4-23.1,5.5-34.3
			c5.5-20.4,17.6-49.6,44.4-73c14.7-12.6,31.6-22.3,49.9-28.6l-1.5-4.5c-18,6.2-34.7,15.6-49.3,27.7c5.7-14.2,14.8-24.3,27-30
			c24.6-11.5,55.2-2.1,62.7,0.5c-4.1,1.7-8,3.6-11.9,5.8l2.3,4.1l0,0c0.4-0.2,31.4-18,72-19.3c54.3-1.8,99,24.9,133,79.5v0.1
			c11.7,19,20.4,39.7,25.6,61.4c10.6,45,2,82.8-25.4,112.5C425.9,360.1,424,356.3,421.8,352.8z"/>
		<path class="st6" d="M166,213.8c3.9,1.1,6.6,2.9,7.8,5.4c1,2.3,1.2,4.9,0.5,7.3l-0.1,0.3c-0.3,0.8-0.8,1.5-1.6,1.9
			c-1.2,0.7-3.1,0.6-5.5-0.3c-15.8-5.8-32.3-7.2-42.2-7.9l-3.5-0.3c5.5-5,19.2-8,31.4-8C157.2,212.2,161.7,212.7,166,213.8z"/>
		<path class="st3" d="M114.6,220.7l-0.6,1.2l0.7,1.5c1,1.8,2.7,2,9.9,2.6c9.6,0.8,25.6,2.1,40.8,7.7c1.7,0.6,3.5,1,5.2,1
			c1.6,0,3.2-0.4,4.6-1.1c2-1.2,3.5-3,4.1-5.3c1.2-3.8,0.9-7.9-0.7-11.4c-2-3.9-5.7-6.7-11.2-8.2
			C152.9,204.5,120.2,207.5,114.6,220.7z M121.4,220.2c5.5-5,19.2-8,31.4-8c4.4-0.1,8.9,0.4,13.2,1.5c3.9,1.1,6.6,2.9,7.8,5.4
			c1,2.3,1.2,4.9,0.5,7.3l-0.1,0.3c-0.3,0.8-0.8,1.5-1.6,1.9c-1.2,0.7-3.1,0.6-5.5-0.3c-15.8-5.8-32.3-7.2-42.2-7.9L121.4,220.2z"/>
		<path class="st3" d="M243.5,209.9l10,32.4c0,0,1.6-2.6,3-2.8c1.4-0.2,10.5-6.1,10.5-6.1L243.5,209.9z"/>
		<path class="st0" d="M664.1,598.8c0-0.1,0-0.2,0-0.3c0-0.4-0.3-0.7-0.7-0.7c0,0,0,0,0,0c-0.1,0-0.2,0-0.3,0
			c-0.1,0.1-0.3,0.1-0.4,0.2c-12.2,12.6-26.8,7-28.1-8v-0.3c0-0.1,0-0.2,0-0.3c-0.1-0.3-0.4-0.5-0.7-0.5c-0.2,0-0.5,0.1-0.6,0.3
			c-0.1,0.1-0.2,0.3-0.2,0.4c-7.1,19.7,0.3,43.5,22.5,66.1c0.1,0.1,0.1,0.1,0.2,0.1c0.1,0.1,0.2,0.1,0.3,0.1c0.3,0,0.6-0.3,0.6-0.6
			c0,0,0-0.1,0-0.1c0-0.1-0.1-0.3-0.1-0.4c-0.1-0.1-0.1-0.2-0.2-0.3c-0.1-0.1-0.1-0.3-0.2-0.5c0,0,0,0,0-0.1l-0.2-0.5
			c0-0.1,0-0.1-0.1-0.2l-0.1-0.4c0,0-0.1-0.1-0.1-0.2c0-0.1-0.1-0.2-0.1-0.3c0-0.1-0.1-0.1-0.1-0.2c0-0.1-0.1-0.2-0.1-0.3l-0.1-0.2
			c0-0.1-0.1-0.2-0.1-0.3c0-0.1-0.1-0.1-0.1-0.2c0-0.1-0.1-0.2-0.1-0.3c0-0.1,0-0.1-0.1-0.2l-0.1-0.4c0,0,0-0.1,0-0.1l-0.2-0.5
			c0-0.1,0-0.1-0.1-0.2l-0.1-0.4l-0.1-0.2c0-0.1-0.1-0.2-0.1-0.3l-0.1-0.2l-0.1-0.3c0-0.1,0-0.2-0.1-0.2c0-0.1-0.1-0.2-0.1-0.3
			c0-0.1,0-0.2,0-0.2c0-0.1-0.1-0.2-0.1-0.3c0-0.1-0.1-0.1-0.1-0.2c0-0.1-0.1-0.2-0.1-0.4c0-0.1,0-0.1,0-0.2l-0.1-0.5
			c0,0,0-0.1,0-0.2c0-0.1-0.1-0.2-0.1-0.3c0-0.1,0-0.1,0-0.2c0-0.1-0.1-0.2-0.1-0.3c0-0.1,0-0.1,0-0.2l-0.1-0.3c0-0.1,0-0.2,0-0.2
			c0-0.1,0-0.2,0-0.3c0-0.1,0-0.1-0.1-0.2c0-0.1,0-0.2,0-0.3c0-0.1,0-0.2,0-0.2l-0.1-0.3c0-0.1,0-0.1,0-0.2c0-0.1-0.1-0.3-0.1-0.5
			s0-0.1,0-0.2c0-0.1,0-0.2,0-0.3c0-0.1,0-0.2,0-0.2c0-0.1,0-0.2,0-0.3c0-0.1,0-0.2,0-0.2c0-0.1,0-0.2,0-0.3c0-0.1,0-0.2,0-0.3
			c0-0.1,0-0.2,0-0.2c0-0.1,0-0.2,0-0.3c0-0.1,0-0.2,0-0.2c0-0.1,0-0.2,0-0.2c0-0.1,0-0.2,0-0.3s0-0.2,0-0.2c0-0.1,0-0.2,0-0.3
			c0-0.1,0-0.3-0.1-0.4c0-0.1,0-0.1,0-0.2v-0.3c0-0.1,0-0.1,0-0.2c0-0.1,0-0.2,0-0.3V637c0-0.1,0-0.2,0-0.3v-0.2c0-0.1,0-0.2,0-0.3
			v-0.2c0-0.1,0-0.2,0-0.3v-0.2c0-0.4,0-0.7,0-1.1v-0.6c0-0.1,0-0.2,0-0.3v-0.6c0-0.1,0-0.2,0-0.3v-0.1c0-0.1,0-0.2,0-0.3V632
			c0-0.5,0-1.1,0.1-1.7c0,0,0,0,0-0.1c0-0.1,0-0.3,0-0.4v-0.1c0-0.1,0-0.2,0-0.4v-0.1c0-0.1,0-0.3,0-0.4V629c0.1-1,0.3-2,0.4-3.1
			c0.8-4.3,2-8.6,3.7-12.6c1.8-4.2,3.9-8.3,6.2-12.2c0.4-0.7,0.9-1.4,1.4-2.1L664.1,598.8z"/>
		<path class="st0" d="M167.3,668.3c0-0.1,0.1-0.2,0.1-0.3c0-0.4-0.3-0.7-0.7-0.7c-0.1,0-0.2,0-0.3,0.1c-0.1,0.1-0.3,0.1-0.4,0.2
			c-12.2,12.6-26.8,7-28.1-8v-0.3c0-0.1,0-0.2,0-0.3c-0.1-0.3-0.4-0.5-0.7-0.5c-0.2,0-0.5,0.1-0.6,0.3c-0.1,0.1-0.2,0.3-0.2,0.4
			c-7.1,19.7,0.3,43.5,22.5,66.1c0,0.1,0.1,0.1,0.2,0.1c0.1,0.1,0.2,0.1,0.3,0.1c0.3,0,0.6-0.2,0.6-0.6c0,0,0,0,0,0c0,0,0-0.1,0-0.1
			c0-0.1-0.1-0.3-0.1-0.4c0-0.1-0.1-0.2-0.2-0.3c0-0.1-0.1-0.3-0.2-0.5c-0.1-0.1,0,0,0-0.1c-0.1-0.2-0.1-0.4-0.2-0.5
			c0-0.1,0-0.1-0.1-0.2l-0.1-0.4c0-0.1-0.1-0.1-0.1-0.2c-0.1-0.1-0.1-0.2-0.1-0.3c0-0.1-0.1-0.1-0.1-0.2c0-0.1-0.1-0.2-0.1-0.3
			l-0.1-0.2c0-0.1-0.1-0.2-0.1-0.3c0-0.1-0.1-0.1-0.1-0.2c0-0.1-0.1-0.2-0.1-0.3c0-0.1,0-0.1-0.1-0.2l-0.1-0.4c0,0,0-0.1,0-0.1
			c-0.1-0.2-0.1-0.3-0.2-0.5c0-0.1,0-0.1,0-0.2c-0.1-0.1-0.1-0.2-0.1-0.4l-0.1-0.2c0-0.1-0.1-0.2-0.1-0.3l-0.1-0.2l-0.1-0.3
			c0-0.1,0-0.2-0.1-0.2c0-0.1-0.1-0.2-0.1-0.3c0-0.1,0-0.2,0-0.2c0-0.1-0.1-0.2-0.1-0.3c0-0.1,0-0.1,0-0.2c0-0.1-0.1-0.2-0.1-0.4
			c0-0.1,0-0.1-0.1-0.2l-0.1-0.5c0,0,0-0.1,0-0.2c0,0-0.1-0.2-0.1-0.3c0-0.1,0-0.1,0-0.2c0-0.1-0.1-0.2-0.1-0.3c0-0.1,0-0.1-0.1-0.2
			l-0.1-0.3c0-0.1,0-0.2,0-0.2c0-0.1,0-0.2,0-0.3c0-0.1,0-0.1,0-0.2c0-0.1,0-0.2-0.1-0.3c0-0.1,0-0.2,0-0.2l-0.1-0.3
			c0-0.1,0-0.1,0-0.2c0-0.1-0.1-0.3-0.1-0.5c0-0.2,0-0.1,0-0.2c0-0.1,0-0.2,0-0.3c0-0.1,0-0.2-0.1-0.2c0-0.1,0-0.2,0-0.3
			s0-0.2,0-0.2c0-0.1,0-0.2,0-0.3c0-0.1,0-0.2,0-0.3c0-0.1,0-0.2,0-0.2c0-0.1,0-0.2,0-0.3c0-0.1,0-0.2,0-0.2c0-0.1,0-0.2,0-0.2
			c0-0.1,0-0.2,0-0.3c0-0.1,0-0.2,0-0.2c0-0.1,0-0.2,0-0.3s0-0.3,0-0.4c0-0.1,0-0.1,0-0.2v-0.3c0-0.1,0-0.1,0-0.2c0-0.1,0-0.2,0-0.3
			v-0.2c0-0.1,0-0.2,0-0.3v-0.2c0-0.1,0-0.2,0-0.3v-0.2c0-0.1,0-0.2,0-0.3v-0.2c0-0.3,0-0.7,0-1.1v-0.6c0-0.1,0-0.2,0-0.3v-0.6
			c0-0.1,0-0.2,0-0.3V702c0-0.1,0-0.2,0-0.3v-0.1c0-0.6,0-1.1,0.1-1.7l0,0c0-0.1,0-0.3,0-0.4v-0.1c0-0.1,0-0.2,0-0.4V699
			c0-0.1,0-0.3,0-0.4v-0.1c0.1-1,0.3-2,0.4-3.1c0.8-4.3,2-8.6,3.7-12.6c1.8-4.2,3.9-8.3,6.2-12.1c0.4-0.7,0.9-1.4,1.4-2.1
			L167.3,668.3z"/>
		<path class="st0" d="M160.9,657.9v-0.5c0,0,0-0.1,0-0.1v-0.2c0,0,0,0,0-0.1c0,0,0-0.1,0-0.1v0c0,0,0-0.1,0-0.1l0,0
			c0-0.1-0.1-0.3-0.1-0.4l0,0c0-0.1,0-0.1-0.1-0.2v-0.1c0,0,0-0.1,0-0.1l0,0c0,0,0-0.1-0.1-0.1c0,0,0,0,0-0.1c0,0,0-0.1,0-0.1
			c0,0,0,0,0-0.1c0,0,0-0.1,0-0.1c0,0,0-0.1-0.1-0.1s0-0.1,0-0.1s-0.1-0.2-0.2-0.3c-0.1-0.1,0,0,0-0.1l0,0c-1.2-2.5-3.7-4.1-6.4-4.1
			c-4,0.1-7.2,3.4-7.1,7.4c0,0,0,0,0,0c0,3.1,2,5.9,5,6.9c0.1,0,0.1,0,0.2,0l0,0h0.2c0.1,0,0.3,0.1,0.4,0.1l0,0c0.1,0,0.1,0,0.2,0
			h0.1c0,0,0.1,0,0.1,0h0.3c0,0,0.1,0,0.1,0h0.3C157.7,665.1,160.9,661.8,160.9,657.9z"/>
		<path class="st0" d="M656,590.1v-0.5c0,0,0-0.1,0-0.1v-0.2c0,0,0,0,0-0.1c0,0,0-0.1,0-0.1V589c0,0,0-0.1,0-0.1l0,0
			c0-0.1,0-0.3-0.1-0.4l0,0c0-0.1,0-0.1,0-0.2l0,0c0,0,0-0.1,0-0.1l0,0c0,0,0-0.1-0.1-0.1l0,0c0,0,0-0.1,0-0.1c0,0,0,0,0-0.1
			c0,0,0-0.1,0-0.1c0,0,0,0,0-0.1s0-0.1,0-0.1l-0.2-0.3l0,0l0,0c-1.2-2.5-3.7-4.1-6.4-4.1c-4,0.1-7.2,3.4-7.1,7.4c0,0,0,0,0,0
			c0,3.3,2.1,6.2,5.2,7.1c0.1,0,0.1,0,0.2,0.1l0,0h0.2c0.1,0,0.3,0.1,0.4,0.1l0,0c0.1,0,0.1,0,0.2,0l0,0c0,0,0.1,0,0.1,0h0.3
			c0,0,0.1,0,0.1,0h0.3C653.1,597.4,656.2,594,656,590.1z"/>
	</g>
</g>
</svg>
