<?xml version="1.0" encoding="utf-8"?>
<!-- Generator: Adobe Illustrator 25.4.1, SVG Export Plug-In . SVG Version: 6.00 Build 0)  -->
<svg version="1.1" id="Logo" xmlns="http://www.w3.org/2000/svg" xmlns:xlink="http://www.w3.org/1999/xlink" x="0px" y="0px"
	 viewBox="0 0 16.3 32" style="enable-background:new 0 0 16.3 32;" xml:space="preserve">
<style type="text/css">
	.st0{fill:#FFFFFF;}
	.st1{fill-rule:evenodd;clip-rule:evenodd;fill:#FFFFFF;}
</style>
<g id="Isotipo">
	<path class="st0" d="M15.68,6.09c-0.04,0-0.08,0.01-0.11,0.02c-0.06,0.02-0.14,0.07-0.17,0.11C9.75,11.77,3.03,9.31,2.41,2.67
		c0-0.04,0-0.1,0-0.13c0-0.04-0.01-0.07-0.02-0.11C2.34,2.29,2.21,2.18,2.05,2.18c-0.12,0-0.22,0.06-0.29,0.14
		C1.73,2.38,1.7,2.41,1.66,2.52c-3.29,8.72,0.15,19.24,10.37,29.22c0.02,0.03,0.05,0.05,0.08,0.07c0.04,0.03,0.09,0.04,0.15,0.04
		c0.14,0,0.26-0.12,0.26-0.26c0-0.01,0-0.02,0-0.04c-0.01-0.05-0.05-0.14-0.07-0.19c-0.02-0.03-0.06-0.1-0.07-0.13
		c-0.03-0.07-0.06-0.13-0.09-0.2c0-0.01-0.01-0.02-0.02-0.03c-0.03-0.08-0.07-0.15-0.1-0.23c-0.01-0.03-0.02-0.05-0.03-0.08
		c-0.02-0.05-0.04-0.1-0.07-0.16c-0.01-0.03-0.03-0.06-0.04-0.09c-0.02-0.05-0.04-0.09-0.06-0.14c-0.01-0.03-0.03-0.06-0.04-0.1
		c-0.02-0.05-0.04-0.09-0.05-0.14c-0.01-0.03-0.03-0.06-0.04-0.1c-0.02-0.05-0.04-0.09-0.05-0.14c-0.01-0.03-0.02-0.06-0.04-0.09
		c-0.02-0.05-0.04-0.1-0.05-0.15c-0.01-0.03-0.02-0.06-0.03-0.09c-0.02-0.06-0.04-0.12-0.06-0.18c-0.01-0.02-0.01-0.03-0.02-0.05
		c-0.03-0.08-0.05-0.15-0.08-0.23c-0.01-0.03-0.02-0.05-0.03-0.08c-0.02-0.05-0.03-0.1-0.05-0.15c-0.01-0.03-0.02-0.06-0.03-0.09
		c-0.01-0.05-0.03-0.09-0.04-0.14c-0.01-0.03-0.02-0.07-0.03-0.1c-0.01-0.04-0.03-0.09-0.04-0.13c-0.01-0.03-0.02-0.07-0.03-0.1
		c-0.01-0.04-0.03-0.09-0.04-0.13c-0.01-0.03-0.02-0.06-0.03-0.1c-0.01-0.05-0.03-0.09-0.04-0.14c-0.01-0.03-0.02-0.06-0.03-0.09
		c-0.01-0.05-0.03-0.11-0.04-0.16c-0.01-0.02-0.01-0.05-0.02-0.07c-0.02-0.07-0.04-0.15-0.06-0.22c-0.01-0.03-0.01-0.05-0.02-0.08
		c-0.01-0.05-0.02-0.1-0.04-0.15c-0.01-0.03-0.02-0.06-0.02-0.1c-0.01-0.04-0.02-0.09-0.03-0.13c-0.01-0.03-0.02-0.07-0.02-0.1
		c-0.01-0.04-0.02-0.08-0.03-0.12c-0.01-0.03-0.02-0.07-0.02-0.1c-0.01-0.04-0.02-0.08-0.03-0.12c-0.01-0.03-0.01-0.07-0.02-0.1
		c-0.01-0.04-0.02-0.08-0.03-0.13c-0.01-0.03-0.01-0.07-0.02-0.1c-0.01-0.05-0.02-0.09-0.03-0.14c-0.01-0.03-0.01-0.06-0.02-0.09
		c-0.01-0.07-0.03-0.14-0.04-0.21c-0.01-0.03-0.01-0.06-0.02-0.09c-0.01-0.04-0.01-0.09-0.02-0.13c-0.01-0.03-0.01-0.07-0.02-0.1
		c-0.01-0.04-0.01-0.08-0.02-0.12c-0.01-0.04-0.01-0.07-0.02-0.11c-0.01-0.04-0.01-0.08-0.02-0.11c-0.01-0.04-0.01-0.07-0.01-0.11
		c0-0.04-0.01-0.07-0.01-0.11c0-0.04-0.01-0.07-0.01-0.11c0-0.04-0.01-0.07-0.01-0.11c0-0.04-0.01-0.07-0.01-0.11
		c0-0.04-0.01-0.07-0.01-0.11c0-0.04-0.01-0.07-0.01-0.11c0-0.04-0.01-0.09-0.01-0.13c-0.01-0.06-0.01-0.13-0.02-0.19
		c0-0.03-0.01-0.07-0.01-0.1c0-0.04-0.01-0.08-0.01-0.12c0-0.03,0-0.07-0.01-0.1c0-0.04-0.01-0.08-0.01-0.12c0-0.03,0-0.06-0.01-0.1
		c0-0.04,0-0.08-0.01-0.12c0-0.03,0-0.06,0-0.09c0-0.04,0-0.08-0.01-0.12c0-0.03,0-0.06,0-0.09c0-0.04,0-0.08,0-0.13
		c0-0.03,0-0.05,0-0.08c0-0.17-0.01-0.33-0.01-0.5c0-0.01,0-0.03,0-0.04c0-0.05,0-0.1,0-0.14c0-0.02,0-0.05,0-0.07
		c0-0.05,0-0.09,0-0.14c0-0.02,0-0.05,0-0.07c0-0.05,0-0.09,0-0.14c0-0.02,0-0.05,0-0.07c0-0.05,0-0.09,0-0.14c0-0.02,0-0.04,0-0.06
		c0-0.05,0-0.1,0.01-0.15c0-0.01,0-0.03,0-0.04c0.01-0.25,0.03-0.49,0.05-0.74c0-0.01,0-0.02,0-0.03c0-0.06,0.01-0.11,0.02-0.17
		c0-0.01,0-0.03,0-0.04c0.01-0.05,0.01-0.11,0.02-0.16c0-0.01,0-0.03,0-0.04c0.01-0.06,0.01-0.11,0.02-0.17c0-0.01,0-0.02,0-0.03
		c0.05-0.45,0.12-0.9,0.2-1.34c0,0,0,0,0,0c0.69-3.81,2.38-7.43,4.6-10.95c0,0,0,0,0,0c0.2-0.32,0.42-0.62,0.63-0.93
		c0.04-0.07,0.04-0.08,0.05-0.12c0.01-0.04,0.02-0.07,0.02-0.11C15.99,6.23,15.85,6.09,15.68,6.09z"/>
	<path class="st1" d="M12.23,3.31c0-0.01,0-0.02,0-0.03c0-0.02,0-0.04,0-0.06c0-0.01,0-0.02,0-0.03c0-0.02,0-0.04,0-0.06
		c0-0.01,0-0.02,0-0.03c0-0.02,0-0.04-0.01-0.06c0-0.01,0-0.02,0-0.03c0-0.02,0-0.04-0.01-0.06c0-0.01,0-0.02,0-0.03
		c0-0.02-0.01-0.04-0.01-0.07c0-0.01,0-0.01,0-0.02c-0.01-0.06-0.02-0.12-0.04-0.17c0,0,0-0.01,0-0.01
		c-0.01-0.02-0.01-0.05-0.02-0.07c0-0.01,0-0.02-0.01-0.02c-0.01-0.02-0.01-0.04-0.02-0.06c0-0.01-0.01-0.02-0.01-0.03
		c-0.01-0.02-0.01-0.04-0.02-0.06c0-0.01-0.01-0.02-0.01-0.03c-0.01-0.02-0.01-0.04-0.02-0.05c0-0.01-0.01-0.02-0.01-0.03
		c-0.01-0.02-0.01-0.03-0.02-0.05c0-0.01-0.01-0.02-0.01-0.03C12,2.2,11.99,2.18,11.98,2.17C11.96,2.11,11.93,2.06,11.91,2
		c0,0,0-0.01-0.01-0.01c0-0.01,0-0.01-0.01-0.02c0,0,0,0,0,0c-0.53-1.08-1.65-1.83-2.95-1.83c-1.81,0-3.28,1.46-3.28,3.26
		c0,1.5,1.02,2.77,2.42,3.14c0,0,0,0,0.01,0c0.03,0.01,0.06,0.01,0.08,0.02c0,0,0.01,0,0.01,0c0.03,0.01,0.06,0.01,0.09,0.02
		c0,0,0,0,0,0C8.33,6.6,8.4,6.61,8.46,6.62c0.01,0,0.01,0,0.02,0c0.02,0,0.05,0.01,0.07,0.01c0.01,0,0.02,0,0.03,0
		c0.02,0,0.04,0,0.06,0.01c0.01,0,0.02,0,0.03,0c0.02,0,0.04,0,0.06,0c0.01,0,0.02,0,0.03,0c0.02,0,0.04,0,0.06,0
		c0.01,0,0.02,0,0.03,0c0.03,0,0.06,0,0.09,0c1.81,0,3.28-1.46,3.28-3.26C12.23,3.37,12.23,3.34,12.23,3.31z"/>
</g>
</svg>
