<?xml version="1.0" encoding="utf-8"?>
<!-- Generator: Adobe Illustrator 25.4.1, SVG Export Plug-In . SVG Version: 6.00 Build 0)  -->
<svg version="1.1" id="Capa_1" xmlns="http://www.w3.org/2000/svg" xmlns:xlink="http://www.w3.org/1999/xlink" x="0px" y="0px"
	 viewBox="0 0 60 60" style="enable-background:new 0 0 60 60;" xml:space="preserve">
<style type="text/css">
	.st0{fill:#0CA3B3;}
	.st1{fill:#1D57C5;}
	.st2{fill:#FFFFFF;}
</style>
<g>
	<g>
		<path class="st0" d="M19.78,11.51c-0.8-0.35-3.13-0.8-4.2-0.81c-1.07,0.01-3.4,0.46-4.2,0.81c-3.7,1.61-3.74,4.73-3.74,9.6h7.94
			h7.94C23.53,16.24,23.48,13.12,19.78,11.51z"/>
		<g>
			<path class="st0" d="M18.75,30.86h-2.78h-0.59h-2.78c0,0,0.94,5.35-3.54,9.77l6.32,7.64h0.59l6.32-7.64
				C17.81,36.21,18.75,30.86,18.75,30.86z"/>
			<path class="st0" d="M12.6,30.86h2.78h0.59h2.78c0,0-0.45,2.61,0.79,5.68c-2.57-1-4.62-3.12-6.88-5.06
				C12.64,31.09,12.6,30.86,12.6,30.86z"/>
			<path class="st0" d="M29.64,38.89c-1.2-2.18-10.35-4.39-10.35-4.39s0,0.02,0,0.03l-0.12-0.03c0,0,0.04,0.39,0.02,1.07
				c-0.04-0.13-0.08-0.27-0.12-0.4l-3.38,1.87l-3.44-1.87c-0.06,0.23-0.13,0.47-0.21,0.7c-0.04-0.87,0.01-1.37,0.01-1.38l-0.12,0.03
				c0-0.02,0-0.03,0-0.03s-9.16,2.2-10.35,4.39C0.96,40.03,0.36,46.01,0,50.36h15.62h15.62C30.87,46.01,30.27,40.03,29.64,38.89z
				 M15.63,48.27h0.13c-0.03,0.09-0.06,0.15-0.06,0.15S15.67,48.35,15.63,48.27z"/>
			<path class="st0" d="M12.26,35.18c-0.45,1.69,2.98,4.33,2.98,4.33l-1.72,8.75l2.15,1.29l2.14-1.29l-1.61-8.7
				c0,0,3.34-2.69,2.88-4.38l-3.37,1.25L12.26,35.18z"/>
		</g>
		<path class="st0" d="M23.78,20.75c-0.24-0.61-0.65-0.3-0.97,0.11c0.09-4.76-2.42-7.17-2.42-7.17h-4.72h-4.72
			c0,0-2.53,2.41-2.45,7.14c-0.32-0.39-0.72-0.67-0.95-0.07c-0.43,1.11,0.58,2.62,0.39,4.16c-0.13,1.04,0.69,0.93,1.21,0.64
			c0.2,0.79,0.49,1.71,0.95,2.8c0.99,2.29,3.82,4.38,5.55,4.38c1.74,0,4.52-2.1,5.55-4.38c0.47-1.05,0.77-1.91,0.95-2.81
			c0.52,0.3,1.37,0.42,1.23-0.63C23.2,23.37,24.21,21.86,23.78,20.75z"/>
		<g>
			<polygon class="st0" points="15.71,36.43 18.18,39.34 20.75,34.73 18.85,33.91 			"/>
			<polygon class="st0" points="15.71,36.43 13.24,39.34 10.56,34.82 12.49,33.91 			"/>
		</g>
		<path class="st0" d="M29.67,38.89c-1.2-2.18-5.86-3.17-5.86-3.17s-7.43,11.43-8.18,12.59c-0.75-1.16-8.18-12.59-8.18-12.59
			s-4.66,0.98-5.86,3.17C0.96,40.03,0.36,46.01,0,50.36h15.62h0.03h15.62C30.9,46.01,30.3,40.03,29.67,38.89z"/>
		<path class="st0" d="M10.04,24.78c-0.34-2.93-0.63-9.8,3.76-11.72l-1.35-0.65c0,0-3.93,0.79-4.29,6.86l1.05,6.41h0.01
			C9.72,25.68,10.1,25.26,10.04,24.78z"/>
		<path class="st0" d="M22.05,25.68h0.04l1.05-6.37c-0.36-6.07-4.29-6.86-4.29-6.86l-1.35,0.65c4.39,1.91,4.1,8.77,3.76,11.71
			C21.22,25.28,21.58,25.68,22.05,25.68z"/>
	</g>
	<path class="st1" d="M56.15,8.91H38.14c-2.13,0-3.85,1.59-3.85,3.56v18.05c-4.91,1.46-9.62,0.27-9.62,0.27
		c2.04,2.24,6.01,2.88,9.62,2.93v4.28c0,1.96,1.72,3.56,3.85,3.56h18.01c2.13,0,3.85-1.59,3.85-3.56V12.47
		C60,10.5,58.28,8.91,56.15,8.91z"/>
	<g>
		<rect x="37.16" y="14.51" class="st2" width="19.95" height="1.85"/>
		<rect x="37.16" y="17.9" class="st2" width="19.95" height="1.85"/>
		<rect x="37.16" y="21.29" class="st2" width="19.95" height="1.85"/>
		<rect x="37.16" y="24.68" class="st2" width="19.95" height="1.85"/>
		<rect x="37.16" y="28.08" class="st2" width="19.95" height="1.85"/>
		<rect x="37.16" y="31.62" class="st2" width="19.95" height="1.85"/>
		<rect x="37.16" y="35.01" class="st2" width="19.95" height="1.85"/>
	</g>
</g>
</svg>
